{"glyphs":{"0":{"ha":906,"x_min":63,"x_max":843,"o":"m 63 521 q 155 897 63 760 q 453 1035 247 1035 q 751 897 658 1035 q 843 521 843 760 q 751 142 843 279 q 453 4 658 4 q 155 142 247 4 q 63 521 63 279 m 610 521 q 579 737 610 661 q 453 813 549 813 q 326 737 357 813 q 296 521 296 661 q 307 365 296 426 q 352 265 318 303 q 453 226 386 226 q 553 265 519 226 q 599 365 588 303 q 610 521 610 426 z "},"1":{"ha":522,"x_min":38,"x_max":422,"o":"m 38 793 l 38 1014 l 422 1014 l 422 0 l 175 0 l 175 793 l 38 793 z "},"2":{"ha":793,"x_min":51,"x_max":751,"o":"m 54 190 q 97 225 101 228 q 312 410 233 338 q 444 561 390 482 q 499 715 499 640 q 472 804 499 772 q 393 836 446 836 q 310 797 340 836 q 281 685 281 757 l 51 685 q 102 882 54 803 q 228 999 150 961 q 403 1036 307 1036 q 652 951 568 1036 q 736 731 736 867 q 635 455 736 582 q 376 207 533 328 l 751 207 l 751 14 l 54 14 l 54 190 z "},"3":{"ha":840,"x_min":58,"x_max":764,"o":"m 71 728 q 168 957 76 876 q 417 1038 260 1038 q 595 1001 521 1038 q 708 903 669 965 q 746 763 746 840 q 700 613 746 671 q 593 535 654 556 l 593 529 q 718 442 672 503 q 764 285 764 381 q 724 133 764 199 q 609 29 685 67 q 429 -8 533 -8 q 163 74 263 -8 q 58 321 64 156 l 289 321 q 324 224 290 260 q 421 189 357 189 q 505 220 475 189 q 535 303 535 251 q 492 399 535 369 q 357 429 450 429 l 313 429 l 313 622 l 357 622 q 472 647 428 622 q 515 733 515 671 q 488 811 515 783 q 411 839 460 839 q 333 807 358 839 q 303 728 307 775 l 71 728 z "},"4":{"ha":940,"x_min":68,"x_max":886,"o":"m 68 181 l 68 372 l 507 1000 l 772 1000 l 772 386 l 886 386 l 886 181 l 772 181 l 772 0 l 535 0 l 535 181 l 68 181 m 551 739 l 318 386 l 551 386 l 551 739 z "},"5":{"ha":903,"x_min":117,"x_max":835,"o":"m 776 807 l 343 807 l 343 615 q 421 665 371 646 q 529 685 471 685 q 702 638 633 685 q 803 515 771 590 q 835 353 835 440 q 743 95 835 190 q 485 0 651 0 q 292 38 374 0 q 165 144 210 76 q 117 301 121 213 l 349 301 q 389 230 357 258 q 476 201 421 201 q 574 243 542 201 q 606 354 606 285 q 572 458 606 422 q 475 494 539 494 q 397 472 428 494 q 357 411 367 449 l 128 411 l 128 1015 l 776 1015 l 776 807 z "},"6":{"ha":885,"x_min":86,"x_max":813,"o":"m 564 740 q 525 817 553 792 q 446 843 497 843 q 332 774 367 843 q 296 557 297 706 q 384 633 326 606 q 511 661 442 661 q 730 575 647 661 q 813 335 813 489 q 772 157 813 233 q 652 38 731 81 q 467 -6 574 -6 q 169 128 253 -6 q 86 514 86 263 q 174 906 86 778 q 457 1035 263 1035 q 633 994 561 1035 q 741 886 704 953 q 785 740 778 819 l 564 740 m 454 474 q 355 438 394 474 q 315 338 315 403 q 352 233 315 271 q 457 196 389 196 q 553 233 518 196 q 589 333 589 269 q 554 436 589 399 q 454 474 519 474 z "},"7":{"ha":743,"x_min":39,"x_max":710,"o":"m 710 836 l 361 0 l 118 0 l 471 810 l 39 810 l 39 1013 l 710 1013 l 710 836 z "},"8":{"ha":900,"x_min":75,"x_max":825,"o":"m 229 544 q 99 763 99 614 q 138 899 99 838 q 256 998 176 961 q 450 1035 335 1035 q 644 998 565 1035 q 761 899 722 961 q 800 763 800 838 q 765 632 800 688 q 669 544 729 576 q 785 445 744 508 q 825 297 825 382 q 775 127 825 199 q 640 18 725 56 q 450 -19 554 -19 q 260 18 346 -19 q 125 127 175 56 q 75 297 75 199 q 115 447 75 383 q 229 544 156 510 m 569 726 q 537 815 569 783 q 450 846 504 846 q 363 814 396 846 q 331 725 331 782 q 364 640 331 671 q 450 608 397 608 q 536 640 503 608 q 569 726 569 672 m 450 442 q 344 406 385 442 q 304 308 304 371 q 344 213 304 250 q 450 175 383 175 q 555 213 517 175 q 593 308 593 250 q 553 406 593 369 q 450 442 514 442 z "},"9":{"ha":854,"x_min":72,"x_max":790,"o":"m 318 297 q 446 188 339 188 q 550 253 519 188 q 581 465 581 318 q 497 399 550 422 q 379 375 444 375 q 221 412 290 375 q 112 522 151 449 q 72 699 72 594 q 115 878 72 801 q 235 996 157 954 q 421 1038 314 1038 q 708 910 626 1038 q 790 533 790 782 q 758 235 790 353 q 648 57 725 118 q 438 -4 571 -4 q 258 38 332 -4 q 144 147 183 79 q 99 297 104 215 l 318 297 m 433 563 q 526 598 492 563 q 561 694 561 633 q 525 797 561 761 q 428 833 489 833 q 331 797 367 833 q 296 696 296 760 q 331 599 296 636 q 433 563 367 563 z "},"\u0000":{"ha":0,"x_min":0,"x_max":0,"o":""},"\r":{"ha":294,"x_min":0,"x_max":0,"o":""}," ":{"ha":294,"x_min":0,"x_max":0,"o":""},"अ":{"ha":1165,"x_min":83,"x_max":1189,"o":"m 1189 1028 l 1189 846 l 1051 846 l 1051 0 l 835 0 l 835 365 l 699 365 l 699 353 q 619 156 699 229 q 410 82 540 82 q 239 119 313 82 q 124 222 165 156 q 83 375 83 289 l 288 375 q 317 300 288 331 q 396 269 347 269 q 473 299 444 269 q 501 375 501 328 q 469 453 501 421 q 372 485 436 485 l 310 485 l 310 661 l 372 661 q 458 688 426 661 q 490 758 490 715 q 463 829 490 803 q 394 856 436 856 q 322 829 350 856 q 293 761 293 803 l 92 761 q 129 907 92 843 q 235 1006 167 971 q 394 1040 304 1040 q 606 972 526 1040 q 685 788 685 903 q 647 658 685 713 q 538 581 608 604 l 538 575 q 607 544 579 564 l 835 544 l 835 1028 l 1189 1028 z "},"आ":{"ha":1604,"x_min":83,"x_max":1632,"o":"m 1632 846 l 1496 846 l 1496 0 l 1278 0 l 1278 846 l 1051 846 l 1051 0 l 835 0 l 835 365 l 699 365 l 699 353 q 619 156 699 229 q 410 82 540 82 q 239 119 313 82 q 124 222 165 156 q 83 375 83 289 l 288 375 q 317 300 288 331 q 396 269 347 269 q 473 299 444 269 q 501 375 501 328 q 469 453 501 421 q 372 485 436 485 l 310 485 l 310 661 l 372 661 q 458 688 426 661 q 490 758 490 715 q 463 829 490 803 q 394 856 436 856 q 322 829 350 856 q 293 761 293 803 l 92 761 q 129 907 92 843 q 235 1006 167 971 q 394 1040 304 1040 q 606 972 526 1040 q 685 788 685 903 q 647 658 685 713 q 538 581 608 604 l 538 575 q 607 544 579 564 l 835 544 l 835 1028 l 1632 1028 l 1632 846 z "},"इ":{"ha":803,"x_min":-29,"x_max":833,"o":"m 394 590 q 329 575 356 590 q 303 525 303 560 q 326 478 303 493 q 388 463 349 463 l 449 463 q 653 404 571 463 q 735 214 735 346 q 670 42 735 108 q 493 -25 606 -25 q 387 -3 431 -25 q 319 47 343 19 l 319 -117 l 113 -117 l 113 240 l 308 240 q 344 164 311 192 q 429 136 376 136 q 502 159 476 136 q 528 219 528 182 q 495 287 528 265 q 407 308 463 308 q 319 311 351 308 q 153 369 222 315 q 83 528 83 422 q 155 690 83 636 q 339 744 226 744 l 440 744 l 440 846 l -29 846 l -29 1028 l 833 1028 l 833 846 l 651 846 l 651 590 l 394 590 z "},"ई":{"ha":803,"x_min":-29,"x_max":994,"o":"m 797 1133 q 779 1210 799 1183 q 724 1238 760 1238 q 665 1208 683 1238 q 646 1119 646 1179 l 646 1028 l 833 1028 l 833 846 l 651 846 l 651 590 l 394 590 q 329 575 356 590 q 303 525 303 560 q 326 478 303 493 q 388 463 349 463 l 449 463 q 653 404 571 463 q 735 214 735 346 q 670 42 735 108 q 493 -25 606 -25 q 387 -3 431 -25 q 319 47 343 19 l 319 -117 l 113 -117 l 113 240 l 308 240 q 344 164 311 192 q 429 136 376 136 q 502 159 476 136 q 528 219 528 182 q 495 287 528 265 q 407 308 463 308 q 319 311 351 308 q 153 369 222 315 q 83 528 83 422 q 155 690 83 636 q 339 744 226 744 l 440 744 l 440 846 l -29 846 l -29 1028 l 443 1028 l 443 1117 q 507 1331 443 1244 q 719 1418 571 1418 q 924 1342 853 1418 q 988 1133 994 1265 l 797 1133 z "},"उ":{"ha":785,"x_min":-24,"x_max":808,"o":"m 688 763 q 652 625 688 679 q 560 557 617 571 l 560 553 q 677 465 632 532 q 722 307 722 397 q 685 150 722 218 q 576 44 647 82 q 406 6 504 6 q 224 44 303 6 q 100 157 144 83 q 56 331 56 231 l 264 331 q 301 237 264 274 q 394 200 338 200 q 483 235 450 200 q 517 325 517 269 q 483 416 517 378 q 383 454 450 454 l 300 454 l 300 644 l 353 644 q 443 677 410 644 q 476 772 476 710 l 476 846 l -24 846 l -24 1028 l 808 1028 l 808 846 l 688 846 l 688 763 z "},"ऊ":{"ha":1185,"x_min":-24,"x_max":1206,"o":"m 688 763 q 652 625 688 679 q 560 557 617 571 l 560 553 l 807 553 q 1044 485 957 553 q 1132 281 1132 417 q 1061 96 1132 165 q 867 26 990 26 q 785 35 828 26 l 785 199 q 828 197 799 197 q 897 220 871 197 q 922 289 922 243 q 892 358 922 335 q 810 381 861 381 l 708 381 q 719 294 719 339 q 682 147 719 213 q 573 43 644 81 q 406 6 501 6 q 224 44 303 6 q 100 157 144 83 q 56 331 56 231 l 264 331 q 301 237 264 274 q 394 200 338 200 q 483 235 450 200 q 517 325 517 269 q 483 416 517 378 q 383 454 450 454 l 300 454 l 300 644 l 353 644 q 443 677 410 644 q 476 772 476 710 l 476 846 l -24 846 l -24 1028 l 1206 1028 l 1206 846 l 688 846 l 688 763 z "},"ऋ":{"ha":1461,"x_min":-24,"x_max":1485,"o":"m 863 846 l 863 626 l 1064 626 q 1130 646 1107 626 q 1153 701 1153 665 l 1153 753 l 1340 753 l 1340 267 l 1303 267 q 1216 240 1246 267 q 1186 168 1186 213 q 1221 97 1186 119 q 1313 74 1256 74 q 1392 83 1353 74 l 1392 -90 q 1283 -100 1340 -100 q 1063 -35 1147 -100 q 978 149 978 31 q 1024 296 978 236 q 1153 382 1071 356 l 1153 474 q 1032 454 1094 454 l 863 454 l 863 0 l 663 0 l 663 238 l 403 0 l 125 0 l 125 10 l 658 447 q 598 525 640 496 q 496 554 556 554 q 356 501 407 554 q 306 358 306 447 l 88 358 q 128 557 88 471 q 247 691 169 643 q 431 739 324 739 q 663 642 581 739 l 663 846 l -24 846 l -24 1028 l 1485 1028 l 1485 846 l 863 846 z "},"ॠ":{"ha":1439,"x_min":-24,"x_max":1488,"o":"m 863 846 l 863 626 l 1064 626 q 1130 646 1107 626 q 1153 701 1153 665 l 1153 753 l 1340 753 l 1340 261 l 1290 261 q 1192 193 1192 261 q 1293 128 1192 128 l 1372 128 l 1372 -35 l 1303 -35 q 1190 -106 1190 -35 q 1306 -176 1190 -176 q 1447 -154 1376 -176 l 1447 -315 q 1367 -337 1415 -329 q 1272 -344 1318 -344 q 1065 -292 1150 -344 q 981 -129 981 -239 q 1019 -19 981 -65 q 1119 40 1058 26 l 1119 46 q 1019 99 1057 60 q 982 206 982 138 q 1031 324 982 282 q 1153 376 1081 365 l 1153 474 q 1032 454 1094 454 l 863 454 l 863 0 l 663 0 l 663 238 l 403 0 l 125 0 l 125 10 l 658 447 q 598 525 640 496 q 496 554 556 554 q 356 501 407 554 q 306 358 306 447 l 88 358 q 128 557 88 471 q 247 691 169 643 q 431 739 324 739 q 663 642 581 739 l 663 846 l -24 846 l -24 1028 l 1488 1028 l 1488 846 l 863 846 z "},"ऌ":{"ha":1258,"x_min":-24,"x_max":1281,"o":"m 996 846 l 996 715 q 1133 603 1082 683 q 1185 400 1185 522 q 1163 261 1185 322 l 1154 261 q 1010 161 1010 261 q 1046 92 1010 115 q 1140 69 1082 69 q 1221 79 1186 69 l 1221 -94 q 1113 -104 1171 -104 q 887 -37 972 -104 q 801 151 801 29 q 848 288 801 229 q 967 371 894 347 q 968 401 968 381 q 937 504 968 465 q 850 543 906 543 q 756 497 786 543 q 725 379 725 451 l 725 339 l 544 339 l 544 379 q 514 497 544 450 q 422 543 483 543 q 328 503 361 543 q 294 397 294 464 q 334 278 294 318 q 443 238 374 238 q 481 239 467 238 l 481 50 q 433 49 461 49 q 167 144 261 49 q 74 400 74 239 q 117 585 74 510 q 231 697 160 660 q 390 735 303 735 q 541 691 482 735 q 629 576 600 647 l 635 576 q 692 664 654 626 q 785 719 731 701 l 785 846 l -24 846 l -24 1028 l 1281 1028 l 1281 846 l 996 846 z "},"ॡ":{"ha":1272,"x_min":-24,"x_max":1294,"o":"m 996 846 l 996 715 q 1133 603 1082 683 q 1185 400 1185 522 q 1163 261 1185 322 l 1122 261 q 1022 193 1022 261 q 1051 143 1022 158 q 1125 128 1079 128 l 1204 128 l 1204 -35 l 1135 -35 q 1021 -106 1021 -35 q 1138 -176 1021 -176 q 1279 -154 1208 -176 l 1279 -315 q 1199 -337 1247 -329 q 1104 -344 1150 -344 q 897 -291 982 -344 q 813 -128 813 -237 q 851 -19 813 -64 q 951 40 890 26 l 951 46 q 851 99 889 60 q 814 206 814 138 q 858 317 814 276 q 967 372 901 358 q 968 401 968 382 q 937 504 968 465 q 850 543 906 543 q 756 497 786 543 q 725 379 725 451 l 725 339 l 544 339 l 544 379 q 514 497 544 450 q 422 543 483 543 q 328 503 361 543 q 294 397 294 464 q 334 278 294 318 q 443 238 374 238 q 481 239 467 238 l 481 50 q 433 49 461 49 q 167 144 261 49 q 74 400 74 239 q 117 585 74 510 q 231 697 160 660 q 390 735 303 735 q 541 691 482 735 q 629 576 600 647 l 635 576 q 692 664 654 626 q 785 719 731 701 l 785 846 l -24 846 l -24 1028 l 1294 1028 l 1294 846 l 996 846 z "},"ए":{"ha":907,"x_min":-24,"x_max":931,"o":"m 931 846 l 810 846 l 810 736 q 750 514 810 590 q 556 438 690 438 q 481 443 515 438 l 481 639 q 508 638 490 638 q 576 663 554 638 q 597 742 597 689 l 597 846 l 332 846 l 332 365 q 367 252 332 292 q 464 213 403 213 q 556 247 522 213 q 589 340 589 281 l 803 340 q 712 109 803 192 q 468 26 621 26 q 206 120 296 26 q 115 374 115 214 l 114 846 l -24 846 l -24 1028 l 931 1028 l 931 846 z "},"ऐ":{"ha":907,"x_min":-24,"x_max":931,"o":"m 931 846 l 810 846 l 810 736 q 750 514 810 590 q 556 438 690 438 q 481 443 515 438 l 481 639 q 508 638 490 638 q 576 663 554 638 q 597 742 597 689 l 597 846 l 332 846 l 332 365 q 367 252 332 292 q 464 213 403 213 q 556 247 522 213 q 589 340 589 281 l 803 340 q 712 109 803 192 q 468 26 621 26 q 206 120 296 26 q 115 374 115 214 l 114 846 l -24 846 l -24 1028 l 592 1028 q 502 1150 536 1113 q 431 1201 468 1188 q 331 1214 394 1214 l 258 1214 l 258 1389 l 326 1389 q 510 1364 443 1388 q 642 1265 578 1340 q 796 1028 706 1190 l 931 1028 l 931 846 z "},"ओ":{"ha":1608,"x_min":83,"x_max":1632,"o":"m 1632 1028 l 1632 846 l 1496 846 l 1496 0 l 1278 0 l 1278 846 l 1051 846 l 1051 0 l 835 0 l 835 365 l 699 365 l 699 353 q 619 156 699 229 q 410 82 540 82 q 239 119 313 82 q 124 222 165 156 q 83 375 83 289 l 288 375 q 317 300 288 331 q 396 269 347 269 q 473 299 444 269 q 501 375 501 328 q 469 453 501 421 q 372 485 436 485 l 310 485 l 310 661 l 372 661 q 458 688 426 661 q 490 758 490 715 q 463 829 490 803 q 394 856 436 856 q 322 829 350 856 q 293 761 293 803 l 92 761 q 129 907 92 843 q 235 1006 167 971 q 394 1040 304 1040 q 606 972 526 1040 q 685 788 685 903 q 647 658 685 713 q 538 581 608 604 l 538 575 q 607 544 579 564 l 835 544 l 835 1028 l 1279 1028 q 1190 1150 1224 1113 q 1119 1201 1156 1188 q 1018 1214 1082 1214 l 946 1214 l 946 1389 l 1014 1389 q 1198 1364 1131 1388 q 1329 1265 1265 1340 q 1483 1028 1393 1190 l 1632 1028 z "},"औ":{"ha":1608,"x_min":83,"x_max":1632,"o":"m 1632 1028 l 1632 846 l 1496 846 l 1496 0 l 1278 0 l 1278 846 l 1051 846 l 1051 0 l 835 0 l 835 365 l 699 365 l 699 353 q 619 156 699 229 q 410 82 540 82 q 239 119 313 82 q 124 222 165 156 q 83 375 83 289 l 288 375 q 317 300 288 331 q 396 269 347 269 q 473 299 444 269 q 501 375 501 328 q 469 453 501 421 q 372 485 436 485 l 310 485 l 310 661 l 372 661 q 458 688 426 661 q 490 758 490 715 q 463 829 490 803 q 394 856 436 856 q 322 829 350 856 q 293 761 293 803 l 92 761 q 129 907 92 843 q 235 1006 167 971 q 394 1040 304 1040 q 606 972 526 1040 q 685 788 685 903 q 647 658 685 713 q 538 581 608 604 l 538 575 q 607 544 579 564 l 835 544 l 835 1028 l 1290 1028 q 1174 1097 1204 1082 q 1112 1117 1144 1113 q 1000 1122 1079 1122 l 925 1122 l 925 1258 l 996 1258 q 1107 1254 1071 1258 q 1177 1234 1143 1250 q 1263 1179 1211 1218 q 1174 1297 1214 1260 q 1099 1342 1135 1333 q 1004 1351 1064 1351 l 925 1351 l 925 1489 l 1000 1489 q 1176 1464 1117 1489 q 1300 1347 1236 1439 q 1482 1028 1364 1256 l 1632 1028 z "},"ऍ":{"ha":907,"x_min":-24,"x_max":931,"o":"m 931 846 l 810 846 l 810 736 q 750 514 810 590 q 556 438 690 438 q 481 443 515 438 l 481 639 q 508 638 490 638 q 576 663 554 638 q 597 742 597 689 l 597 846 l 332 846 l 332 365 q 367 252 332 292 q 464 213 403 213 q 556 247 522 213 q 589 340 589 281 l 803 340 q 712 109 803 192 q 468 26 621 26 q 206 120 296 26 q 115 374 115 214 l 114 846 l -24 846 l -24 1028 l 931 1028 l 931 846 m 788 1431 q 704 1217 788 1297 q 454 1138 621 1138 q 205 1217 288 1138 q 122 1431 122 1297 l 310 1431 q 345 1335 310 1372 q 454 1299 381 1299 q 564 1335 528 1299 q 600 1431 600 1372 l 788 1431 z "},"ॲ":{"ha":1171,"x_min":83,"x_max":1288,"o":"m 1189 1028 l 1189 846 l 1051 846 l 1051 0 l 835 0 l 835 365 l 699 365 l 699 353 q 619 156 699 229 q 410 82 540 82 q 239 119 313 82 q 124 222 165 156 q 83 375 83 289 l 288 375 q 317 300 288 331 q 396 269 347 269 q 473 299 444 269 q 501 375 501 328 q 469 453 501 421 q 372 485 436 485 l 310 485 l 310 661 l 372 661 q 458 688 426 661 q 490 758 490 715 q 463 829 490 803 q 394 856 436 856 q 322 829 350 856 q 293 761 293 803 l 92 761 q 129 907 92 843 q 235 1006 167 971 q 394 1040 304 1040 q 606 972 526 1040 q 685 788 685 903 q 647 658 685 713 q 538 581 608 604 l 538 575 q 607 544 579 564 l 835 544 l 835 1028 l 1189 1028 m 1288 1438 q 1204 1224 1288 1304 q 954 1144 1121 1144 q 705 1224 788 1144 q 622 1438 622 1304 l 810 1438 q 845 1342 810 1379 q 954 1306 881 1306 q 1064 1342 1028 1306 q 1100 1438 1100 1379 l 1288 1438 z "},"ऑ":{"ha":1608,"x_min":83,"x_max":1632,"o":"m 1632 846 l 1496 846 l 1496 0 l 1278 0 l 1278 846 l 1051 846 l 1051 0 l 835 0 l 835 365 l 699 365 l 699 353 q 619 156 699 229 q 410 82 540 82 q 239 119 313 82 q 124 222 165 156 q 83 375 83 289 l 288 375 q 317 300 288 331 q 396 269 347 269 q 473 299 444 269 q 501 375 501 328 q 469 453 501 421 q 372 485 436 485 l 310 485 l 310 661 l 372 661 q 458 688 426 661 q 490 758 490 715 q 463 829 490 803 q 394 856 436 856 q 322 829 350 856 q 293 761 293 803 l 92 761 q 129 907 92 843 q 235 1006 167 971 q 394 1040 304 1040 q 606 972 526 1040 q 685 788 685 903 q 647 658 685 713 q 538 581 608 604 l 538 575 q 607 544 579 564 l 835 544 l 835 1028 l 1632 1028 l 1632 846 m 1503 1431 q 1419 1217 1503 1297 q 1169 1138 1336 1138 q 920 1217 1003 1138 q 838 1431 838 1297 l 1025 1431 q 1060 1335 1025 1372 q 1169 1299 1096 1299 q 1279 1335 1243 1299 q 1315 1431 1315 1372 l 1503 1431 z "},"ा":{"ha":443,"x_min":-24,"x_max":467,"o":"m 113 0 l 113 846 l -24 846 l -24 1028 l 467 1028 l 467 846 l 331 846 l 331 0 l 113 0 z "},"ि":{"ha":443,"x_min":-24,"x_max":1272,"o":"m 692 1432 q 997 1378 865 1432 q 1201 1226 1129 1324 q 1272 1004 1272 1129 l 1272 979 l 1054 979 l 1054 1000 q 1004 1140 1054 1083 q 872 1226 954 1197 q 692 1254 789 1254 q 442 1197 544 1254 q 331 1028 339 1140 l 467 1028 l 467 846 l 331 846 l 331 0 l 113 0 l 113 846 l -24 846 l -24 1028 l 113 1028 q 191 1241 118 1150 q 392 1382 264 1332 q 692 1432 521 1432 z "},"ी":{"ha":443,"x_min":-331,"x_max":467,"o":"m 467 1028 l 467 846 l 331 846 l 331 0 l 113 0 l 113 846 l -24 846 l -24 1028 l 119 1028 l 119 1081 q 3 1249 119 1249 q -119 1081 -119 1249 l -119 979 l -331 979 l -331 1069 q -251 1335 -331 1238 q 3 1432 -172 1432 q 331 1069 331 1432 l 331 1028 l 467 1028 z "},"ु":{"ha":0,"x_min":-654,"x_max":13,"o":"m 13 -206 q -70 -401 13 -329 q -293 -472 -153 -472 q -472 -440 -390 -472 q -604 -335 -554 -407 q -653 -149 -654 -262 l -460 -149 q -417 -264 -461 -226 q -299 -301 -374 -301 q -206 -276 -239 -301 q -172 -203 -172 -250 q -201 -136 -172 -162 q -282 -110 -229 -110 l -331 -110 l -331 60 l -282 60 q -62 -10 -137 60 q 13 -206 13 -81 z "},"ू":{"ha":0,"x_min":-531,"x_max":142,"o":"m -212 -450 q -265 -451 -231 -451 q -455 -387 -379 -451 q -531 -204 -531 -324 q -447 -16 -531 -85 q -229 53 -364 53 q 56 -66 -29 53 q 142 -365 142 -185 q 139 -443 142 -393 l -37 -443 l -37 -356 q -86 -173 -37 -236 q -232 -110 -135 -110 q -320 -134 -285 -110 q -356 -206 -356 -158 q -325 -272 -356 -249 q -250 -296 -294 -296 l -212 -294 l -212 -450 z "},"ृ":{"ha":0,"x_min":-496,"x_max":-39,"o":"m -39 -444 q -189 -467 -110 -467 q -406 -402 -315 -467 q -496 -203 -496 -337 q -415 -15 -496 -86 q -193 56 -335 56 q -112 53 -140 56 l -112 -93 l -175 -93 q -256 -122 -228 -93 q -285 -194 -285 -150 q -249 -269 -285 -246 q -154 -293 -212 -293 q -39 -275 -100 -293 l -39 -444 z "},"ॄ":{"ha":0,"x_min":-450,"x_max":17,"o":"m 17 -642 q -64 -661 -15 -654 q -158 -668 -112 -668 q -365 -616 -281 -668 q -450 -454 -450 -564 q -412 -344 -450 -389 q -311 -285 -374 -299 l -311 -279 q -411 -226 -374 -265 q -449 -119 -449 -187 q -381 13 -449 -29 q -226 56 -312 56 l -112 56 l -112 -62 l -140 -62 q -240 -131 -240 -62 q -212 -182 -240 -165 q -139 -199 -183 -199 l -58 -199 l -58 -358 l -126 -358 q -210 -374 -179 -358 q -240 -431 -240 -389 q -125 -500 -240 -500 q -47 -493 -86 -500 q 17 -479 -7 -486 l 17 -642 z "},"ॢ":{"ha":0,"x_min":-640,"x_max":224,"o":"m 163 -528 q 224 -521 201 -528 l 224 -656 q 142 -662 179 -662 q -31 -612 35 -662 q -96 -468 -96 -561 q -60 -365 -96 -408 q 29 -303 -25 -321 l 29 -283 q 7 -208 29 -236 q -57 -179 -15 -179 q -125 -212 -103 -179 q -147 -299 -147 -246 l -147 -329 l -287 -329 l -287 -299 q -310 -212 -287 -246 q -376 -179 -332 -179 q -445 -208 -421 -179 q -469 -286 -469 -237 q -440 -372 -469 -343 q -361 -401 -411 -401 q -333 -399 -343 -401 l -333 -547 l -369 -547 q -569 -476 -499 -547 q -640 -283 -640 -404 q -572 -96 -640 -161 q -403 -31 -504 -31 q -289 -63 -333 -31 q -222 -149 -244 -96 l -219 -149 q -149 -63 -197 -96 q -31 -31 -101 -31 q 85 -59 32 -31 q 169 -144 138 -87 q 201 -283 201 -201 q 185 -387 201 -333 l 176 -387 q 67 -460 67 -387 q 94 -510 67 -493 q 163 -528 121 -528 z "},"ॣ":{"ha":0,"x_min":-640,"x_max":267,"o":"m 161 -712 q 221 -708 190 -712 q 267 -697 251 -703 l 267 -822 q 207 -837 243 -832 q 135 -842 171 -842 q -21 -803 42 -842 q -83 -681 -83 -764 q -55 -597 -83 -631 q 19 -553 -26 -562 l 19 -550 q -55 -508 -26 -539 q -83 -426 -83 -478 q -51 -342 -83 -374 q 29 -300 -19 -311 l 29 -283 q 7 -208 29 -236 q -57 -179 -15 -179 q -125 -212 -103 -179 q -147 -299 -147 -246 l -147 -329 l -287 -329 l -287 -299 q -310 -212 -287 -246 q -376 -179 -332 -179 q -445 -208 -421 -179 q -469 -286 -469 -237 q -440 -372 -469 -343 q -361 -401 -411 -401 q -333 -399 -343 -401 l -333 -547 l -369 -547 q -569 -476 -499 -547 q -640 -283 -640 -404 q -572 -96 -640 -161 q -403 -31 -504 -31 q -289 -63 -333 -31 q -222 -149 -244 -96 l -219 -149 q -149 -63 -197 -96 q -31 -31 -101 -31 q 85 -59 32 -31 q 169 -144 138 -87 q 201 -283 201 -201 q 185 -387 201 -333 l 150 -387 q 76 -436 76 -387 q 97 -473 76 -461 q 153 -485 118 -485 l 211 -485 l 211 -610 l 161 -610 q 98 -620 121 -610 q 75 -662 75 -631 q 161 -712 75 -712 z "},"े":{"ha":0,"x_min":-657,"x_max":-115,"o":"m -319 1021 q -411 1149 -376 1110 q -483 1201 -446 1188 q -585 1214 -519 1214 l -657 1214 l -657 1389 l -589 1389 q -404 1363 -472 1388 q -272 1263 -336 1339 q -115 1021 -207 1188 l -319 1021 z "},"ै":{"ha":0,"x_min":-675,"x_max":-115,"o":"m -600 1489 q -424 1464 -483 1489 q -299 1347 -364 1439 q -115 1024 -235 1254 l -303 1024 l -329 1040 q -430 1099 -400 1085 q -492 1118 -460 1114 q -600 1122 -524 1122 l -675 1122 l -675 1258 l -604 1258 q -493 1254 -529 1258 q -423 1234 -457 1250 q -337 1179 -389 1218 q -426 1297 -386 1260 q -501 1342 -465 1333 q -596 1351 -536 1351 l -675 1351 l -675 1489 l -600 1489 z "},"ो":{"ha":444,"x_min":-212,"x_max":467,"o":"m 467 1028 l 467 846 l 331 846 l 331 0 l 113 0 l 113 846 l -24 846 l -24 1028 l 121 1028 q 31 1150 65 1113 q -40 1201 -3 1188 q -140 1214 -76 1214 l -212 1214 l -212 1389 l -144 1389 q 40 1364 -28 1388 q 171 1265 107 1340 q 325 1028 235 1190 l 467 1028 z "},"ौ":{"ha":443,"x_min":-239,"x_max":467,"o":"m 467 1028 l 467 846 l 331 846 l 331 0 l 113 0 l 113 846 l -24 846 l -24 1028 l 126 1028 q 10 1097 40 1082 q -52 1117 -19 1113 q -164 1122 -85 1122 l -239 1122 l -239 1258 l -168 1258 q -57 1254 -93 1258 q 13 1234 -21 1250 q 99 1179 47 1218 q 10 1297 50 1260 q -65 1342 -29 1333 q -160 1351 -100 1351 l -239 1351 l -239 1489 l -164 1489 q 13 1464 -47 1489 q 136 1347 72 1439 q 318 1028 200 1256 l 467 1028 z "},"ॅ":{"ha":0,"x_min":-565,"x_max":100,"o":"m 100 1419 q 17 1206 100 1286 q -233 1126 -67 1126 q -483 1206 -400 1126 q -565 1419 -565 1286 l -378 1419 q -342 1324 -378 1361 q -233 1288 -307 1288 q -124 1324 -160 1288 q -87 1419 -87 1361 l 100 1419 z "},"ॉ":{"ha":444,"x_min":-110,"x_max":556,"o":"m 114 0 l 114 846 l -22 846 l -22 1028 l 468 1028 l 468 846 l 332 846 l 332 0 l 114 0 m 556 1419 q 472 1206 556 1286 q 222 1126 389 1126 q -27 1206 56 1126 q -110 1419 -110 1286 l 78 1419 q 113 1324 78 1361 q 222 1288 149 1288 q 332 1324 296 1288 q 368 1419 368 1361 l 556 1419 z "},"क":{"ha":1340,"x_min":-24,"x_max":1364,"o":"m 786 846 l 786 640 q 867 712 817 686 q 986 738 918 738 q 1136 695 1072 738 q 1233 581 1200 653 q 1267 419 1267 508 q 1230 249 1267 321 q 1128 140 1193 178 q 981 103 1064 103 q 886 114 931 103 l 886 285 q 921 281 901 281 q 1011 316 976 281 q 1046 414 1046 351 q 1010 513 1046 474 q 917 551 975 551 q 819 508 853 551 q 786 400 786 465 l 786 0 l 576 0 l 576 193 q 489 117 544 144 q 360 89 433 89 q 208 130 274 89 q 108 245 143 171 q 74 414 74 319 q 153 649 74 560 q 368 738 232 738 q 493 712 440 738 q 576 640 546 686 l 576 846 l -24 846 l -24 1028 l 1364 1028 l 1364 846 l 786 846 m 435 272 q 538 315 500 272 q 576 414 576 357 q 539 512 576 471 q 436 553 501 553 q 335 514 375 553 q 294 413 294 475 q 333 310 294 349 q 435 272 372 272 z "},"ख":{"ha":1333,"x_min":-24,"x_max":1357,"o":"m 1357 1028 l 1357 846 l 1221 846 l 1221 0 l 1004 0 l 1004 219 q 840 154 946 154 q 797 157 825 154 q 667 35 747 81 q 482 -10 588 -10 q 195 94 300 -10 q 90 383 90 197 l 90 560 l 126 560 q 268 603 222 560 q 314 740 314 646 l 314 846 l -24 846 l -24 1028 l 1357 1028 m 488 179 q 638 247 590 179 q 574 443 574 329 q 608 588 574 524 q 703 690 642 653 q 840 726 764 726 q 1004 660 947 726 l 1004 846 l 532 846 l 532 710 q 472 498 532 575 q 307 408 411 421 l 307 357 q 354 228 307 278 q 488 179 401 179 m 889 321 q 974 356 943 321 q 1004 442 1004 390 q 975 526 1004 490 q 889 561 946 561 q 803 529 838 561 q 768 443 768 497 q 802 353 768 385 q 889 321 836 321 z "},"ग":{"ha":1132,"x_min":-24,"x_max":1156,"o":"m 1156 1028 l 1156 846 l 1019 846 l 1019 0 l 801 0 l 801 846 l 626 846 l 626 532 q 556 317 626 399 q 342 235 485 235 q 126 309 203 235 q 50 521 50 383 q 51 565 50 551 l 263 565 l 263 522 q 336 421 263 421 q 407 524 407 421 l 407 846 l -24 846 l -24 1028 l 1156 1028 z "},"घ":{"ha":971,"x_min":-24,"x_max":994,"o":"m 994 846 l 860 846 l 860 0 l 640 0 l 640 238 q 533 158 597 186 q 392 131 469 131 q 176 197 261 131 q 92 385 92 264 q 135 514 92 461 q 240 585 178 567 l 240 589 q 144 651 179 604 q 108 781 108 697 l 108 846 l -24 846 l -24 1028 l 994 1028 l 994 846 m 640 846 l 326 846 l 326 790 q 356 706 326 735 q 451 676 385 676 l 506 676 l 506 501 l 433 501 q 343 476 374 501 q 313 407 313 450 q 349 333 313 358 q 444 308 386 308 q 585 360 529 308 q 640 494 640 411 l 640 846 z "},"ङ":{"ha":975,"x_min":-24,"x_max":999,"o":"m 999 1028 l 999 846 l 657 846 l 657 590 l 400 590 q 335 575 361 590 q 310 526 310 560 q 333 478 310 493 q 392 463 356 463 l 454 463 q 658 404 575 463 q 740 219 740 346 q 658 39 740 106 q 428 -28 576 -28 q 174 43 272 -28 q 71 240 76 114 l 288 240 q 326 163 289 190 q 421 136 364 136 q 505 159 475 136 q 535 221 535 182 q 502 287 535 265 q 414 308 469 308 l 364 308 q 174 358 257 308 q 90 533 90 407 q 162 690 90 638 q 344 743 233 743 l 447 743 l 447 846 l -24 846 l -24 1028 l 999 1028 m 846 626 q 927 594 894 626 q 960 513 960 561 q 926 432 960 465 q 846 399 893 399 q 765 432 799 399 q 732 513 732 465 q 765 594 732 561 q 846 626 799 626 z "},"च":{"ha":1046,"x_min":-24,"x_max":1069,"o":"m 1069 846 l 933 846 l 933 0 l 715 0 l 715 222 q 613 143 676 171 q 472 115 550 115 q 328 147 393 115 q 226 238 264 178 q 189 378 189 297 q 257 540 189 479 l 71 540 l 71 711 l 583 711 l 583 540 l 526 540 q 431 507 468 540 q 393 418 393 474 q 433 328 393 361 q 535 296 474 296 q 667 354 619 296 q 715 511 715 413 l 715 846 l -24 846 l -24 1028 l 1069 1028 l 1069 846 z "},"छ":{"ha":1144,"x_min":-24,"x_max":1168,"o":"m 907 846 l 907 733 q 1038 633 990 706 q 1085 451 1085 560 q 1022 228 1085 324 q 841 80 960 132 q 558 28 722 28 q 214 106 342 28 q 86 336 86 185 q 126 472 86 418 q 238 550 167 526 l 238 556 q 142 617 178 571 q 107 747 107 664 l 107 846 l -24 846 l -24 1028 l 1168 1028 l 1168 846 l 907 846 m 706 846 l 325 846 l 325 757 q 436 643 325 643 l 464 643 l 464 468 l 440 468 q 341 437 375 468 q 307 357 307 406 q 369 251 307 288 q 560 214 431 214 q 807 278 721 214 q 893 463 893 342 q 869 553 893 518 q 806 589 844 589 q 742 560 767 589 q 718 478 718 531 q 736 372 718 429 l 557 372 q 538 503 538 431 q 583 654 538 596 q 706 735 628 713 l 706 846 z "},"ज":{"ha":1194,"x_min":-24,"x_max":1218,"o":"m 1218 846 l 1082 846 l 1082 0 l 864 0 l 864 492 l 704 492 l 704 450 q 666 289 704 360 q 557 178 628 218 q 390 139 486 139 q 155 224 238 139 q 72 450 72 310 l 72 678 l 292 678 l 292 456 q 317 363 292 396 q 392 329 343 329 q 465 363 439 329 q 490 456 490 396 l 490 678 l 864 678 l 864 846 l -24 846 l -24 1028 l 1218 1028 l 1218 846 z "},"झ":{"ha":1207,"x_min":-24,"x_max":1231,"o":"m 1231 846 l 1094 846 l 1094 0 l 881 0 l 881 299 l 706 299 q 729 190 729 254 q 668 38 729 97 q 500 -21 607 -21 q 322 46 393 -21 l 322 -117 l 117 -117 l 117 235 l 313 235 q 347 165 315 192 q 431 139 378 139 q 503 162 478 139 q 528 219 528 185 q 498 285 528 261 q 407 308 468 308 q 319 311 351 308 q 153 369 222 315 q 83 528 83 422 q 155 690 83 636 q 339 744 226 744 l 440 744 l 440 846 l -24 846 l -24 1028 l 1231 1028 l 1231 846 m 881 463 l 881 846 l 651 846 l 651 590 l 394 590 q 329 575 356 590 q 303 525 303 560 q 326 478 303 493 q 388 463 349 463 l 449 463 l 881 463 z "},"ञ":{"ha":1160,"x_min":-24,"x_max":1183,"o":"m 1183 846 l 1047 846 l 1047 0 l 829 0 l 829 325 l 717 325 q 608 142 693 208 q 397 75 524 75 q 172 149 260 75 q 74 346 83 222 l 279 346 q 323 282 290 306 q 400 258 356 258 q 495 301 461 258 q 529 408 529 343 q 495 514 529 471 q 400 557 461 557 q 322 533 354 557 q 279 469 290 510 l 74 469 q 171 667 82 593 q 397 742 260 742 q 602 679 518 742 q 714 508 686 617 l 829 508 l 829 846 l -24 846 l -24 1028 l 1183 1028 l 1183 846 z "},"ट":{"ha":897,"x_min":-24,"x_max":921,"o":"m 490 557 q 348 512 404 557 q 292 382 292 467 q 340 263 292 308 q 468 217 389 217 q 599 265 550 217 q 649 393 649 314 l 856 393 q 809 201 856 283 q 676 73 763 118 q 474 28 589 28 q 266 72 357 28 q 124 197 175 117 q 74 383 74 278 q 121 570 74 490 q 257 694 168 650 q 467 740 346 739 l 467 846 l -24 846 l -24 1028 l 921 1028 l 921 846 l 681 846 l 681 557 l 490 557 z "},"ठ":{"ha":932,"x_min":-24,"x_max":956,"o":"m 572 846 l 572 739 q 779 623 699 711 q 860 396 860 535 q 808 208 860 288 q 667 85 757 128 q 465 42 576 42 q 265 85 354 42 q 125 208 176 128 q 74 396 74 288 q 153 622 74 533 q 357 738 232 710 l 357 846 l -24 846 l -24 1028 l 956 1028 l 956 846 l 572 846 m 643 396 q 594 519 643 472 q 465 567 546 567 q 339 519 388 567 q 290 396 290 471 q 339 272 290 321 q 465 224 388 224 q 594 272 546 224 q 643 396 643 319 z "},"ड":{"ha":786,"x_min":-24,"x_max":808,"o":"m 400 590 q 335 575 361 590 q 310 526 310 560 q 333 478 310 493 q 392 463 356 463 l 454 463 q 658 404 575 463 q 740 219 740 346 q 658 39 740 106 q 428 -28 576 -28 q 174 43 272 -28 q 71 240 76 114 l 288 240 q 326 163 289 190 q 421 136 364 136 q 505 159 475 136 q 535 221 535 182 q 502 287 535 265 q 414 308 469 308 l 364 308 q 174 358 257 308 q 90 533 90 407 q 162 690 90 638 q 344 743 233 743 l 443 743 l 443 846 l -24 846 l -24 1028 l 808 1028 l 808 846 l 654 846 l 654 590 l 400 590 z "},"ढ":{"ha":910,"x_min":-24,"x_max":933,"o":"m 547 601 q 358 541 431 601 q 285 369 285 481 q 347 207 285 269 q 525 144 408 144 q 653 178 603 144 q 703 271 703 211 q 682 327 703 306 q 626 349 661 349 q 577 330 597 349 q 557 282 557 311 q 561 260 557 268 l 406 260 q 400 313 400 296 q 465 453 400 403 q 636 504 531 504 q 822 440 754 504 q 889 271 889 376 q 793 63 889 138 q 521 -12 697 -12 q 292 34 393 -12 q 132 169 190 81 q 74 378 74 257 q 126 580 74 496 q 269 708 178 664 q 476 751 360 751 l 503 751 l 503 846 l -24 846 l -24 1028 l 933 1028 l 933 846 l 708 846 l 708 601 l 547 601 z "},"ण":{"ha":1244,"x_min":-24,"x_max":1268,"o":"m 1268 846 l 1131 846 l 1131 0 l 913 0 l 913 846 l 726 846 l 726 507 q 647 285 726 369 q 419 201 568 201 q 192 288 271 201 q 113 507 113 374 l 113 846 l -24 846 l -24 1028 l 1268 1028 l 1268 846 m 513 846 l 326 846 l 326 488 q 352 413 326 442 q 421 385 378 385 q 489 413 465 385 q 513 488 513 440 l 513 846 z "},"त":{"ha":983,"x_min":-24,"x_max":1007,"o":"m 1007 846 l 871 846 l 871 0 l 653 0 l 653 496 l 479 496 q 344 454 394 496 q 294 336 294 413 q 338 217 294 260 q 468 174 382 174 l 494 174 l 494 1 l 435 1 q 174 86 275 1 q 74 340 74 171 q 184 597 74 511 q 468 683 294 683 l 653 683 l 653 846 l -24 846 l -24 1028 l 1007 1028 l 1007 846 z "},"थ":{"ha":1103,"x_min":76,"x_max":1126,"o":"m 1126 1028 l 1126 846 l 990 846 l 990 0 l 772 0 l 772 264 q 659 157 738 200 q 471 114 581 114 q 263 162 353 114 q 125 299 174 210 q 76 510 76 389 q 83 610 76 567 l 204 610 q 392 644 324 610 q 461 763 461 679 q 439 828 461 803 q 378 854 417 854 q 314 828 338 854 q 290 758 290 803 q 296 710 290 740 l 99 710 q 93 764 93 746 q 132 915 93 853 q 236 1009 171 978 q 381 1040 301 1040 q 530 1006 465 1040 q 631 906 594 971 q 667 757 667 842 q 570 536 667 618 q 292 454 474 454 l 289 454 q 350 341 297 386 q 504 296 403 296 q 640 328 579 296 q 737 426 701 361 q 772 582 772 490 l 772 1028 l 1126 1028 z "},"द":{"ha":850,"x_min":-24,"x_max":874,"o":"m 467 549 q 343 509 389 549 q 297 400 297 469 q 333 300 297 338 q 432 263 369 263 q 522 297 486 263 q 558 390 558 331 l 761 390 l 761 -46 l 547 -46 l 547 158 q 472 108 518 126 q 369 90 426 90 q 222 126 289 90 q 114 232 154 161 q 74 406 74 303 q 121 584 74 510 q 252 697 168 658 q 443 735 336 735 l 496 735 l 496 846 l -24 846 l -24 1028 l 874 1028 l 872 846 l 714 846 l 714 549 l 467 549 z "},"ध":{"ha":1017,"x_min":88,"x_max":1050,"o":"m 1050 846 l 918 846 l 918 0 l 700 0 l 700 231 q 583 140 656 172 q 413 108 510 108 q 188 174 278 108 q 99 360 99 240 q 147 494 99 443 q 260 560 196 546 l 260 564 q 137 644 186 586 q 88 796 88 703 q 160 974 88 907 q 347 1040 233 1040 q 531 976 465 1040 q 597 806 597 911 q 594 749 597 779 l 433 749 l 435 778 q 413 836 435 814 q 356 858 392 858 q 296 834 318 858 q 274 772 274 810 q 324 683 274 711 q 449 654 375 654 l 532 654 l 532 478 l 458 478 q 357 453 393 478 q 321 383 321 429 q 360 311 321 336 q 468 286 400 286 q 637 353 574 286 q 700 528 700 419 l 700 1028 l 1050 1028 l 1050 846 z "},"न":{"ha":1143,"x_min":-24,"x_max":1167,"o":"m 1167 846 l 1031 846 l 1031 0 l 811 0 l 811 507 l 636 507 q 672 364 672 442 q 633 218 672 279 q 527 126 593 157 q 381 96 461 96 q 226 131 297 96 q 111 234 154 167 q 68 392 68 301 q 113 555 68 488 q 232 656 157 622 q 399 689 307 689 l 811 689 l 811 846 l -24 846 l -24 1028 l 1167 1028 l 1167 846 m 383 281 q 467 312 435 281 q 499 393 499 343 q 467 475 499 443 q 383 507 435 507 q 299 475 332 507 q 265 393 265 443 q 298 312 265 343 q 383 281 331 281 z "},"प":{"ha":940,"x_min":-24,"x_max":964,"o":"m 964 846 l 828 846 l 828 0 l 610 0 l 610 303 q 404 222 536 222 q 175 322 256 222 q 94 581 94 421 l 94 846 l -24 846 l -24 1028 l 964 1028 l 964 846 m 610 846 l 313 846 l 313 581 q 349 453 313 500 q 461 406 386 406 q 571 451 532 406 q 610 568 610 497 l 610 846 z "},"फ":{"ha":1367,"x_min":-24,"x_max":1392,"o":"m 804 846 l 804 640 q 890 712 836 686 q 1015 738 944 738 q 1165 697 1101 738 q 1262 584 1228 656 q 1296 425 1296 513 q 1260 252 1296 325 q 1158 141 1224 179 q 1010 103 1093 103 q 907 117 954 103 l 907 285 q 951 279 925 279 q 1041 316 1007 279 q 1075 414 1075 353 q 1040 513 1075 474 q 946 551 1004 551 q 840 503 876 551 q 804 376 804 454 l 804 0 l 586 0 l 586 300 q 393 222 517 222 q 172 318 250 222 q 94 569 94 414 l 94 846 l -24 846 l -24 1028 l 1392 1028 l 1392 846 l 804 846 m 586 846 l 313 846 l 313 569 q 347 450 313 494 q 449 406 381 406 q 550 449 514 406 q 586 557 586 492 l 586 846 z "},"ब":{"ha":956,"x_min":-24,"x_max":979,"o":"m 979 1028 l 979 846 l 843 846 l 843 0 l 633 0 l 633 175 q 542 107 600 132 q 411 82 483 82 q 238 125 315 82 q 117 246 161 168 q 74 422 74 324 q 117 593 74 518 q 238 710 161 668 q 410 751 314 751 q 536 729 479 751 q 633 667 593 707 l 633 846 l -24 846 l -24 1028 l 979 1028 m 457 611 q 336 572 388 611 l 631 347 q 646 424 646 385 q 594 556 646 501 q 457 611 543 611 m 264 422 q 320 288 264 339 q 457 238 376 238 q 578 276 531 238 l 279 500 q 264 422 264 463 z "},"भ":{"ha":1185,"x_min":76,"x_max":1208,"o":"m 1208 1028 l 1208 846 l 1071 846 l 1071 0 l 853 0 l 853 467 l 681 467 l 681 401 q 604 168 681 251 q 382 85 528 85 q 222 119 292 85 q 115 218 153 154 q 76 367 76 282 q 165 573 76 501 q 390 644 253 644 l 478 644 l 478 750 q 459 826 478 799 q 401 854 440 854 q 347 830 367 854 q 326 765 326 806 q 331 721 326 744 l 113 721 q 107 774 107 751 q 181 966 107 892 q 393 1040 254 1040 q 613 951 546 1040 q 681 710 681 861 l 681 644 l 853 644 l 853 1028 l 1208 1028 m 478 467 l 397 467 q 311 440 343 467 q 279 367 279 414 q 307 295 279 321 q 378 269 335 269 q 452 302 426 269 q 478 390 478 335 l 478 467 z "},"म":{"ha":1171,"x_min":-24,"x_max":1194,"o":"m 1194 846 l 1058 846 l 1058 0 l 839 0 l 839 467 l 660 467 l 660 401 q 583 169 660 253 q 360 85 506 85 q 200 119 269 85 q 93 218 131 154 q 56 367 56 282 q 144 574 56 503 q 368 644 232 644 l 457 644 l 457 846 l -24 846 l -24 1028 l 1194 1028 l 1194 846 m 839 846 l 660 846 l 660 644 l 839 644 l 839 846 m 457 467 l 374 467 q 290 440 322 467 q 258 367 258 414 q 285 295 258 321 q 356 269 313 269 q 431 302 404 269 q 457 390 457 335 l 457 467 z "},"य":{"ha":1051,"x_min":-24,"x_max":1075,"o":"m 1075 846 l 939 846 l 939 0 l 719 0 l 719 217 q 608 141 675 168 q 453 114 540 114 q 175 219 274 114 q 76 506 76 325 q 82 589 76 551 l 96 589 q 256 638 210 589 q 301 783 301 688 l 301 846 l -24 846 l -24 1028 l 1075 1028 l 1075 846 m 719 846 l 517 846 l 517 743 q 463 561 517 631 q 293 478 410 492 q 350 346 296 396 q 500 296 404 296 q 660 358 600 296 q 719 518 719 421 l 719 846 z "},"र":{"ha":738,"x_min":-24,"x_max":761,"o":"m 303 417 l 303 278 q 324 202 303 231 q 388 174 344 174 q 449 201 426 174 q 471 272 471 229 l 471 311 l 681 311 l 681 279 q 604 67 681 146 q 392 -12 528 -12 q 226 27 294 -12 q 122 135 157 67 q 88 289 88 203 l 88 592 l 228 592 q 380 638 335 592 q 425 772 425 683 l 425 846 l -24 846 l -24 1028 l 761 1028 l 761 846 l 643 846 l 643 772 q 566 512 643 607 q 310 417 489 417 l 303 417 z "},"ल":{"ha":1269,"x_min":-24,"x_max":1293,"o":"m 1024 846 l 1024 699 q 1149 585 1103 663 q 1196 393 1196 507 q 1154 211 1196 290 q 1031 87 1113 132 q 836 42 950 42 q 789 43 808 42 l 789 233 l 826 231 q 935 274 894 231 q 975 390 975 317 q 942 496 975 456 q 850 536 910 536 q 756 490 786 536 q 725 372 725 444 l 725 339 l 544 339 l 544 372 q 514 490 544 443 q 422 536 483 536 q 328 497 361 536 q 294 390 294 457 q 335 274 294 317 q 443 231 375 231 l 481 233 l 481 43 q 433 42 461 42 q 238 87 319 42 q 115 211 157 132 q 74 393 74 290 q 117 578 74 503 q 231 690 160 653 q 390 728 303 728 q 542 684 483 728 q 632 569 601 640 l 636 569 q 810 719 690 692 l 810 846 l -24 846 l -24 1028 l 1293 1028 l 1293 846 l 1024 846 z "},"व":{"ha":926,"x_min":-24,"x_max":950,"o":"m 950 1028 l 950 846 l 814 846 l 814 0 l 601 0 l 601 186 q 510 112 565 138 q 385 86 456 86 q 219 129 289 86 q 111 249 149 172 q 74 421 74 325 q 111 587 74 514 q 219 701 149 660 q 385 743 290 743 q 510 718 454 743 q 601 646 565 693 l 601 846 l -24 846 l -24 1028 l 950 1028 m 444 260 q 560 306 518 260 q 601 414 601 351 l 601 415 q 560 524 601 479 q 444 568 518 568 q 331 526 375 568 q 288 415 288 483 q 331 303 288 346 q 444 260 375 260 z "},"श":{"ha":1189,"x_min":93,"x_max":1213,"o":"m 313 399 l 313 301 q 338 212 313 246 q 421 178 364 178 q 494 209 468 178 q 521 290 521 240 l 521 313 l 732 313 l 733 288 q 651 69 733 149 q 426 -10 568 -10 q 182 78 271 -10 q 93 315 93 165 l 93 582 l 286 582 q 458 619 390 582 q 526 743 526 657 q 501 822 526 792 q 429 851 475 851 q 358 822 383 851 q 332 742 332 792 q 333 694 332 710 l 115 694 q 113 717 114 704 q 111 749 111 731 q 150 900 111 833 q 261 1003 189 967 q 429 1040 333 1040 q 660 958 574 1040 q 747 729 747 876 q 641 483 747 567 q 368 399 535 399 l 313 399 m 1213 1028 l 1213 846 l 1076 846 l 1076 0 l 856 0 l 856 1028 l 1213 1028 z "},"ष":{"ha":960,"x_min":-24,"x_max":983,"o":"m 983 846 l 847 846 l 847 0 l 633 0 l 633 292 q 418 206 563 206 q 178 309 263 206 q 94 581 94 413 l 94 846 l -24 846 l -24 1028 l 983 1028 l 983 846 m 633 846 l 307 846 l 633 626 l 633 846 m 464 389 q 561 415 521 389 q 619 486 601 442 l 306 696 l 306 574 q 346 440 306 490 q 464 389 386 389 z "},"स":{"ha":1150,"x_min":-24,"x_max":1174,"o":"m 1174 846 l 1038 846 l 1038 0 l 819 0 l 819 417 l 303 417 l 303 281 q 326 203 303 233 q 393 174 349 174 q 458 201 435 174 q 481 272 481 229 l 481 290 l 690 290 q 692 260 692 278 q 613 61 692 135 q 397 -12 535 -12 q 228 27 299 -12 q 123 135 158 67 q 88 292 88 204 l 88 572 l 190 572 q 342 620 297 572 q 388 754 388 668 l 388 846 l -24 846 l -24 1028 l 1174 1028 l 1174 846 m 819 846 l 606 846 l 606 754 q 572 594 606 664 l 819 594 l 819 846 z "},"ह":{"ha":813,"x_min":-24,"x_max":836,"o":"m 417 594 q 355 578 379 594 q 331 528 331 563 q 368 468 331 488 q 429 472 397 472 q 658 401 576 472 q 753 214 739 331 l 544 214 q 504 274 536 249 q 424 300 472 300 q 332 263 368 300 q 296 163 296 225 q 331 61 296 99 q 424 24 367 24 q 502 48 469 24 q 544 107 535 72 l 753 107 q 652 -84 742 -12 q 424 -156 563 -156 q 242 -116 319 -156 q 124 -3 165 -76 q 82 167 82 69 q 115 310 82 247 q 207 411 147 372 q 114 571 114 468 q 174 701 114 653 q 339 749 235 749 l 450 749 l 450 846 l -24 846 l -24 1028 l 836 1028 l 836 846 l 658 846 l 658 594 l 417 594 z "},"ळ":{"ha":1335,"x_min":-24,"x_max":1358,"o":"m 1075 846 l 1075 693 q 1210 580 1160 657 q 1261 396 1261 503 q 1219 226 1261 299 q 1103 113 1176 153 q 943 74 1031 74 q 778 116 850 74 q 671 235 706 158 l 664 235 q 557 116 629 158 q 393 74 485 74 q 231 113 304 74 q 116 226 158 153 q 74 396 74 299 q 116 567 74 493 q 231 680 158 640 q 392 719 304 719 q 665 561 575 719 l 669 561 q 863 711 738 682 l 863 846 l -24 846 l -24 1028 l 1358 1028 l 1358 846 l 1075 846 m 425 260 q 523 297 485 260 q 561 396 561 335 q 523 496 561 457 q 425 535 485 535 q 325 496 364 535 q 286 394 286 457 q 325 297 286 333 q 425 260 364 260 m 910 260 q 1010 297 971 260 q 1049 394 1049 333 q 1010 496 1049 457 q 911 535 972 535 q 812 496 850 535 q 774 396 774 457 q 811 297 774 335 q 910 260 849 260 z "},"क़":{"ha":1340,"x_min":-24,"x_max":1364,"o":"m 786 846 l 786 640 q 867 712 817 686 q 986 738 918 738 q 1136 695 1072 738 q 1233 581 1200 653 q 1267 419 1267 508 q 1230 249 1267 321 q 1128 140 1193 178 q 981 103 1064 103 q 886 114 931 103 l 886 285 q 921 281 901 281 q 1011 316 976 281 q 1046 414 1046 351 q 1010 513 1046 474 q 917 551 975 551 q 819 508 853 551 q 786 400 786 465 l 786 0 l 576 0 l 576 193 q 489 117 544 144 q 360 89 433 89 q 208 130 274 89 q 108 245 143 171 q 74 414 74 319 q 153 649 74 560 q 368 738 232 738 q 493 712 440 738 q 576 640 546 686 l 576 846 l -24 846 l -24 1028 l 1364 1028 l 1364 846 l 786 846 m 435 272 q 538 315 500 272 q 576 414 576 357 q 539 512 576 471 q 436 553 501 553 q 335 514 375 553 q 294 413 294 475 q 333 310 294 349 q 435 272 372 272 m 457 -119 q 420 -208 457 -172 q 329 -243 383 -243 q 240 -207 276 -243 q 203 -119 203 -171 q 240 -28 203 -65 q 329 10 276 10 q 420 -28 383 10 q 457 -119 457 -65 z "},"ख़":{"ha":1333,"x_min":-24,"x_max":1357,"o":"m 1357 1028 l 1357 846 l 1221 846 l 1221 0 l 1004 0 l 1004 219 q 840 154 946 154 q 797 157 825 154 q 667 35 747 81 q 482 -10 588 -10 q 195 94 300 -10 q 90 383 90 197 l 90 560 l 126 560 q 268 603 222 560 q 314 740 314 646 l 314 846 l -24 846 l -24 1028 l 1357 1028 m 488 179 q 638 247 590 179 q 574 443 574 329 q 608 588 574 524 q 703 690 642 653 q 840 726 764 726 q 1004 660 947 726 l 1004 846 l 532 846 l 532 710 q 472 498 532 575 q 307 408 411 421 l 307 357 q 354 228 307 278 q 488 179 401 179 m 889 321 q 974 356 943 321 q 1004 442 1004 390 q 975 526 1004 490 q 889 561 946 561 q 803 529 838 561 q 768 443 768 497 q 802 353 768 385 q 889 321 836 321 m 578 -214 q 541 -302 578 -267 q 450 -337 504 -337 q 360 -301 397 -337 q 324 -214 324 -265 q 360 -122 324 -160 q 450 -85 397 -85 q 541 -122 504 -85 q 578 -214 578 -160 z "},"ग़":{"ha":1131,"x_min":-24,"x_max":1156,"o":"m 1156 1028 l 1156 846 l 1019 846 l 1019 0 l 801 0 l 801 846 l 626 846 l 626 532 q 556 317 626 399 q 342 235 485 235 q 126 309 203 235 q 50 521 50 383 q 51 565 50 551 l 263 565 l 263 522 q 336 421 263 421 q 407 524 407 421 l 407 846 l -24 846 l -24 1028 l 1156 1028 m 471 25 q 434 -63 471 -28 q 343 -99 397 -99 q 253 -62 290 -99 q 217 25 217 -26 q 253 117 217 79 q 343 154 290 154 q 434 117 397 154 q 471 25 471 79 z "},"ज़":{"ha":1194,"x_min":-24,"x_max":1218,"o":"m 1218 846 l 1082 846 l 1082 0 l 864 0 l 864 492 l 704 492 l 704 450 q 666 289 704 360 q 557 178 628 218 q 390 139 486 139 q 155 224 238 139 q 72 450 72 310 l 72 678 l 292 678 l 292 456 q 317 363 292 396 q 392 329 343 329 q 465 363 439 329 q 490 456 490 396 l 490 678 l 864 678 l 864 846 l -24 846 l -24 1028 l 1218 1028 l 1218 846 m 519 -69 q 483 -158 519 -122 q 392 -193 446 -193 q 302 -157 339 -193 q 265 -69 265 -121 q 302 22 265 -15 q 392 60 339 60 q 483 22 446 60 q 519 -69 519 -15 z "},"ड़":{"ha":786,"x_min":-24,"x_max":808,"o":"m 400 590 q 335 575 361 590 q 310 526 310 560 q 333 478 310 493 q 392 463 356 463 l 454 463 q 658 404 575 463 q 740 219 740 346 q 658 39 740 106 q 428 -28 576 -28 q 174 43 272 -28 q 71 240 76 114 l 288 240 q 326 163 289 190 q 421 136 364 136 q 505 159 475 136 q 535 221 535 182 q 502 287 535 265 q 414 308 469 308 l 364 308 q 174 358 257 308 q 90 533 90 407 q 162 690 90 638 q 344 743 233 743 l 443 743 l 443 846 l -24 846 l -24 1028 l 808 1028 l 808 846 l 654 846 l 654 590 l 400 590 m 553 -236 q 516 -324 553 -289 q 425 -360 479 -360 q 335 -324 372 -360 q 299 -236 299 -287 q 335 -144 299 -182 q 425 -107 372 -107 q 516 -144 479 -107 q 553 -236 553 -182 z "},"ढ़":{"ha":910,"x_min":-24,"x_max":933,"o":"m 547 601 q 358 541 431 601 q 285 369 285 481 q 347 207 285 269 q 525 144 408 144 q 653 178 603 144 q 703 271 703 211 q 682 327 703 306 q 626 349 661 349 q 577 330 597 349 q 557 282 557 311 q 561 260 557 268 l 406 260 q 400 313 400 296 q 465 453 400 403 q 636 504 531 504 q 822 440 754 504 q 889 271 889 376 q 793 63 889 138 q 521 -12 697 -12 q 292 34 393 -12 q 132 169 190 81 q 74 378 74 257 q 126 580 74 496 q 269 708 178 664 q 476 751 360 751 l 503 751 l 503 846 l -24 846 l -24 1028 l 933 1028 l 933 846 l 708 846 l 708 601 l 547 601 m 621 -218 q 584 -306 621 -271 q 493 -342 547 -342 q 403 -306 440 -342 q 367 -218 367 -269 q 403 -126 367 -164 q 493 -89 440 -89 q 584 -126 547 -89 q 621 -218 621 -164 z "},"फ़":{"ha":1367,"x_min":-24,"x_max":1392,"o":"m 804 846 l 804 640 q 890 712 836 686 q 1015 738 944 738 q 1165 697 1101 738 q 1262 584 1228 656 q 1296 425 1296 513 q 1260 252 1296 325 q 1158 141 1224 179 q 1010 103 1093 103 q 907 117 954 103 l 907 285 q 951 279 925 279 q 1041 316 1007 279 q 1075 414 1075 353 q 1040 513 1075 474 q 946 551 1004 551 q 840 503 876 551 q 804 376 804 454 l 804 0 l 586 0 l 586 300 q 393 222 517 222 q 172 318 250 222 q 94 569 94 414 l 94 846 l -24 846 l -24 1028 l 1392 1028 l 1392 846 l 804 846 m 586 846 l 313 846 l 313 569 q 347 450 313 494 q 449 406 381 406 q 550 449 514 406 q 586 557 586 492 l 586 846 m 443 21 q 406 -67 443 -32 q 315 -103 369 -103 q 226 -67 263 -103 q 189 21 189 -31 q 226 113 189 75 q 315 150 263 150 q 406 113 369 150 q 443 21 443 75 z "},"ऱ":{"ha":738,"x_min":-24,"x_max":761,"o":"m 303 417 l 303 278 q 324 202 303 231 q 388 174 344 174 q 449 201 426 174 q 471 272 471 229 l 471 311 l 681 311 l 681 279 q 604 67 681 146 q 392 -12 528 -12 q 226 27 294 -12 q 122 135 157 67 q 88 289 88 203 l 88 592 l 228 592 q 380 638 335 592 q 425 772 425 683 l 425 846 l -24 846 l -24 1028 l 761 1028 l 761 846 l 643 846 l 643 772 q 566 512 643 607 q 310 417 489 417 l 303 417 m 278 -171 q 241 -259 278 -224 q 150 -294 204 -294 q 60 -258 97 -294 q 24 -171 24 -222 q 60 -79 24 -117 q 150 -42 97 -42 q 241 -79 204 -42 q 278 -171 278 -117 z "},"ं":{"ha":0,"x_min":-350,"x_max":-96,"o":"m -96 1256 q -133 1166 -96 1203 q -224 1129 -171 1129 q -313 1166 -276 1129 q -350 1256 -350 1203 q -313 1345 -350 1308 q -224 1382 -276 1382 q -133 1345 -171 1382 q -96 1256 -96 1308 z "},"ँ":{"ha":0,"x_min":-565,"x_max":100,"o":"m -149 1454 q -173 1394 -149 1418 q -235 1369 -197 1369 q -294 1394 -269 1369 q -318 1454 -318 1419 q -294 1514 -318 1489 q -235 1539 -269 1539 q -173 1514 -197 1539 q -149 1454 -149 1489 m 100 1419 q 14 1204 100 1282 q -233 1126 -72 1126 q -479 1204 -393 1126 q -565 1419 -565 1282 l -392 1419 q -349 1322 -392 1361 q -233 1282 -307 1282 q -117 1322 -160 1282 q -75 1419 -75 1361 l 100 1419 z "},"ः":{"ha":389,"x_min":67,"x_max":322,"o":"m 322 650 q 285 560 322 597 q 194 524 247 524 q 104 560 142 524 q 67 650 67 597 q 104 740 67 703 q 194 776 142 776 q 285 740 247 776 q 322 650 322 703 m 322 247 q 285 158 322 194 q 194 121 247 121 q 104 158 142 121 q 67 247 67 194 q 104 337 67 300 q 194 374 142 374 q 285 337 247 374 q 322 247 322 300 z "},"ऽ":{"ha":829,"x_min":79,"x_max":717,"o":"m 79 64 l 79 247 l 406 247 q 462 262 443 247 q 481 301 481 276 q 454 358 481 331 q 369 431 428 386 q 266 519 307 481 q 196 612 225 557 q 167 735 167 667 q 231 883 167 832 q 401 933 296 933 l 717 933 l 717 750 l 456 750 q 389 701 389 750 q 415 645 389 672 q 499 572 440 618 q 602 486 561 525 q 673 392 643 447 q 703 268 703 336 q 636 119 703 175 q 463 64 569 64 l 79 64 z "},"्":{"ha":0,"x_min":-326,"x_max":76,"o":"m -147 -386 l -326 -76 l -110 -76 l 76 -386 l -147 -386 z "},"़":{"ha":0,"x_min":-519,"x_max":-265,"o":"m -265 -240 q -302 -328 -265 -293 q -393 -364 -339 -364 q -483 -328 -446 -364 q -519 -240 -519 -292 q -483 -149 -519 -186 q -393 -111 -446 -111 q -302 -149 -339 -111 q -265 -240 -265 -186 z "},"०":{"ha":906,"x_min":63,"x_max":843,"o":"m 63 521 q 155 897 63 760 q 453 1035 247 1035 q 751 897 658 1035 q 843 521 843 760 q 751 142 843 279 q 453 4 658 4 q 155 142 247 4 q 63 521 63 279 m 610 521 q 579 737 610 661 q 453 813 549 813 q 326 737 357 813 q 296 521 296 661 q 307 365 296 426 q 352 265 318 303 q 453 226 386 226 q 553 265 519 226 q 599 365 588 303 q 610 521 610 426 z "},"१":{"ha":522,"x_min":38,"x_max":422,"o":"m 38 793 l 38 1014 l 422 1014 l 422 0 l 175 0 l 175 793 l 38 793 z "},"२":{"ha":793,"x_min":51,"x_max":751,"o":"m 54 190 q 97 225 101 228 q 312 410 233 338 q 444 561 390 482 q 499 715 499 640 q 472 804 499 772 q 393 836 446 836 q 310 797 340 836 q 281 685 281 757 l 51 685 q 102 882 54 803 q 228 999 150 961 q 403 1036 307 1036 q 652 951 568 1036 q 736 731 736 867 q 635 455 736 582 q 376 207 533 328 l 751 207 l 751 14 l 54 14 l 54 190 z "},"३":{"ha":840,"x_min":58,"x_max":764,"o":"m 71 728 q 168 957 76 876 q 417 1038 260 1038 q 595 1001 521 1038 q 708 903 669 965 q 746 763 746 840 q 700 613 746 671 q 593 535 654 556 l 593 529 q 718 442 672 503 q 764 285 764 381 q 724 133 764 199 q 609 29 685 67 q 429 -8 533 -8 q 163 74 263 -8 q 58 321 64 156 l 289 321 q 324 224 290 260 q 421 189 357 189 q 505 220 475 189 q 535 303 535 251 q 492 399 535 369 q 357 429 450 429 l 313 429 l 313 622 l 357 622 q 472 647 428 622 q 515 733 515 671 q 488 811 515 783 q 411 839 460 839 q 333 807 358 839 q 303 728 307 775 l 71 728 z "},"४":{"ha":940,"x_min":68,"x_max":886,"o":"m 68 181 l 68 372 l 507 1000 l 772 1000 l 772 386 l 886 386 l 886 181 l 772 181 l 772 0 l 535 0 l 535 181 l 68 181 m 551 739 l 318 386 l 551 386 l 551 739 z "},"५":{"ha":903,"x_min":117,"x_max":835,"o":"m 776 807 l 343 807 l 343 615 q 421 665 371 646 q 529 685 471 685 q 702 638 633 685 q 803 515 771 590 q 835 353 835 440 q 743 95 835 190 q 485 0 651 0 q 292 38 374 0 q 165 144 210 76 q 117 301 121 213 l 349 301 q 389 230 357 258 q 476 201 421 201 q 574 243 542 201 q 606 354 606 285 q 572 458 606 422 q 475 494 539 494 q 397 472 428 494 q 357 411 367 449 l 128 411 l 128 1015 l 776 1015 l 776 807 z "},"६":{"ha":885,"x_min":86,"x_max":813,"o":"m 564 740 q 525 817 553 792 q 446 843 497 843 q 332 774 367 843 q 296 557 297 706 q 384 633 326 606 q 511 661 442 661 q 730 575 647 661 q 813 335 813 489 q 772 157 813 233 q 652 38 731 81 q 467 -6 574 -6 q 169 128 253 -6 q 86 514 86 263 q 174 906 86 778 q 457 1035 263 1035 q 633 994 561 1035 q 741 886 704 953 q 785 740 778 819 l 564 740 m 454 474 q 355 438 394 474 q 315 338 315 403 q 352 233 315 271 q 457 196 389 196 q 553 233 518 196 q 589 333 589 269 q 554 436 589 399 q 454 474 519 474 z "},"७":{"ha":743,"x_min":39,"x_max":710,"o":"m 710 836 l 361 0 l 118 0 l 471 810 l 39 810 l 39 1013 l 710 1013 l 710 836 z "},"८":{"ha":900,"x_min":75,"x_max":825,"o":"m 229 544 q 99 763 99 614 q 138 899 99 838 q 256 998 176 961 q 450 1035 335 1035 q 644 998 565 1035 q 761 899 722 961 q 800 763 800 838 q 765 632 800 688 q 669 544 729 576 q 785 445 744 508 q 825 297 825 382 q 775 127 825 199 q 640 18 725 56 q 450 -19 554 -19 q 260 18 346 -19 q 125 127 175 56 q 75 297 75 199 q 115 447 75 383 q 229 544 156 510 m 569 726 q 537 815 569 783 q 450 846 504 846 q 363 814 396 846 q 331 725 331 782 q 364 640 331 671 q 450 608 397 608 q 536 640 503 608 q 569 726 569 672 m 450 442 q 344 406 385 442 q 304 308 304 371 q 344 213 304 250 q 450 175 383 175 q 555 213 517 175 q 593 308 593 250 q 553 406 593 369 q 450 442 514 442 z "},"९":{"ha":854,"x_min":72,"x_max":790,"o":"m 318 297 q 446 188 339 188 q 550 253 519 188 q 581 465 581 318 q 497 399 550 422 q 379 375 444 375 q 221 412 290 375 q 112 522 151 449 q 72 699 72 594 q 115 878 72 801 q 235 996 157 954 q 421 1038 314 1038 q 708 910 626 1038 q 790 533 790 782 q 758 235 790 353 q 648 57 725 118 q 438 -4 571 -4 q 258 38 332 -4 q 144 147 183 79 q 99 297 104 215 l 318 297 m 433 563 q 526 598 492 563 q 561 694 561 633 q 525 797 561 761 q 428 833 489 833 q 331 797 367 833 q 296 696 296 760 q 331 599 296 636 q 433 563 367 563 z "},"ॐ":{"ha":1489,"x_min":94,"x_max":1390,"o":"m 779 1251 q 720 1276 744 1251 q 696 1335 696 1300 q 720 1396 696 1371 q 779 1421 744 1421 q 840 1396 815 1421 q 864 1335 864 1371 q 840 1275 864 1299 q 779 1251 815 1251 m 781 1008 q 534 1086 619 1008 q 449 1301 449 1164 l 621 1301 q 663 1203 621 1243 q 781 1164 706 1164 q 897 1203 854 1164 q 939 1301 939 1243 l 1114 1301 q 1028 1086 1114 1164 q 781 1008 942 1008 m 1086 947 q 1318 860 1246 947 q 1390 604 1390 774 l 1390 436 q 1294 128 1390 233 q 1015 22 1199 22 q 874 36 947 22 l 874 217 q 975 207 939 207 q 1133 267 1089 207 q 1178 443 1178 326 l 1178 633 q 1157 731 1178 697 q 1086 764 1136 764 q 996 644 996 764 q 969 471 996 536 q 881 375 943 406 q 710 342 818 344 q 714 288 714 315 q 633 88 714 163 q 419 14 551 14 q 247 51 321 14 q 134 153 174 88 q 94 307 94 219 l 299 307 q 328 232 299 263 q 407 201 358 201 q 484 231 456 201 q 513 310 513 261 q 480 391 513 358 q 383 424 447 424 l 321 424 l 321 607 l 383 607 q 470 635 438 607 q 503 708 503 664 q 475 781 503 754 q 404 808 447 808 q 333 783 361 808 q 306 715 306 757 l 103 715 q 141 861 103 797 q 249 960 179 925 q 408 994 318 994 q 621 924 542 994 q 700 738 700 854 q 662 603 700 660 q 553 525 624 547 l 553 519 l 578 511 l 657 511 q 760 540 729 511 q 792 647 792 568 q 860 871 792 794 q 1086 947 929 947 z "},"॰":{"ha":661,"x_min":92,"x_max":569,"o":"m 333 700 q 503 635 438 700 q 569 467 569 569 q 503 299 569 364 q 333 235 438 235 q 208 265 264 235 q 122 347 153 294 q 92 467 92 400 q 159 635 92 569 q 333 700 226 700 m 333 571 q 254 542 285 571 q 224 467 224 513 q 254 392 224 421 q 333 364 285 364 q 407 392 378 364 q 436 467 436 421 q 407 541 436 511 q 333 571 378 571 z "},"।":{"ha":478,"x_min":204,"x_max":421,"o":"m 421 1028 l 421 0 l 204 0 l 204 1028 l 421 1028 z "},"॥":{"ha":857,"x_min":204,"x_max":799,"o":"m 421 1028 l 421 0 l 204 0 l 204 1028 l 421 1028 m 799 1028 l 799 0 l 582 0 l 582 1028 l 799 1028 z "},"₨":{"ha":1653,"x_min":86,"x_max":1579,"o":"m 843 669 q 786 493 843 569 q 618 388 729 417 l 851 0 l 582 0 l 371 371 l 324 371 l 324 0 l 86 0 l 86 975 l 485 975 q 681 935 600 975 q 803 825 763 894 q 843 669 843 756 m 1121 543 q 1160 492 1121 508 q 1283 458 1199 475 q 1435 418 1376 439 q 1536 351 1493 397 q 1579 228 1579 306 q 1541 104 1579 158 q 1432 19 1503 50 q 1265 -11 1361 -11 q 1018 57 1113 -11 q 907 253 924 125 l 1143 253 q 1181 190 1147 211 q 1264 168 1214 168 q 1335 185 1311 168 q 1360 232 1360 203 q 1320 285 1360 268 q 1194 319 1281 303 q 1046 356 1104 336 q 945 422 988 376 q 903 546 903 467 q 940 666 903 611 q 1051 753 978 721 q 1225 786 1125 786 q 1465 715 1375 786 q 1571 522 1554 643 l 1335 522 q 1297 585 1329 563 q 1217 607 1265 607 q 1147 590 1172 607 q 1121 543 1121 572 m 324 538 l 471 538 q 569 569 536 538 q 601 658 601 600 q 569 748 601 715 q 471 781 536 781 l 324 781 l 324 538 z "},"₹":{"ha":831,"x_min":53,"x_max":788,"o":"m 669 815 l 669 732 l 788 732 l 788 588 l 661 588 q 553 399 639 464 q 301 335 467 335 l 301 279 q 322 195 301 225 q 394 165 343 165 q 464 194 443 165 q 485 282 485 224 l 704 282 q 622 64 699 142 q 400 -14 544 -14 q 162 67 244 -14 q 79 311 79 149 l 79 490 q 292 497 224 490 q 395 523 361 503 q 440 588 429 543 l 53 588 l 53 732 l 447 732 l 447 815 l 53 815 l 53 975 l 788 975 l 788 815 l 669 815 z "},"‌":{"ha":0,"x_min":-32,"x_max":33,"o":"m -32 -319 l -32 1126 l 33 1126 l 33 -319 l -32 -319 z "},"‍":{"ha":0,"x_min":-178,"x_max":178,"o":"m 132 778 l 32 882 l 32 -319 l -33 -319 l -33 882 l -129 781 l -175 826 l -46 956 l -178 1088 l -132 1133 l 0 1001 l 133 1133 l 178 1089 l 44 956 l 178 824 l 132 778 z "},"◌":{"ha":904,"x_min":69,"x_max":835,"o":"m 478 692 q 461 649 478 665 q 418 633 444 633 q 375 649 392 633 q 358 692 358 665 q 375 734 358 718 q 418 750 392 750 q 461 734 444 750 q 478 692 478 718 m 646 671 q 629 628 646 644 q 586 613 613 613 q 543 628 560 613 q 526 671 526 644 q 543 713 526 697 q 586 729 560 729 q 629 713 613 729 q 646 671 646 697 m 315 633 q 299 591 315 607 q 256 575 282 575 q 213 591 229 575 q 196 633 196 607 q 213 676 196 660 q 256 692 229 692 q 299 676 282 692 q 315 633 315 660 m 774 568 q 757 526 774 542 q 714 510 740 510 q 671 526 688 510 q 654 568 654 542 q 671 610 654 594 q 714 626 688 626 q 757 610 740 626 q 774 568 774 594 m 210 496 q 193 453 210 469 q 150 438 176 438 q 107 453 124 438 q 90 496 90 469 q 107 538 90 522 q 150 554 124 554 q 193 538 176 554 q 210 496 210 522 m 835 410 q 818 367 835 383 q 775 351 801 351 q 732 367 749 351 q 715 410 715 383 q 732 452 715 436 q 775 468 749 468 q 818 452 801 468 q 835 410 835 436 m 189 328 q 172 285 189 301 q 129 269 156 269 q 86 285 103 269 q 69 328 69 301 q 86 370 69 354 q 129 386 103 386 q 172 370 156 386 q 189 328 189 354 m 821 243 q 804 201 821 217 q 761 185 788 185 q 718 201 735 185 q 701 243 701 217 q 718 285 701 269 q 761 301 735 301 q 804 285 788 301 q 821 243 821 269 m 251 171 q 235 128 251 144 q 192 113 218 113 q 149 128 165 113 q 132 171 132 144 q 149 213 132 197 q 192 229 165 229 q 235 213 218 229 q 251 171 251 197 m 719 110 q 703 67 719 83 q 660 51 686 51 q 617 67 633 51 q 600 110 600 83 q 617 152 600 136 q 660 168 633 168 q 703 152 686 168 q 719 110 719 136 m 388 65 q 371 23 388 39 q 328 7 354 7 q 285 23 301 7 q 268 65 268 39 q 285 108 268 92 q 328 124 301 124 q 371 108 354 124 q 388 65 388 92 m 560 46 q 543 3 560 19 q 500 -12 526 -12 q 457 3 474 -12 q 440 46 440 19 q 457 88 440 72 q 500 104 474 104 q 543 88 526 104 q 560 46 560 72 z "},"!":{"ha":544,"x_min":132,"x_max":414,"o":"m 399 1010 l 371 344 l 169 344 l 142 1010 l 399 1010 m 274 -11 q 172 26 211 -11 q 132 117 132 63 q 172 210 132 172 q 274 247 211 247 q 374 210 335 247 q 414 117 414 172 q 374 26 414 63 q 274 -11 335 -11 z "},"\"":{"ha":571,"x_min":56,"x_max":515,"o":"m 251 1111 l 233 804 l 74 804 l 56 1111 l 251 1111 m 515 1111 l 497 804 l 338 804 l 319 1111 l 515 1111 z "},"#":{"ha":1256,"x_min":28,"x_max":1210,"o":"m 993 608 l 954 426 l 1121 426 l 1121 213 l 908 213 l 863 0 l 640 0 l 686 213 l 456 213 l 410 0 l 188 0 l 233 213 l 28 213 l 28 426 l 279 426 l 318 608 l 117 608 l 117 822 l 363 822 l 407 1028 l 629 1028 l 585 822 l 815 822 l 860 1028 l 1082 1028 l 1038 822 l 1210 822 l 1210 608 l 993 608 m 771 608 l 540 608 l 501 426 l 732 426 l 771 608 z "},"$":{"ha":914,"x_min":61,"x_max":824,"o":"m 824 283 q 784 142 824 207 q 667 37 744 78 q 485 -8 590 -4 l 485 -121 l 396 -121 l 396 -7 q 158 81 249 6 q 63 288 68 157 l 315 288 q 396 181 324 204 l 396 400 q 223 454 288 428 q 110 539 158 481 q 61 699 61 597 q 155 901 61 825 q 396 988 249 978 l 396 1100 l 485 1100 l 485 988 q 715 903 631 976 q 810 699 800 829 l 556 699 q 485 796 547 774 l 485 581 q 663 524 600 549 q 774 441 725 499 q 824 283 824 383 m 313 710 q 334 651 313 675 q 396 610 356 628 l 396 803 q 335 773 357 796 q 313 710 313 750 m 485 176 q 551 210 526 183 q 575 275 575 236 q 552 334 575 311 q 485 374 529 357 l 485 176 z "},"%":{"ha":1208,"x_min":43,"x_max":1165,"o":"m 43 758 q 108 932 43 871 q 275 993 172 993 q 442 932 378 993 q 506 758 506 871 q 442 585 506 646 q 275 524 378 524 q 108 585 172 524 q 43 758 43 646 m 986 978 l 451 0 l 222 0 l 757 978 l 986 978 m 274 854 q 207 758 207 854 q 274 664 207 664 q 324 688 306 664 q 342 758 342 711 q 274 854 342 854 m 704 219 q 768 393 704 332 q 935 454 832 454 q 1101 393 1038 454 q 1165 219 1165 332 q 1101 46 1165 107 q 935 -15 1038 -15 q 768 46 832 -15 q 704 219 704 107 m 933 315 q 884 292 901 315 q 867 219 867 268 q 933 125 867 125 q 983 149 965 125 q 1001 219 1001 172 q 983 291 1001 267 q 933 315 965 315 z "},"&":{"ha":1108,"x_min":50,"x_max":1108,"o":"m 832 0 l 742 88 q 419 -15 607 -15 q 224 22 307 -15 q 95 126 140 58 q 50 283 50 193 q 99 449 50 375 q 247 571 149 524 q 196 656 211 615 q 181 746 181 697 q 217 872 181 815 q 322 962 253 929 q 485 994 390 994 q 647 960 581 994 q 747 867 714 925 q 778 739 781 808 l 554 739 q 535 797 556 776 q 482 817 515 817 q 426 797 449 817 q 404 747 404 778 q 423 686 404 718 q 482 613 442 654 l 719 381 q 727 397 722 388 q 738 419 732 407 l 789 507 l 1026 507 l 960 386 q 874 231 922 304 l 1108 0 l 832 0 m 431 176 q 596 229 524 176 l 379 439 q 279 300 279 388 q 320 212 279 247 q 431 176 361 176 z "},"'":{"ha":307,"x_min":56,"x_max":251,"o":"m 251 1111 l 233 804 l 74 804 l 56 1111 l 251 1111 z "},"(":{"ha":663,"x_min":121,"x_max":653,"o":"m 406 -290 q 196 43 271 -161 q 121 483 121 247 q 199 930 121 722 q 419 1268 276 1138 l 653 1268 l 653 1246 q 428 899 507 1101 q 349 483 349 697 q 425 74 349 271 q 640 -268 501 -124 l 640 -290 l 406 -290 z "},")":{"ha":663,"x_min":10,"x_max":542,"o":"m 22 -290 l 22 -268 q 238 74 161 -124 q 314 483 314 271 q 235 899 314 697 q 10 1246 156 1101 l 10 1268 l 243 1268 q 464 930 386 1138 q 542 483 542 722 q 467 43 542 247 q 257 -290 392 -161 l 22 -290 z "},"*":{"ha":742,"x_min":103,"x_max":643,"o":"m 565 965 l 643 824 l 472 764 l 643 706 l 560 558 l 421 681 l 456 500 l 293 500 l 326 681 l 189 557 l 103 707 l 274 767 l 104 822 l 183 965 l 328 844 l 292 1028 l 457 1028 l 421 844 l 565 965 z "},"+":{"ha":872,"x_min":82,"x_max":790,"o":"m 790 379 l 549 379 l 549 132 l 324 132 l 324 379 l 82 379 l 82 592 l 324 592 l 324 840 l 549 840 l 549 592 l 790 592 l 790 379 z "},",":{"ha":399,"x_min":36,"x_max":342,"o":"m 342 219 l 188 -179 l 36 -179 l 117 219 l 342 219 z "},"-":{"ha":806,"x_min":72,"x_max":683,"o":"m 683 586 l 683 389 l 72 389 l 72 586 l 683 586 z "},".":{"ha":392,"x_min":56,"x_max":338,"o":"m 197 -11 q 95 26 135 -11 q 56 117 56 63 q 95 210 56 172 q 197 247 135 247 q 298 210 258 247 q 338 117 338 172 q 298 26 338 63 q 197 -11 258 -11 z "},"/":{"ha":629,"x_min":14,"x_max":615,"o":"m 615 1319 l 243 -260 l 14 -260 l 386 1319 l 615 1319 z "},":":{"ha":394,"x_min":56,"x_max":338,"o":"m 197 -11 q 95 26 135 -11 q 56 117 56 63 q 95 210 56 172 q 197 247 135 247 q 298 210 258 247 q 338 117 338 172 q 298 26 338 63 q 197 -11 258 -11 m 197 554 q 95 591 135 554 q 56 682 56 628 q 95 775 56 738 q 197 813 135 813 q 298 775 258 813 q 338 682 338 738 q 298 591 338 628 q 197 554 258 554 z "},";":{"ha":482,"x_min":69,"x_max":378,"o":"m 238 543 q 135 580 175 543 q 96 671 96 617 q 135 764 96 726 q 238 801 175 801 q 338 764 299 801 q 378 671 378 726 q 338 580 378 617 q 238 543 299 543 m 375 219 l 221 -179 l 69 -179 l 150 219 l 375 219 z "},"<":{"ha":765,"x_min":79,"x_max":660,"o":"m 361 179 l 79 486 l 361 793 l 660 793 l 376 486 l 660 179 l 361 179 z "},"=":{"ha":967,"x_min":94,"x_max":872,"o":"m 872 768 l 872 558 l 94 558 l 94 768 l 872 768 m 872 414 l 872 204 l 94 204 l 94 414 l 872 414 z "},">":{"ha":751,"x_min":88,"x_max":668,"o":"m 88 793 l 386 793 l 668 486 l 386 179 l 88 179 l 371 486 l 88 793 z "},"?":{"ha":747,"x_min":36,"x_max":699,"o":"m 371 1029 q 609 951 519 1029 q 699 732 699 874 q 613 528 699 601 q 388 454 528 456 l 381 350 l 172 350 l 165 608 l 249 608 q 412 635 356 608 q 468 731 468 661 q 442 807 468 779 q 368 835 415 835 q 290 806 318 835 q 263 729 263 778 l 39 729 q 74 882 36 814 q 188 990 113 950 q 371 1029 264 1029 m 279 -11 q 177 26 217 -11 q 138 117 138 63 q 177 210 138 172 q 279 247 217 247 q 380 210 340 247 q 419 117 419 172 q 380 26 419 63 q 279 -11 340 -11 z "},"@":{"ha":1500,"x_min":101,"x_max":1399,"o":"m 858 928 q 1144 866 1022 928 q 1333 692 1267 804 q 1399 435 1399 581 q 1358 215 1399 317 q 1237 53 1317 114 q 1047 -7 1157 -7 q 926 22 974 -7 q 861 104 878 51 q 761 20 822 50 q 628 -10 700 -10 q 466 52 525 -10 q 407 221 407 114 q 449 412 407 322 q 564 556 490 501 q 729 610 638 610 q 888 526 846 610 l 900 600 l 1092 600 l 1031 251 q 1026 207 1026 226 q 1081 146 1026 146 q 1183 231 1147 146 q 1218 428 1218 317 q 1117 678 1218 588 q 835 768 1017 768 q 552 693 679 768 q 353 488 425 618 q 281 203 281 358 q 378 -58 281 35 q 653 -151 476 -151 q 899 -101 790 -151 l 936 -253 q 631 -312 800 -312 q 352 -251 472 -312 q 167 -78 232 -190 q 101 185 101 35 q 200 565 101 394 q 472 831 299 735 q 858 928 644 928 m 706 161 q 778 185 744 161 q 833 248 813 208 q 853 333 853 288 q 826 410 853 381 q 754 440 800 440 q 653 388 693 440 q 613 263 613 335 q 636 189 613 217 q 706 161 660 161 z "},"A":{"ha":1024,"x_min":22,"x_max":1003,"o":"m 693 172 l 329 172 l 271 0 l 22 0 l 375 975 l 650 975 l 1003 0 l 751 0 l 693 172 m 632 356 l 511 713 l 392 356 l 632 356 z "},"B":{"ha":915,"x_min":86,"x_max":864,"o":"m 676 500 q 813 416 761 482 q 864 265 864 350 q 778 72 864 143 q 540 0 693 0 l 86 0 l 86 975 l 525 975 q 758 907 674 975 q 842 722 842 839 q 797 579 842 636 q 676 500 751 522 m 324 581 l 479 581 q 569 606 538 581 q 600 682 600 632 q 569 758 600 732 q 479 785 538 785 l 324 785 l 324 581 m 499 192 q 591 219 558 192 q 624 297 624 246 q 590 378 624 349 q 496 407 556 407 l 324 407 l 324 192 l 499 192 z "},"C":{"ha":1058,"x_min":46,"x_max":999,"o":"m 46 489 q 108 747 46 633 q 283 923 171 860 q 536 986 394 986 q 833 894 710 986 q 999 644 957 803 l 738 644 q 655 738 708 706 q 533 769 601 769 q 356 693 424 769 q 288 489 288 617 q 356 285 288 361 q 533 208 424 208 q 655 240 601 208 q 738 333 708 272 l 999 333 q 833 84 957 175 q 536 -7 710 -7 q 283 56 394 -7 q 108 232 171 119 q 46 489 46 344 z "},"D":{"ha":1010,"x_min":86,"x_max":963,"o":"m 451 975 q 721 914 606 975 q 899 742 836 853 q 963 488 963 632 q 899 233 963 344 q 720 61 836 122 q 451 0 604 0 l 86 0 l 86 975 l 451 975 m 436 206 q 646 279 571 206 q 721 488 721 353 q 646 697 721 622 q 436 772 571 772 l 324 772 l 324 206 l 436 206 z "},"E":{"ha":751,"x_min":86,"x_max":683,"o":"m 324 785 l 324 588 l 642 588 l 642 404 l 324 404 l 324 190 l 683 190 l 683 0 l 86 0 l 86 975 l 683 975 l 683 785 l 324 785 z "},"F":{"ha":760,"x_min":86,"x_max":721,"o":"m 721 975 l 721 785 l 324 785 l 324 579 l 621 579 l 621 394 l 324 394 l 324 0 l 86 0 l 86 975 l 721 975 z "},"G":{"ha":1058,"x_min":46,"x_max":1013,"o":"m 733 667 q 658 741 707 715 q 542 767 608 767 q 357 691 426 767 q 288 489 288 615 q 360 278 288 354 q 561 203 433 203 q 709 247 649 203 q 797 375 769 292 l 496 375 l 496 550 l 1013 550 l 1013 329 q 923 164 986 240 q 763 40 860 88 q 543 -7 665 -7 q 285 56 399 -7 q 109 232 172 119 q 46 489 46 344 q 109 747 46 633 q 285 923 172 860 q 542 986 397 986 q 837 901 717 986 q 996 667 957 817 l 733 667 z "},"H":{"ha":1015,"x_min":86,"x_max":931,"o":"m 931 975 l 931 0 l 693 0 l 693 401 l 324 401 l 324 0 l 86 0 l 86 975 l 324 975 l 324 593 l 693 593 l 693 975 l 931 975 z "},"I":{"ha":410,"x_min":86,"x_max":324,"o":"m 324 975 l 324 0 l 86 0 l 86 975 l 324 975 z "},"J":{"ha":803,"x_min":36,"x_max":697,"o":"m 697 975 l 697 311 q 610 74 697 157 q 376 -10 524 -10 q 129 78 222 -10 q 36 326 36 165 l 272 326 q 297 234 272 265 q 369 203 322 203 q 436 231 413 203 q 460 311 460 258 l 460 975 l 697 975 z "},"K":{"ha":968,"x_min":86,"x_max":942,"o":"m 651 0 l 324 431 l 324 0 l 86 0 l 86 975 l 324 975 l 324 547 l 649 975 l 928 975 l 550 497 l 942 0 l 651 0 z "},"L":{"ha":663,"x_min":86,"x_max":635,"o":"m 324 183 l 635 183 l 635 0 l 86 0 l 86 975 l 324 975 l 324 183 z "},"M":{"ha":1275,"x_min":86,"x_max":1190,"o":"m 1190 975 l 1190 0 l 953 0 l 953 585 l 735 0 l 543 0 l 324 586 l 324 0 l 86 0 l 86 975 l 367 975 l 640 300 l 911 975 l 1190 975 z "},"N":{"ha":1044,"x_min":86,"x_max":958,"o":"m 958 0 l 721 0 l 324 601 l 324 0 l 86 0 l 86 975 l 324 975 l 721 371 l 721 975 l 958 975 l 958 0 z "},"O":{"ha":1092,"x_min":46,"x_max":1046,"o":"m 547 -10 q 295 54 410 -10 q 113 233 181 118 q 46 490 46 347 q 113 747 46 633 q 295 925 181 861 q 547 989 410 989 q 799 925 685 989 q 980 747 914 861 q 1046 490 1046 633 q 979 233 1046 347 q 799 54 913 118 q 547 -10 685 -10 m 547 207 q 734 285 664 207 q 804 490 804 363 q 734 697 804 619 q 547 774 664 774 q 359 697 429 774 q 289 490 289 621 q 359 284 289 361 q 547 207 429 207 z "},"P":{"ha":867,"x_min":86,"x_max":829,"o":"m 829 661 q 790 506 829 576 q 671 393 751 436 q 471 350 590 350 l 324 350 l 324 0 l 86 0 l 86 975 l 471 975 q 668 935 588 975 q 789 824 749 894 q 829 661 829 753 m 453 539 q 554 571 521 539 q 588 661 588 603 q 554 751 588 719 q 453 783 521 783 l 324 783 l 324 539 l 453 539 z "},"Q":{"ha":1094,"x_min":46,"x_max":1068,"o":"m 781 -167 l 656 1 q 547 -10 600 -10 q 295 54 410 -10 q 113 233 181 118 q 46 490 46 347 q 113 747 46 633 q 295 925 181 861 q 547 989 410 989 q 799 925 685 989 q 980 747 914 861 q 1046 490 1046 633 q 995 262 1046 365 q 854 90 944 158 l 1068 -167 l 781 -167 m 289 490 q 359 284 289 361 q 547 207 429 207 q 734 285 664 207 q 804 490 804 363 q 734 697 804 619 q 547 774 664 774 q 359 697 429 774 q 289 490 289 621 z "},"R":{"ha":906,"x_min":86,"x_max":851,"o":"m 583 0 l 381 368 l 324 368 l 324 0 l 86 0 l 86 975 l 485 975 q 681 935 600 975 q 803 824 763 894 q 843 668 843 754 q 788 494 843 571 q 626 386 733 418 l 851 0 l 583 0 m 324 536 l 471 536 q 569 568 536 536 q 601 658 601 600 q 569 746 601 714 q 471 778 536 778 l 324 778 l 324 536 z "},"S":{"ha":854,"x_min":58,"x_max":794,"o":"m 439 -10 q 247 25 332 -10 q 112 128 163 60 q 58 292 61 196 l 311 292 q 349 209 317 238 q 432 181 381 181 q 515 205 485 181 q 546 272 546 229 q 522 332 546 308 q 462 371 497 356 q 361 406 426 386 q 207 464 267 435 q 104 550 147 493 q 61 699 61 607 q 160 912 61 835 q 417 989 258 989 q 676 912 578 989 q 782 697 775 835 l 525 697 q 490 772 522 744 q 408 799 458 799 q 339 776 365 799 q 313 710 313 753 q 357 636 313 663 q 496 579 401 610 q 649 518 590 547 q 751 433 708 489 q 794 290 794 378 q 752 139 794 207 q 629 31 710 71 q 439 -10 549 -10 z "},"T":{"ha":821,"x_min":33,"x_max":788,"o":"m 788 975 l 788 785 l 529 785 l 529 0 l 292 0 l 292 785 l 33 785 l 33 975 l 788 975 z "},"U":{"ha":979,"x_min":82,"x_max":899,"o":"m 319 975 l 319 392 q 363 257 319 304 q 489 210 406 210 q 617 257 572 210 q 661 392 661 304 l 661 975 l 899 975 l 899 393 q 843 172 899 263 q 694 36 788 82 q 485 -10 600 -10 q 278 35 369 -10 q 135 172 188 81 q 82 393 82 263 l 82 975 l 319 975 z "},"V":{"ha":1014,"x_min":13,"x_max":1001,"o":"m 1001 975 l 656 0 l 358 0 l 13 975 l 265 975 l 507 239 l 750 975 l 1001 975 z "},"W":{"ha":1461,"x_min":35,"x_max":1428,"o":"m 1428 975 l 1174 0 l 886 0 l 731 642 l 569 0 l 282 0 l 35 975 l 289 975 l 429 265 l 603 975 l 864 975 l 1031 265 l 1172 975 l 1428 975 z "},"X":{"ha":993,"x_min":33,"x_max":960,"o":"m 683 0 l 485 299 l 310 0 l 40 0 l 353 496 l 33 975 l 310 975 l 506 681 l 678 975 l 947 975 l 638 483 l 960 0 l 683 0 z "},"Y":{"ha":932,"x_min":10,"x_max":922,"o":"m 922 975 l 585 322 l 585 0 l 347 0 l 347 322 l 10 975 l 279 975 l 468 567 l 656 975 l 922 975 z "},"Z":{"ha":828,"x_min":69,"x_max":758,"o":"m 339 194 l 758 194 l 758 0 l 69 0 l 69 181 l 486 781 l 69 781 l 69 975 l 758 975 l 758 794 l 339 194 z "},"[":{"ha":708,"x_min":167,"x_max":583,"o":"m 583 1268 l 583 1076 l 389 1076 l 389 -97 l 583 -97 l 583 -290 l 167 -290 l 167 1268 l 583 1268 z "},"\\":{"ha":1114,"x_min":254,"x_max":856,"o":"m 626 -260 l 254 1319 l 483 1319 l 856 -260 l 626 -260 z "},"]":{"ha":708,"x_min":125,"x_max":542,"o":"m 542 -290 l 125 -290 l 125 -97 l 319 -97 l 319 1076 l 125 1076 l 125 1268 l 542 1268 l 542 -290 z "},"^":{"ha":985,"x_min":42,"x_max":943,"o":"m 281 229 l 42 229 l 378 978 l 608 978 l 943 229 l 704 229 l 493 703 l 281 229 z "},"_":{"ha":1083,"x_min":118,"x_max":979,"o":"m 979 -57 l 979 -285 l 118 -285 l 118 -57 l 979 -57 z "},"`":{"ha":404,"x_min":14,"x_max":349,"o":"m 349 992 l 349 828 l 14 968 l 14 1153 l 349 992 z "},"a":{"ha":943,"x_min":39,"x_max":857,"o":"m 39 389 q 84 599 39 508 q 207 738 129 689 q 381 786 285 786 q 524 753 463 786 q 619 665 586 719 l 619 775 l 857 775 l 857 0 l 619 0 l 619 110 q 523 22 585 56 q 379 -11 461 -11 q 207 38 285 -11 q 84 178 129 88 q 39 389 39 269 m 619 388 q 570 528 619 476 q 450 579 521 579 q 330 528 379 579 q 281 389 281 478 q 330 248 281 300 q 450 196 379 196 q 570 247 521 196 q 619 388 619 299 z "},"b":{"ha":943,"x_min":86,"x_max":904,"o":"m 324 665 q 419 753 357 719 q 563 786 482 786 q 736 738 658 786 q 859 599 814 689 q 904 389 904 508 q 859 178 904 269 q 736 38 814 88 q 563 -11 658 -11 q 419 22 481 -11 q 324 108 358 54 l 324 0 l 86 0 l 86 1028 l 324 1028 l 324 665 m 663 389 q 613 528 663 478 q 492 579 564 579 q 372 528 421 579 q 322 388 322 476 q 372 247 322 299 q 492 196 421 196 q 613 248 563 196 q 663 389 663 300 z "},"c":{"ha":840,"x_min":39,"x_max":800,"o":"m 39 388 q 88 599 39 508 q 226 738 138 689 q 428 786 314 786 q 672 710 574 786 q 800 494 769 633 l 547 494 q 424 583 515 583 q 319 533 358 583 q 281 388 281 482 q 319 242 281 293 q 424 192 358 192 q 547 281 515 192 l 800 281 q 671 67 769 144 q 428 -11 572 -11 q 226 38 314 -11 q 88 176 138 86 q 39 388 39 267 z "},"d":{"ha":943,"x_min":39,"x_max":857,"o":"m 39 389 q 84 599 39 508 q 207 738 129 689 q 381 786 285 786 q 520 754 457 786 q 619 668 583 722 l 619 1028 l 857 1028 l 857 0 l 619 0 l 619 111 q 524 22 586 56 q 381 -11 463 -11 q 207 38 285 -11 q 84 178 129 88 q 39 389 39 269 m 619 388 q 570 528 619 476 q 450 579 521 579 q 330 528 379 579 q 281 389 281 478 q 330 248 281 300 q 450 196 379 196 q 570 247 521 196 q 619 388 619 299 z "},"e":{"ha":856,"x_min":39,"x_max":817,"o":"m 817 400 q 813 331 817 367 l 275 331 q 322 220 281 258 q 422 182 363 182 q 546 257 511 182 l 799 257 q 728 119 779 181 q 601 24 678 58 q 431 -11 525 -11 q 228 38 317 -11 q 89 176 139 86 q 39 388 39 267 q 88 599 39 508 q 226 738 138 689 q 431 786 315 786 q 631 739 543 786 q 767 604 718 692 q 817 400 817 517 m 574 463 q 532 560 574 524 q 428 596 490 596 q 327 561 368 596 q 276 463 286 526 l 574 463 z "},"f":{"ha":500,"x_min":24,"x_max":475,"o":"m 475 578 l 347 578 l 347 0 l 110 0 l 110 578 l 24 578 l 24 775 l 110 775 l 110 797 q 192 1015 110 940 q 432 1089 274 1089 q 471 1088 458 1089 l 471 886 q 375 867 403 890 q 347 782 347 843 l 347 775 l 475 775 l 475 578 z "},"g":{"ha":943,"x_min":39,"x_max":857,"o":"m 381 786 q 524 753 463 786 q 619 665 586 719 l 619 775 l 857 775 l 857 1 q 815 -192 857 -106 q 685 -331 772 -279 q 469 -382 599 -382 q 190 -301 297 -382 q 68 -81 83 -219 l 303 -81 q 356 -151 314 -125 q 458 -176 397 -176 q 576 -134 532 -176 q 619 1 619 -92 l 619 111 q 524 23 585 57 q 381 -11 463 -11 q 207 38 285 -11 q 84 178 129 88 q 39 389 39 269 q 84 599 39 508 q 207 738 129 689 q 381 786 285 786 m 619 388 q 570 528 619 476 q 450 579 521 579 q 330 528 379 579 q 281 389 281 478 q 330 248 281 300 q 450 196 379 196 q 570 247 521 196 q 619 388 619 299 z "},"h":{"ha":936,"x_min":86,"x_max":857,"o":"m 563 783 q 776 695 696 783 q 857 453 857 607 l 857 0 l 621 0 l 621 421 q 581 542 621 499 q 472 585 540 585 q 364 542 404 585 q 324 421 324 499 l 324 0 l 86 0 l 86 1028 l 324 1028 l 324 671 q 422 753 360 722 q 563 783 485 783 z "},"i":{"ha":410,"x_min":64,"x_max":346,"o":"m 206 856 q 103 892 143 856 q 64 983 64 929 q 103 1076 64 1039 q 206 1113 143 1113 q 306 1076 267 1113 q 346 983 346 1039 q 306 892 346 929 q 206 856 267 856 m 324 775 l 324 0 l 86 0 l 86 775 l 324 775 z "},"j":{"ha":408,"x_min":-43,"x_max":344,"o":"m 204 856 q 102 892 142 856 q 63 983 63 929 q 102 1076 63 1039 q 204 1113 142 1113 q 305 1076 265 1113 q 344 983 344 1039 q 305 892 344 929 q 204 856 265 856 m 324 -100 q 251 -306 324 -243 q 50 -369 179 -369 l -43 -369 l -43 -168 l 14 -168 q 69 -153 53 -168 q 86 -103 86 -137 l 86 775 l 324 775 l 324 -100 z "},"k":{"ha":858,"x_min":86,"x_max":854,"o":"m 560 0 l 324 325 l 324 0 l 86 0 l 86 1028 l 324 1028 l 324 460 l 558 775 l 851 775 l 529 386 l 854 0 l 560 0 z "},"l":{"ha":410,"x_min":86,"x_max":324,"o":"m 324 1028 l 324 0 l 86 0 l 86 1028 l 324 1028 z "},"m":{"ha":1471,"x_min":86,"x_max":1390,"o":"m 1075 783 q 1305 696 1219 783 q 1390 453 1390 608 l 1390 0 l 1154 0 l 1154 421 q 1115 537 1154 496 q 1006 578 1075 578 q 897 537 936 578 q 857 421 857 496 l 857 0 l 621 0 l 621 421 q 581 537 621 496 q 472 578 542 578 q 363 537 403 578 q 324 421 324 496 l 324 0 l 86 0 l 86 775 l 324 775 l 324 678 q 418 755 360 726 q 550 783 476 783 q 706 746 638 783 q 814 639 775 708 q 924 743 854 703 q 1075 783 993 783 z "},"n":{"ha":936,"x_min":86,"x_max":857,"o":"m 558 783 q 776 695 694 783 q 857 453 857 607 l 857 0 l 621 0 l 621 421 q 581 542 621 499 q 472 585 540 585 q 364 542 404 585 q 324 421 324 499 l 324 0 l 86 0 l 86 775 l 324 775 l 324 672 q 421 753 360 724 q 558 783 482 783 z "},"o":{"ha":885,"x_min":39,"x_max":844,"o":"m 439 -11 q 234 38 325 -11 q 91 176 143 86 q 39 388 39 267 q 92 598 39 507 q 236 738 144 689 q 442 786 328 786 q 647 738 556 786 q 792 598 739 689 q 844 388 844 507 q 791 177 844 268 q 645 38 738 86 q 439 -11 553 -11 m 439 194 q 555 244 507 194 q 603 388 603 294 q 556 531 603 481 q 442 581 510 581 q 326 531 372 581 q 281 388 281 482 q 326 244 281 294 q 439 194 371 194 z "},"p":{"ha":943,"x_min":86,"x_max":904,"o":"m 324 665 q 419 753 358 719 q 563 786 481 786 q 736 738 658 786 q 859 599 814 689 q 904 389 904 508 q 859 178 904 269 q 736 38 814 88 q 563 -11 658 -11 q 420 22 482 -11 q 324 108 358 56 l 324 -369 l 86 -369 l 86 775 l 324 775 l 324 665 m 663 389 q 613 528 663 478 q 492 579 564 579 q 372 528 421 579 q 322 388 322 476 q 372 247 322 299 q 492 196 421 196 q 613 248 563 196 q 663 389 663 300 z "},"q":{"ha":943,"x_min":39,"x_max":857,"o":"m 39 386 q 87 592 39 501 q 216 733 135 682 q 393 783 297 783 q 525 758 467 783 q 619 686 583 732 l 619 775 l 857 775 l 857 -369 l 619 -369 l 619 97 q 522 19 579 49 q 390 -10 464 -10 q 215 40 296 -10 q 87 181 135 90 q 39 386 39 271 m 619 388 q 595 492 619 450 q 532 556 571 535 q 450 578 493 578 q 369 556 408 578 q 306 492 331 535 q 281 386 281 449 q 306 281 281 324 q 369 217 331 239 q 450 196 408 196 q 531 217 492 196 q 595 282 571 239 q 619 388 619 325 z "},"r":{"ha":594,"x_min":86,"x_max":567,"o":"m 324 646 q 428 747 365 710 q 567 783 490 783 l 567 532 l 501 532 q 368 494 413 532 q 324 360 324 456 l 324 0 l 86 0 l 86 775 l 324 775 l 324 646 z "},"s":{"ha":775,"x_min":44,"x_max":715,"o":"m 401 -11 q 221 24 300 -11 q 96 119 142 58 q 44 254 50 179 l 279 254 q 317 189 283 214 q 399 164 350 164 q 467 181 443 164 q 492 226 492 199 q 457 276 492 260 q 344 311 422 292 q 206 352 261 331 q 110 420 150 374 q 69 546 69 467 q 106 667 69 613 q 215 754 143 722 q 385 786 286 786 q 615 714 531 786 q 711 522 699 642 l 492 522 q 456 586 486 563 q 378 610 426 610 q 314 594 336 610 q 292 550 292 578 q 327 500 292 517 q 438 467 363 483 q 578 423 524 444 q 673 353 632 401 q 715 225 714 306 q 677 103 715 157 q 567 19 639 50 q 401 -11 496 -11 z "},"t":{"ha":564,"x_min":29,"x_max":518,"o":"m 518 201 l 518 0 l 397 0 q 196 63 268 0 q 124 269 124 126 l 124 578 l 29 578 l 29 775 l 124 775 l 124 964 l 361 964 l 361 775 l 517 775 l 517 578 l 361 578 l 361 267 q 378 217 361 232 q 433 201 394 201 l 518 201 z "},"u":{"ha":936,"x_min":79,"x_max":851,"o":"m 851 775 l 851 0 l 614 0 l 614 106 q 516 23 578 54 q 379 -8 454 -8 q 222 31 290 -8 q 117 146 154 71 q 79 322 79 221 l 79 775 l 315 775 l 315 354 q 356 233 315 276 q 464 190 396 190 q 574 233 533 190 q 614 354 614 276 l 614 775 l 851 775 z "},"v":{"ha":869,"x_min":13,"x_max":856,"o":"m 435 222 l 603 775 l 856 775 l 581 0 l 288 0 l 13 775 l 267 775 l 435 222 z "},"w":{"ha":1203,"x_min":6,"x_max":1199,"o":"m 1199 775 l 989 0 l 726 0 l 604 503 l 478 0 l 217 0 l 6 775 l 243 775 l 353 221 l 483 775 l 735 775 l 867 224 l 975 775 l 1199 775 z "},"x":{"ha":817,"x_min":7,"x_max":811,"o":"m 544 0 l 396 215 l 271 0 l 14 0 l 269 396 l 7 775 l 274 775 l 422 561 l 547 775 l 804 775 l 544 385 l 811 0 l 544 0 z "},"y":{"ha":878,"x_min":-1,"x_max":878,"o":"m 878 775 l 392 -368 l 136 -368 l 314 26 l -1 775 l 264 775 l 443 290 l 621 775 l 878 775 z "},"z":{"ha":689,"x_min":43,"x_max":644,"o":"m 308 196 l 644 196 l 644 0 l 43 0 l 43 189 l 365 579 l 46 579 l 46 775 l 638 775 l 638 586 l 308 196 z "},"{":{"ha":693,"x_min":126,"x_max":594,"o":"m 126 583 q 226 613 194 586 q 258 690 258 640 q 244 839 258 728 q 236 910 243 850 q 229 1019 229 971 q 301 1203 229 1138 q 494 1269 374 1269 l 594 1269 l 594 1075 l 540 1075 q 476 1056 496 1075 q 457 996 457 1036 q 468 857 457 965 q 481 681 481 722 q 444 554 481 604 q 332 490 407 504 l 332 488 q 444 423 407 472 q 481 296 481 374 q 468 119 481 254 q 457 -18 457 14 q 476 -78 457 -58 q 540 -99 496 -99 l 594 -99 l 594 -293 l 494 -293 q 301 -227 374 -293 q 229 -42 229 -161 q 236 67 229 7 q 244 139 243 128 q 258 288 258 250 q 226 363 258 335 q 126 394 194 392 l 126 583 z "},"|":{"ha":404,"x_min":83,"x_max":321,"o":"m 321 -179 l 83 -179 l 83 1132 l 321 1132 l 321 -179 z "},"}":{"ha":693,"x_min":99,"x_max":567,"o":"m 567 394 q 467 363 499 392 q 435 288 435 335 q 449 139 435 250 q 457 67 450 128 q 464 -42 464 7 q 392 -227 464 -161 q 199 -293 319 -293 l 99 -293 l 99 -99 l 153 -99 q 217 -78 197 -99 q 236 -18 236 -58 q 225 119 236 14 q 213 296 213 254 q 249 423 213 374 q 361 488 286 472 l 361 490 q 249 554 286 504 q 213 681 213 604 q 225 857 213 722 q 236 996 236 965 q 217 1056 236 1036 q 153 1075 197 1075 l 99 1075 l 99 1269 l 199 1269 q 392 1203 319 1269 q 464 1019 464 1138 q 457 910 464 971 q 449 839 450 850 q 435 690 435 728 q 467 613 435 640 q 567 583 499 586 l 567 394 z "},"~":{"ha":883,"x_min":39,"x_max":846,"o":"m 39 289 q 135 517 64 443 q 315 590 207 590 q 395 577 360 590 q 476 538 431 564 q 533 508 510 518 q 582 499 557 499 q 669 590 657 499 l 846 590 q 749 363 821 436 q 568 289 676 289 q 488 303 524 289 q 407 342 453 317 q 349 371 372 361 q 301 381 326 381 q 213 289 226 381 l 39 289 z "}," ":{"ha":294,"x_min":0,"x_max":0,"o":""},"¡":{"ha":544,"x_min":132,"x_max":414,"o":"m 274 794 q 374 758 335 794 q 414 667 414 721 q 374 574 414 611 q 274 536 335 536 q 172 574 211 536 q 132 667 132 611 q 172 758 132 721 q 274 794 211 794 m 169 439 l 371 439 l 399 -226 l 142 -226 l 169 439 z "},"¢":{"ha":876,"x_min":58,"x_max":781,"o":"m 436 185 q 518 206 485 185 q 563 264 551 226 l 781 264 q 686 77 771 149 q 476 -6 601 6 l 476 -118 l 388 -118 l 388 -6 q 145 105 232 8 q 58 356 58 201 q 145 606 58 510 q 388 717 232 703 l 388 829 l 476 829 l 476 717 q 686 634 601 706 q 781 447 771 563 l 563 447 q 436 526 536 526 q 325 481 365 526 q 285 356 285 436 q 325 230 285 275 q 436 185 365 185 z "},"£":{"ha":921,"x_min":50,"x_max":817,"o":"m 817 181 l 817 -6 l 108 -6 l 75 111 q 171 235 140 169 q 201 396 201 300 l 201 399 l 50 399 l 50 558 l 163 558 q 136 732 136 653 q 178 896 136 826 q 297 1001 221 965 q 472 1038 374 1038 q 719 950 633 1038 q 811 722 806 863 l 593 722 q 563 810 590 778 q 478 843 535 843 q 392 809 422 843 q 361 708 361 775 q 369 643 361 676 q 392 558 376 610 l 643 558 l 643 399 l 426 399 l 426 394 q 404 282 426 340 q 335 181 382 224 l 817 181 z "},"¤":{"ha":801,"x_min":83,"x_max":718,"o":"m 692 525 q 643 376 692 440 l 718 301 l 626 208 l 538 297 q 401 272 478 272 q 264 297 325 272 l 175 208 l 83 301 l 160 378 q 114 525 114 442 q 161 674 114 611 l 83 751 l 175 844 l 268 751 q 403 775 331 775 q 535 753 472 775 l 626 844 l 718 751 l 643 676 q 692 525 692 613 m 401 411 q 474 440 444 411 q 504 524 504 468 q 475 608 504 579 q 401 638 446 638 q 329 608 358 638 q 300 524 300 579 q 329 440 300 468 q 401 411 358 411 z "},"¥":{"ha":932,"x_min":10,"x_max":922,"o":"m 724 590 l 863 590 l 863 431 l 640 429 l 596 344 l 863 344 l 863 186 l 585 186 l 585 0 l 347 0 l 347 186 l 69 186 l 69 344 l 336 344 l 292 429 l 69 431 l 69 590 l 208 590 l 10 975 l 279 975 l 468 543 l 656 975 l 922 975 l 724 590 z "},"¦":{"ha":529,"x_min":146,"x_max":383,"o":"m 146 1132 l 383 1132 l 383 563 l 146 563 l 146 1132 m 383 -179 l 146 -179 l 146 390 l 383 390 l 383 -179 z "},"§":{"ha":815,"x_min":42,"x_max":774,"o":"m 625 131 q 724 -62 724 49 q 685 -190 724 -133 q 575 -279 647 -247 q 404 -311 503 -311 q 181 -240 264 -311 q 92 -49 97 -168 l 326 -49 q 407 -144 332 -144 q 485 -76 485 -144 q 466 -25 485 -47 q 403 21 447 -3 q 272 82 360 44 q 100 192 158 131 q 42 339 42 254 q 77 463 42 408 q 190 547 113 518 q 92 740 92 629 q 130 868 92 811 q 240 957 168 925 q 411 989 313 989 q 635 917 551 989 q 724 726 718 846 l 489 726 q 408 822 483 822 q 331 754 331 822 q 349 703 331 725 q 412 657 368 681 q 543 596 456 633 q 715 485 657 547 q 774 339 774 424 q 738 219 774 271 q 625 131 703 167 m 408 231 q 492 262 461 231 q 524 339 524 293 q 492 416 524 385 q 408 447 461 447 q 324 416 356 447 q 293 339 293 385 q 324 262 293 293 q 408 231 356 231 z "},"¨":{"ha":510,"x_min":14,"x_max":496,"o":"m 115 861 q 43 890 72 861 q 14 963 14 919 q 43 1035 14 1006 q 115 1065 72 1065 q 189 1036 160 1065 q 218 963 218 1007 q 188 890 218 919 q 115 861 158 861 m 393 861 q 321 890 350 861 q 292 963 292 919 q 321 1035 292 1006 q 393 1065 350 1065 q 467 1036 438 1065 q 496 963 496 1007 q 466 890 496 919 q 393 861 436 861 z "},"©":{"ha":1082,"x_min":53,"x_max":1031,"o":"m 542 989 q 796 926 685 989 q 969 749 907 863 q 1031 490 1031 635 q 969 232 1031 346 q 796 54 907 118 q 542 -10 685 -10 q 288 54 399 -10 q 115 232 176 118 q 53 490 53 346 q 115 749 53 635 q 288 926 176 863 q 542 989 399 989 m 542 911 q 326 860 418 911 q 185 713 235 808 q 136 490 136 618 q 185 268 136 364 q 326 120 235 172 q 542 68 418 68 q 757 120 665 68 q 898 268 849 172 q 947 490 947 364 q 898 713 947 618 q 757 860 849 808 q 542 911 665 911 m 543 803 q 384 765 454 803 q 274 656 314 726 q 235 490 235 585 q 274 325 235 396 q 384 216 314 254 q 543 178 454 178 q 732 240 653 178 q 833 406 811 303 l 629 406 q 536 338 606 338 q 456 376 485 338 q 426 490 426 415 q 456 604 426 565 q 536 643 485 643 q 595 625 571 643 q 629 575 619 607 l 833 575 q 733 742 811 681 q 543 803 654 803 z "},"ª":{"ha":651,"x_min":35,"x_max":610,"o":"m 35 736 q 65 869 35 813 q 149 957 96 926 q 265 988 201 988 q 431 919 374 988 l 431 981 l 610 981 l 610 492 l 431 492 l 431 550 q 269 485 376 485 q 149 515 203 485 q 65 603 96 546 q 35 736 35 660 m 219 735 q 250 654 219 683 q 325 625 281 625 q 400 655 369 625 q 431 736 431 685 q 400 817 431 788 q 325 846 369 846 q 250 816 281 846 q 219 735 219 786 z "},"«":{"ha":774,"x_min":63,"x_max":711,"o":"m 179 167 l 63 410 l 179 653 l 399 653 l 278 410 l 399 167 l 179 167 m 492 167 l 375 410 l 492 653 l 711 653 l 590 410 l 711 167 l 492 167 z "},"¬":{"ha":996,"x_min":65,"x_max":919,"o":"m 919 614 l 919 250 l 682 250 l 682 433 l 65 433 l 65 614 l 919 614 z "},"­":{"ha":806,"x_min":72,"x_max":683,"o":"m 683 586 l 683 389 l 72 389 l 72 586 l 683 586 z "},"®":{"ha":714,"x_min":54,"x_max":658,"o":"m 357 990 q 513 952 444 990 q 620 846 582 914 q 658 690 658 778 q 620 535 658 604 q 513 428 582 467 q 357 390 444 390 q 201 428 269 390 q 93 535 132 467 q 54 690 54 604 q 93 846 54 778 q 201 952 132 914 q 357 990 269 990 m 357 468 q 517 529 457 468 q 576 690 576 590 q 517 851 576 790 q 357 913 457 913 q 197 851 257 913 q 138 690 138 790 q 197 529 138 590 q 357 468 257 468 m 492 746 q 477 694 492 717 q 438 661 463 672 l 508 547 l 394 547 l 339 650 l 331 650 l 331 547 l 231 547 l 231 842 l 385 842 q 463 815 433 842 q 492 746 492 789 m 329 718 l 368 718 q 390 739 390 718 q 368 758 390 758 l 329 758 l 329 718 z "},"¯":{"ha":583,"x_min":14,"x_max":569,"o":"m 569 1036 l 569 872 l 14 872 l 14 1036 l 569 1036 z "},"°":{"ha":643,"x_min":35,"x_max":608,"o":"m 35 735 q 114 917 35 850 q 322 985 193 985 q 530 917 451 985 q 608 735 608 850 q 530 551 608 619 q 324 482 451 482 q 174 513 239 482 q 72 601 108 544 q 35 735 35 658 m 425 733 q 394 825 425 793 q 322 857 364 857 q 249 825 279 857 q 218 733 218 793 q 249 642 218 674 q 324 611 281 611 q 395 642 365 611 q 425 733 425 674 z "},"±":{"ha":874,"x_min":83,"x_max":792,"o":"m 550 496 l 550 364 l 792 364 l 792 154 l 83 154 l 83 364 l 325 364 l 325 496 l 83 496 l 83 707 l 325 707 l 325 869 l 550 869 l 550 707 l 792 707 l 792 496 l 550 496 z "},"²":{"ha":532,"x_min":47,"x_max":490,"o":"m 242 628 l 483 628 l 483 489 l 54 489 l 54 622 l 224 725 q 301 825 301 774 q 292 853 301 843 q 267 864 282 864 q 225 814 229 864 l 47 814 q 115 943 51 894 q 285 992 178 992 q 438 946 385 992 q 490 838 490 900 q 453 750 490 788 q 326 669 415 713 l 242 628 z "},"³":{"ha":519,"x_min":21,"x_max":485,"o":"m 29 822 q 90 943 32 894 q 263 992 149 992 q 417 951 358 992 q 476 846 476 910 q 451 776 476 803 q 382 740 426 750 l 382 736 q 485 624 485 708 q 424 522 485 560 q 263 483 363 483 q 85 528 144 483 q 21 653 26 572 l 206 653 q 251 610 210 610 q 283 621 271 610 q 294 654 294 632 q 280 690 294 678 q 240 701 265 701 l 193 701 l 193 779 l 232 779 q 286 825 286 779 q 275 855 286 844 q 243 865 264 865 q 199 822 204 865 l 29 822 z "},"´":{"ha":363,"x_min":14,"x_max":349,"o":"m 349 968 l 14 828 l 14 992 l 349 1153 l 349 968 z "},"µ":{"ha":979,"x_min":104,"x_max":875,"o":"m 875 775 l 875 0 l 638 0 l 638 114 q 542 24 603 57 q 403 -8 482 -8 q 340 3 371 -8 l 340 -369 l 104 -369 l 104 775 l 340 775 l 340 354 q 380 238 340 279 q 489 197 419 197 q 598 238 558 197 q 638 354 638 279 l 638 775 l 875 775 z "},"¶":{"ha":983,"x_min":39,"x_max":879,"o":"m 879 0 l 683 0 l 683 794 l 597 794 l 597 0 l 401 0 l 401 379 l 369 379 q 183 420 257 379 q 74 528 108 461 q 39 676 39 596 q 74 825 39 757 q 183 934 108 893 q 369 975 257 975 l 879 975 l 879 0 z "},"·":{"ha":415,"x_min":69,"x_max":351,"o":"m 211 308 q 109 345 149 308 q 69 436 69 382 q 109 529 69 492 q 211 567 149 567 q 312 529 272 567 q 351 436 351 492 q 312 345 351 382 q 211 308 272 308 z "},"¸":{"ha":435,"x_min":14,"x_max":421,"o":"m 240 -51 q 367 -91 313 -51 q 421 -210 421 -131 q 364 -330 421 -289 q 228 -371 307 -371 l 14 -371 l 14 -240 l 196 -240 q 238 -232 224 -240 q 251 -204 251 -224 q 238 -177 251 -185 q 196 -169 224 -169 l 97 -169 l 97 10 l 240 10 l 240 -51 z "},"¹":{"ha":346,"x_min":28,"x_max":290,"o":"m 28 840 l 28 978 l 290 978 l 290 489 l 111 489 l 111 840 l 28 840 z "},"º":{"ha":636,"x_min":35,"x_max":601,"o":"m 35 735 q 70 865 35 808 q 170 953 106 921 q 318 985 235 985 q 466 953 401 985 q 566 865 531 921 q 601 735 601 808 q 565 604 601 661 q 465 515 529 547 q 317 482 400 482 q 169 515 233 482 q 70 604 106 547 q 35 735 35 661 m 418 733 q 389 818 418 789 q 317 847 360 847 q 247 818 275 847 q 218 733 218 789 q 246 650 218 679 q 317 621 274 621 q 389 651 360 621 q 418 733 418 681 z "},"»":{"ha":774,"x_min":69,"x_max":718,"o":"m 190 410 l 69 653 l 289 653 l 406 410 l 289 167 l 69 167 l 190 410 m 503 410 l 382 653 l 601 653 l 718 410 l 601 167 l 382 167 l 503 410 z "},"¼":{"ha":1092,"x_min":56,"x_max":1050,"o":"m 56 840 l 56 978 l 318 978 l 318 489 l 139 489 l 139 840 l 56 840 m 886 975 l 351 0 l 122 0 l 657 975 l 886 975 m 1050 86 l 994 86 l 994 0 l 815 0 l 815 86 l 544 86 l 544 181 l 747 489 l 994 489 l 994 188 l 1050 188 l 1050 86 m 824 371 l 715 192 l 824 192 l 824 371 z "},"½":{"ha":1140,"x_min":56,"x_max":1058,"o":"m 139 840 l 56 840 l 56 978 l 318 978 l 318 489 l 139 489 l 139 840 m 886 978 l 351 0 l 122 0 l 657 978 l 886 978 m 810 138 l 1051 138 l 1051 -1 l 622 -1 l 622 132 l 792 235 q 869 335 869 283 q 860 363 869 353 q 835 374 850 374 q 793 324 797 374 l 615 324 q 683 453 619 404 q 853 501 746 501 q 1006 456 953 501 q 1058 347 1058 410 q 1021 260 1058 297 q 894 179 983 222 l 810 138 z "},"¾":{"ha":1238,"x_min":69,"x_max":1210,"o":"m 78 822 q 139 943 81 894 q 311 992 197 992 q 466 951 407 992 q 525 846 525 910 q 500 776 525 803 q 431 740 475 750 l 431 736 q 533 624 533 708 q 472 522 533 560 q 311 483 411 483 q 134 528 193 483 q 69 653 75 572 l 254 653 q 300 610 258 610 q 331 621 319 610 q 343 654 343 632 q 328 690 343 678 q 289 701 314 701 l 242 701 l 242 779 l 281 779 q 335 825 335 779 q 324 855 335 844 q 292 865 313 865 q 247 822 253 865 l 78 822 m 1046 978 l 511 0 l 282 0 l 817 978 l 1046 978 m 1210 86 l 1154 86 l 1154 0 l 975 0 l 975 86 l 704 86 l 704 181 l 892 489 l 1154 489 l 1154 188 l 1210 188 l 1210 86 m 983 385 l 875 188 l 983 188 l 983 385 z "},"¿":{"ha":747,"x_min":47,"x_max":710,"o":"m 467 794 q 569 758 529 794 q 608 667 608 721 q 569 574 608 611 q 467 536 529 536 q 366 574 406 536 q 326 667 326 611 q 366 758 326 721 q 467 794 406 794 m 375 -246 q 137 -168 226 -246 q 47 51 47 -90 q 133 255 47 182 q 358 329 218 328 l 365 433 l 574 433 l 581 175 l 497 175 q 333 148 389 175 q 278 50 276 121 q 305 -24 278 3 q 378 -51 332 -51 q 456 -23 428 -51 q 483 54 483 6 l 707 54 q 672 -99 710 -31 q 558 -206 633 -167 q 375 -246 482 -246 z "},"À":{"ha":1024,"x_min":22,"x_max":1003,"o":"m 693 172 l 329 172 l 271 0 l 22 0 l 375 975 l 650 975 l 1003 0 l 751 0 l 693 172 m 632 356 l 511 713 l 392 356 l 632 356 m 674 1194 l 674 1031 l 339 1171 l 339 1356 l 674 1194 z "},"Á":{"ha":1024,"x_min":22,"x_max":1003,"o":"m 693 172 l 329 172 l 271 0 l 22 0 l 375 975 l 650 975 l 1003 0 l 751 0 l 693 172 m 632 356 l 511 713 l 392 356 l 632 356 m 674 1171 l 339 1031 l 339 1194 l 674 1356 l 674 1171 z "},"Â":{"ha":1024,"x_min":22,"x_max":1003,"o":"m 693 172 l 329 172 l 271 0 l 22 0 l 375 975 l 650 975 l 1003 0 l 751 0 l 693 172 m 632 356 l 511 713 l 392 356 l 632 356 m 513 1144 l 297 1031 l 297 1194 l 513 1304 l 728 1194 l 728 1031 l 513 1144 z "},"Ã":{"ha":1024,"x_min":22,"x_max":1003,"o":"m 693 172 l 329 172 l 271 0 l 22 0 l 375 975 l 650 975 l 1003 0 l 751 0 l 693 172 m 632 356 l 511 713 l 392 356 l 632 356 m 235 1043 q 426 1249 268 1249 q 480 1240 457 1249 q 536 1213 503 1231 q 576 1192 561 1199 q 608 1186 592 1186 q 668 1249 660 1186 l 790 1249 q 599 1043 757 1043 q 545 1052 568 1043 q 489 1079 522 1061 q 449 1099 464 1093 q 417 1106 433 1106 q 356 1043 365 1106 l 235 1043 z "},"Ä":{"ha":1024,"x_min":22,"x_max":1003,"o":"m 693 172 l 329 172 l 271 0 l 22 0 l 375 975 l 650 975 l 1003 0 l 751 0 l 693 172 m 632 356 l 511 713 l 392 356 l 632 356 m 372 1064 q 300 1093 329 1064 q 271 1165 271 1122 q 300 1238 271 1208 q 372 1268 329 1268 q 446 1239 417 1268 q 475 1165 475 1210 q 445 1093 475 1122 q 372 1064 415 1064 m 650 1064 q 578 1093 607 1064 q 549 1165 549 1122 q 578 1238 549 1208 q 650 1268 607 1268 q 724 1239 694 1268 q 753 1165 753 1210 q 723 1093 753 1122 q 650 1064 693 1064 z "},"Å":{"ha":1024,"x_min":22,"x_max":1003,"o":"m 693 172 l 329 172 l 271 0 l 22 0 l 375 975 l 650 975 l 1003 0 l 751 0 l 693 172 m 632 356 l 511 713 l 392 356 l 632 356 m 683 1203 q 634 1081 683 1126 q 513 1035 585 1035 q 392 1081 440 1035 q 343 1203 343 1126 q 392 1325 343 1279 q 513 1371 440 1371 q 634 1325 585 1371 q 683 1203 683 1279 m 579 1203 q 560 1252 579 1233 q 513 1271 542 1271 q 466 1252 485 1271 q 447 1203 447 1233 q 466 1154 447 1174 q 513 1135 485 1135 q 560 1154 542 1135 q 579 1203 579 1174 z "},"Æ":{"ha":1326,"x_min":8,"x_max":1258,"o":"m 907 788 l 907 588 l 1217 588 l 1217 407 l 907 407 l 907 188 l 1258 188 l 1258 0 l 669 0 l 669 164 l 349 164 l 265 0 l 8 0 l 507 975 l 1258 975 l 1258 788 l 907 788 m 669 344 l 669 799 l 440 344 l 669 344 z "},"Ç":{"ha":1058,"x_min":46,"x_max":999,"o":"m 533 208 q 655 240 601 208 q 738 333 708 272 l 999 333 q 859 105 961 193 q 611 -3 757 17 l 611 -57 q 738 -97 683 -57 q 792 -215 792 -136 q 735 -335 792 -294 q 599 -376 678 -376 l 385 -376 l 385 -246 l 567 -246 q 608 -237 594 -246 q 622 -210 622 -229 q 608 -183 622 -190 q 567 -175 594 -175 l 468 -175 l 468 -3 q 247 77 343 11 q 99 250 151 143 q 46 489 46 357 q 108 747 46 633 q 283 923 171 860 q 536 986 394 986 q 833 894 710 986 q 999 644 957 803 l 738 644 q 655 738 708 706 q 533 769 601 769 q 356 693 424 769 q 288 489 288 617 q 356 285 288 361 q 533 208 424 208 z "},"È":{"ha":751,"x_min":86,"x_max":683,"o":"m 324 785 l 324 588 l 642 588 l 642 404 l 324 404 l 324 190 l 683 190 l 683 0 l 86 0 l 86 975 l 683 975 l 683 785 l 324 785 m 540 1194 l 540 1031 l 206 1171 l 206 1356 l 540 1194 z "},"É":{"ha":751,"x_min":86,"x_max":683,"o":"m 324 785 l 324 588 l 642 588 l 642 404 l 324 404 l 324 190 l 683 190 l 683 0 l 86 0 l 86 975 l 683 975 l 683 785 l 324 785 m 540 1171 l 206 1031 l 206 1194 l 540 1356 l 540 1171 z "},"Ê":{"ha":751,"x_min":86,"x_max":683,"o":"m 324 785 l 324 588 l 642 588 l 642 404 l 324 404 l 324 190 l 683 190 l 683 0 l 86 0 l 86 975 l 683 975 l 683 785 l 324 785 m 378 1144 l 163 1031 l 163 1194 l 378 1304 l 593 1194 l 593 1031 l 378 1144 z "},"Ë":{"ha":751,"x_min":86,"x_max":683,"o":"m 324 785 l 324 588 l 642 588 l 642 404 l 324 404 l 324 190 l 683 190 l 683 0 l 86 0 l 86 975 l 683 975 l 683 785 l 324 785 m 239 1064 q 167 1093 196 1064 q 138 1165 138 1122 q 167 1238 138 1208 q 239 1268 196 1268 q 313 1239 283 1268 q 342 1165 342 1210 q 312 1093 342 1122 q 239 1064 282 1064 m 517 1064 q 444 1093 474 1064 q 415 1165 415 1122 q 444 1238 415 1208 q 517 1268 474 1268 q 590 1239 561 1268 q 619 1165 619 1210 q 590 1093 619 1122 q 517 1064 560 1064 z "},"Ì":{"ha":410,"x_min":32,"x_max":367,"o":"m 324 975 l 324 0 l 86 0 l 86 975 l 324 975 m 367 1194 l 367 1031 l 32 1171 l 32 1356 l 367 1194 z "},"Í":{"ha":410,"x_min":32,"x_max":367,"o":"m 324 975 l 324 0 l 86 0 l 86 975 l 324 975 m 367 1171 l 32 1031 l 32 1194 l 367 1356 l 367 1171 z "},"Î":{"ha":410,"x_min":-10,"x_max":421,"o":"m 324 975 l 324 0 l 86 0 l 86 975 l 324 975 m 206 1144 l -10 1031 l -10 1194 l 206 1304 l 421 1194 l 421 1031 l 206 1144 z "},"Ï":{"ha":410,"x_min":-36,"x_max":446,"o":"m 324 975 l 324 0 l 86 0 l 86 975 l 324 975 m 65 1064 q -7 1093 22 1064 q -36 1165 -36 1122 q -7 1238 -36 1208 q 65 1268 22 1268 q 139 1239 110 1268 q 168 1165 168 1210 q 138 1093 168 1122 q 65 1064 108 1064 m 343 1064 q 271 1093 300 1064 q 242 1165 242 1122 q 271 1238 242 1208 q 343 1268 300 1268 q 417 1239 388 1268 q 446 1165 446 1210 q 416 1093 446 1122 q 343 1064 386 1064 z "},"Ð":{"ha":1017,"x_min":6,"x_max":969,"o":"m 458 975 q 728 914 613 975 q 907 742 844 853 q 969 488 969 632 q 907 233 969 344 q 728 61 844 122 q 458 0 613 0 l 93 0 l 93 389 l 6 389 l 6 586 l 93 586 l 93 975 l 458 975 m 444 203 q 653 278 578 203 q 728 488 728 353 q 653 697 728 622 q 444 772 578 772 l 332 772 l 332 586 l 543 586 l 543 389 l 332 389 l 332 203 l 444 203 z "},"Ñ":{"ha":1044,"x_min":86,"x_max":958,"o":"m 958 0 l 721 0 l 324 601 l 324 0 l 86 0 l 86 975 l 324 975 l 721 371 l 721 975 l 958 975 l 958 0 m 244 1043 q 436 1249 278 1249 q 490 1240 467 1249 q 546 1213 513 1231 q 586 1192 571 1199 q 618 1186 601 1186 q 678 1249 669 1186 l 800 1249 q 608 1043 767 1043 q 555 1052 578 1043 q 499 1079 532 1061 q 458 1099 474 1093 q 426 1106 443 1106 q 365 1043 375 1106 l 244 1043 z "},"Ò":{"ha":1092,"x_min":46,"x_max":1046,"o":"m 547 -10 q 295 54 410 -10 q 113 233 181 118 q 46 490 46 347 q 113 747 46 633 q 295 925 181 861 q 547 989 410 989 q 799 925 685 989 q 980 747 914 861 q 1046 490 1046 633 q 979 233 1046 347 q 799 54 913 118 q 547 -10 685 -10 m 547 207 q 734 285 664 207 q 804 490 804 363 q 734 697 804 619 q 547 774 664 774 q 359 697 429 774 q 289 490 289 621 q 359 284 289 361 q 547 207 429 207 m 708 1194 l 708 1031 l 374 1171 l 374 1356 l 708 1194 z "},"Ó":{"ha":1092,"x_min":46,"x_max":1046,"o":"m 547 -10 q 295 54 410 -10 q 113 233 181 118 q 46 490 46 347 q 113 747 46 633 q 295 925 181 861 q 547 989 410 989 q 799 925 685 989 q 980 747 914 861 q 1046 490 1046 633 q 979 233 1046 347 q 799 54 913 118 q 547 -10 685 -10 m 547 207 q 734 285 664 207 q 804 490 804 363 q 734 697 804 619 q 547 774 664 774 q 359 697 429 774 q 289 490 289 621 q 359 284 289 361 q 547 207 429 207 m 708 1171 l 374 1031 l 374 1194 l 708 1356 l 708 1171 z "},"Ô":{"ha":1092,"x_min":46,"x_max":1046,"o":"m 547 -10 q 295 54 410 -10 q 113 233 181 118 q 46 490 46 347 q 113 747 46 633 q 295 925 181 861 q 547 989 410 989 q 799 925 685 989 q 980 747 914 861 q 1046 490 1046 633 q 979 233 1046 347 q 799 54 913 118 q 547 -10 685 -10 m 547 207 q 734 285 664 207 q 804 490 804 363 q 734 697 804 619 q 547 774 664 774 q 359 697 429 774 q 289 490 289 621 q 359 284 289 361 q 547 207 429 207 m 546 1144 l 331 1031 l 331 1194 l 546 1304 l 761 1194 l 761 1031 l 546 1144 z "},"Õ":{"ha":1092,"x_min":46,"x_max":1046,"o":"m 547 -10 q 295 54 410 -10 q 113 233 181 118 q 46 490 46 347 q 113 747 46 633 q 295 925 181 861 q 547 989 410 989 q 799 925 685 989 q 980 747 914 861 q 1046 490 1046 633 q 979 233 1046 347 q 799 54 913 118 q 547 -10 685 -10 m 547 207 q 734 285 664 207 q 804 490 804 363 q 734 697 804 619 q 547 774 664 774 q 359 697 429 774 q 289 490 289 621 q 359 284 289 361 q 547 207 429 207 m 268 1043 q 460 1249 301 1249 q 513 1240 490 1249 q 569 1213 536 1231 q 610 1192 594 1199 q 642 1186 625 1186 q 701 1249 693 1186 l 824 1249 q 632 1043 790 1043 q 578 1052 601 1043 q 522 1079 556 1061 q 482 1099 497 1093 q 450 1106 467 1106 q 389 1043 399 1106 l 268 1043 z "},"Ö":{"ha":1092,"x_min":46,"x_max":1046,"o":"m 547 -10 q 295 54 410 -10 q 113 233 181 118 q 46 490 46 347 q 113 747 46 633 q 295 925 181 861 q 547 989 410 989 q 799 925 685 989 q 980 747 914 861 q 1046 490 1046 633 q 979 233 1046 347 q 799 54 913 118 q 547 -10 685 -10 m 547 207 q 734 285 664 207 q 804 490 804 363 q 734 697 804 619 q 547 774 664 774 q 359 697 429 774 q 289 490 289 621 q 359 284 289 361 q 547 207 429 207 m 407 1064 q 335 1093 364 1064 q 306 1165 306 1122 q 335 1238 306 1208 q 407 1268 364 1268 q 481 1239 451 1268 q 510 1165 510 1210 q 480 1093 510 1122 q 407 1064 450 1064 m 685 1064 q 613 1093 642 1064 q 583 1165 583 1122 q 613 1238 583 1208 q 685 1268 642 1268 q 758 1239 729 1268 q 788 1165 788 1210 q 758 1093 788 1122 q 685 1064 728 1064 z "},"×":{"ha":885,"x_min":96,"x_max":789,"o":"m 633 147 l 440 340 l 250 149 l 96 301 l 286 494 l 101 679 l 257 833 l 442 649 l 624 833 l 779 681 l 594 496 l 789 301 l 633 147 z "},"Ø":{"ha":1092,"x_min":31,"x_max":1061,"o":"m 922 825 q 1013 674 981 760 q 1044 490 1044 589 q 978 233 1044 347 q 797 54 911 118 q 546 -10 683 -10 q 387 14 463 -10 q 249 83 311 38 l 175 1 l 31 1 l 169 154 q 77 306 110 219 q 44 490 44 392 q 112 747 44 633 q 294 925 179 861 q 546 989 408 989 q 843 897 713 989 l 917 978 l 1061 978 l 922 825 m 288 490 q 326 328 288 397 l 693 732 q 546 774 629 774 q 358 697 428 774 q 288 490 288 621 m 803 490 q 765 651 803 583 l 399 249 q 546 207 463 207 q 733 285 663 207 q 803 490 803 363 z "},"Ù":{"ha":979,"x_min":82,"x_max":899,"o":"m 319 975 l 319 392 q 363 257 319 304 q 489 210 406 210 q 617 257 572 210 q 661 392 661 304 l 661 975 l 899 975 l 899 393 q 843 172 899 263 q 694 36 788 82 q 485 -10 600 -10 q 278 35 369 -10 q 135 172 188 81 q 82 393 82 263 l 82 975 l 319 975 m 651 1194 l 651 1031 l 317 1171 l 317 1356 l 651 1194 z "},"Ú":{"ha":979,"x_min":82,"x_max":899,"o":"m 319 975 l 319 392 q 363 257 319 304 q 489 210 406 210 q 617 257 572 210 q 661 392 661 304 l 661 975 l 899 975 l 899 393 q 843 172 899 263 q 694 36 788 82 q 485 -10 600 -10 q 278 35 369 -10 q 135 172 188 81 q 82 393 82 263 l 82 975 l 319 975 m 651 1171 l 317 1031 l 317 1194 l 651 1356 l 651 1171 z "},"Û":{"ha":979,"x_min":82,"x_max":899,"o":"m 319 975 l 319 392 q 363 257 319 304 q 489 210 406 210 q 617 257 572 210 q 661 392 661 304 l 661 975 l 899 975 l 899 393 q 843 172 899 263 q 694 36 788 82 q 485 -10 600 -10 q 278 35 369 -10 q 135 172 188 81 q 82 393 82 263 l 82 975 l 319 975 m 490 1144 l 275 1031 l 275 1194 l 490 1304 l 706 1194 l 706 1031 l 490 1144 z "},"Ü":{"ha":979,"x_min":82,"x_max":899,"o":"m 319 975 l 319 392 q 363 257 319 304 q 489 210 406 210 q 617 257 572 210 q 661 392 661 304 l 661 975 l 899 975 l 899 393 q 843 172 899 263 q 694 36 788 82 q 485 -10 600 -10 q 278 35 369 -10 q 135 172 188 81 q 82 393 82 263 l 82 975 l 319 975 m 350 1064 q 278 1093 307 1064 q 249 1165 249 1122 q 278 1238 249 1208 q 350 1268 307 1268 q 424 1239 394 1268 q 453 1165 453 1210 q 423 1093 453 1122 q 350 1064 393 1064 m 628 1064 q 556 1093 585 1064 q 526 1165 526 1122 q 556 1238 526 1208 q 628 1268 585 1268 q 701 1239 672 1268 q 731 1165 731 1210 q 701 1093 731 1122 q 628 1064 671 1064 z "},"Ý":{"ha":932,"x_min":10,"x_max":922,"o":"m 922 975 l 585 322 l 585 0 l 347 0 l 347 322 l 10 975 l 279 975 l 468 567 l 656 975 l 922 975 m 628 1171 l 293 1031 l 293 1194 l 628 1356 l 628 1171 z "},"Þ":{"ha":867,"x_min":86,"x_max":829,"o":"m 829 489 q 790 338 829 407 q 671 226 751 268 q 471 185 590 185 l 324 185 l 324 0 l 86 0 l 86 975 l 321 975 l 321 794 l 471 794 q 668 755 588 794 q 789 647 749 715 q 829 489 829 578 m 453 364 q 554 397 521 364 q 588 489 588 431 q 554 581 588 547 q 453 614 521 614 l 324 614 l 324 364 l 453 364 z "},"ß":{"ha":1056,"x_min":68,"x_max":989,"o":"m 68 742 q 116 911 68 838 q 253 1026 164 985 q 463 1067 342 1067 q 647 1033 567 1067 q 770 940 726 999 q 814 814 814 882 q 786 708 814 751 q 710 617 758 664 q 690 597 706 613 q 668 569 675 581 q 661 547 661 557 q 685 511 661 528 q 789 465 710 494 q 942 371 896 425 q 989 233 989 317 q 951 104 989 160 q 845 17 914 49 q 686 -14 776 -14 q 464 55 549 -14 q 363 251 379 124 l 581 251 q 613 183 586 208 q 682 158 639 158 q 740 174 719 158 q 760 219 760 189 q 736 273 760 251 q 644 318 713 294 q 474 403 525 361 q 424 508 424 446 q 445 585 424 551 q 510 664 467 618 q 561 726 544 701 q 578 778 578 750 q 543 845 578 821 q 450 869 508 869 q 340 832 376 869 q 304 725 304 794 l 304 0 l 68 0 l 68 742 z "},"à":{"ha":943,"x_min":39,"x_max":857,"o":"m 39 389 q 84 599 39 508 q 207 738 129 689 q 381 786 285 786 q 524 753 463 786 q 619 665 586 719 l 619 775 l 857 775 l 857 0 l 619 0 l 619 110 q 523 22 585 56 q 379 -11 461 -11 q 207 38 285 -11 q 84 178 129 88 q 39 389 39 269 m 619 388 q 570 528 619 476 q 450 579 521 579 q 330 528 379 579 q 281 389 281 478 q 330 248 281 300 q 450 196 379 196 q 570 247 521 196 q 619 388 619 299 m 638 992 l 638 828 l 303 968 l 303 1153 l 638 992 z "},"á":{"ha":943,"x_min":39,"x_max":857,"o":"m 39 389 q 84 599 39 508 q 207 738 129 689 q 381 786 285 786 q 524 753 463 786 q 619 665 586 719 l 619 775 l 857 775 l 857 0 l 619 0 l 619 110 q 523 22 585 56 q 379 -11 461 -11 q 207 38 285 -11 q 84 178 129 88 q 39 389 39 269 m 619 388 q 570 528 619 476 q 450 579 521 579 q 330 528 379 579 q 281 389 281 478 q 330 248 281 300 q 450 196 379 196 q 570 247 521 196 q 619 388 619 299 m 638 968 l 303 828 l 303 992 l 638 1153 l 638 968 z "},"â":{"ha":943,"x_min":39,"x_max":857,"o":"m 39 389 q 84 599 39 508 q 207 738 129 689 q 381 786 285 786 q 524 753 463 786 q 619 665 586 719 l 619 775 l 857 775 l 857 0 l 619 0 l 619 110 q 523 22 585 56 q 379 -11 461 -11 q 207 38 285 -11 q 84 178 129 88 q 39 389 39 269 m 619 388 q 570 528 619 476 q 450 579 521 579 q 330 528 379 579 q 281 389 281 478 q 330 248 281 300 q 450 196 379 196 q 570 247 521 196 q 619 388 619 299 m 476 942 l 261 828 l 261 992 l 476 1101 l 692 992 l 692 828 l 476 942 z "},"ã":{"ha":943,"x_min":39,"x_max":857,"o":"m 39 389 q 84 599 39 508 q 207 738 129 689 q 381 786 285 786 q 524 753 463 786 q 619 665 586 719 l 619 775 l 857 775 l 857 0 l 619 0 l 619 110 q 523 22 585 56 q 379 -11 461 -11 q 207 38 285 -11 q 84 178 129 88 q 39 389 39 269 m 619 388 q 570 528 619 476 q 450 579 521 579 q 330 528 379 579 q 281 389 281 478 q 330 248 281 300 q 450 196 379 196 q 570 247 521 196 q 619 388 619 299 m 199 840 q 390 1046 232 1046 q 444 1037 421 1046 q 500 1010 467 1028 q 540 990 525 996 q 572 983 556 983 q 632 1046 624 983 l 754 1046 q 563 840 721 840 q 509 849 532 840 q 453 876 486 858 q 413 897 428 890 q 381 903 397 903 q 319 840 329 903 l 199 840 z "},"ä":{"ha":943,"x_min":39,"x_max":857,"o":"m 39 389 q 84 599 39 508 q 207 738 129 689 q 381 786 285 786 q 524 753 463 786 q 619 665 586 719 l 619 775 l 857 775 l 857 0 l 619 0 l 619 110 q 523 22 585 56 q 379 -11 461 -11 q 207 38 285 -11 q 84 178 129 88 q 39 389 39 269 m 619 388 q 570 528 619 476 q 450 579 521 579 q 330 528 379 579 q 281 389 281 478 q 330 248 281 300 q 450 196 379 196 q 570 247 521 196 q 619 388 619 299 m 336 861 q 264 890 293 861 q 235 963 235 919 q 264 1035 235 1006 q 336 1065 293 1065 q 410 1036 381 1065 q 439 963 439 1007 q 409 890 439 919 q 336 861 379 861 m 614 861 q 542 890 571 861 q 513 963 513 919 q 542 1035 513 1006 q 614 1065 571 1065 q 688 1036 658 1065 q 717 963 717 1007 q 687 890 717 919 q 614 861 657 861 z "},"å":{"ha":943,"x_min":39,"x_max":857,"o":"m 39 389 q 84 599 39 508 q 207 738 129 689 q 381 786 285 786 q 524 753 463 786 q 619 665 586 719 l 619 775 l 857 775 l 857 0 l 619 0 l 619 110 q 523 22 585 56 q 379 -11 461 -11 q 207 38 285 -11 q 84 178 129 88 q 39 389 39 269 m 619 388 q 570 528 619 476 q 450 579 521 579 q 330 528 379 579 q 281 389 281 478 q 330 248 281 300 q 450 196 379 196 q 570 247 521 196 q 619 388 619 299 m 647 1000 q 598 878 647 924 q 476 832 549 832 q 356 878 404 832 q 307 1000 307 924 q 356 1122 307 1076 q 476 1168 404 1168 q 598 1122 549 1168 q 647 1000 647 1076 m 543 1000 q 524 1049 543 1031 q 476 1068 506 1068 q 430 1049 449 1068 q 411 1000 411 1031 q 430 951 411 971 q 476 932 449 932 q 524 951 506 932 q 543 1000 543 971 z "},"æ":{"ha":1485,"x_min":39,"x_max":1446,"o":"m 1446 401 q 1439 333 1446 372 l 864 333 q 920 218 874 257 q 1031 179 967 179 q 1122 200 1086 179 q 1174 257 1158 221 l 1426 257 q 1311 64 1397 139 q 1101 -11 1225 -11 q 952 22 1018 -11 q 849 111 886 54 l 849 0 l 622 0 l 622 111 q 522 22 585 56 q 381 -11 460 -11 q 207 38 285 -11 q 84 178 129 88 q 39 389 39 269 q 84 599 39 508 q 208 738 129 689 q 385 786 288 786 q 524 756 463 786 q 625 667 585 725 l 625 775 l 849 775 l 849 667 q 1101 786 933 786 q 1280 738 1201 786 q 1402 603 1358 690 q 1446 401 1446 515 m 1203 454 q 1154 558 1201 519 q 1036 596 1107 596 q 924 560 971 596 q 864 454 876 524 l 1203 454 m 450 196 q 570 247 521 196 q 619 388 619 299 q 570 528 619 476 q 450 579 521 579 q 330 528 379 579 q 281 389 281 478 q 330 248 281 300 q 450 196 379 196 z "},"ç":{"ha":840,"x_min":39,"x_max":800,"o":"m 424 192 q 547 281 515 192 l 800 281 q 694 88 774 163 q 497 -6 615 13 l 497 -57 q 624 -97 569 -57 q 678 -215 678 -136 q 621 -335 678 -294 q 485 -376 564 -376 l 271 -376 l 271 -246 l 453 -246 q 494 -237 481 -246 q 508 -210 508 -229 q 494 -183 508 -190 q 453 -175 481 -175 l 354 -175 l 354 -6 q 125 122 211 17 q 39 388 39 226 q 88 599 39 508 q 226 738 138 689 q 428 786 314 786 q 672 710 574 786 q 800 494 769 633 l 547 494 q 424 583 515 583 q 319 533 358 583 q 281 388 281 482 q 319 242 281 293 q 424 192 358 192 z "},"è":{"ha":856,"x_min":39,"x_max":817,"o":"m 817 400 q 813 331 817 367 l 275 331 q 322 220 281 258 q 422 182 363 182 q 546 257 511 182 l 799 257 q 728 119 779 181 q 601 24 678 58 q 431 -11 525 -11 q 228 38 317 -11 q 89 176 139 86 q 39 388 39 267 q 88 599 39 508 q 226 738 138 689 q 431 786 315 786 q 631 739 543 786 q 767 604 718 692 q 817 400 817 517 m 574 463 q 532 560 574 524 q 428 596 490 596 q 327 561 368 596 q 276 463 286 526 l 574 463 m 590 997 l 590 833 l 256 974 l 256 1158 l 590 997 z "},"é":{"ha":856,"x_min":39,"x_max":817,"o":"m 817 400 q 813 331 817 367 l 275 331 q 322 220 281 258 q 422 182 363 182 q 546 257 511 182 l 799 257 q 728 119 779 181 q 601 24 678 58 q 431 -11 525 -11 q 228 38 317 -11 q 89 176 139 86 q 39 388 39 267 q 88 599 39 508 q 226 738 138 689 q 431 786 315 786 q 631 739 543 786 q 767 604 718 692 q 817 400 817 517 m 574 463 q 532 560 574 524 q 428 596 490 596 q 327 561 368 596 q 276 463 286 526 l 574 463 m 590 974 l 256 833 l 256 997 l 590 1158 l 590 974 z "},"ê":{"ha":856,"x_min":39,"x_max":817,"o":"m 817 400 q 813 331 817 367 l 275 331 q 322 220 281 258 q 422 182 363 182 q 546 257 511 182 l 799 257 q 728 119 779 181 q 601 24 678 58 q 431 -11 525 -11 q 228 38 317 -11 q 89 176 139 86 q 39 388 39 267 q 88 599 39 508 q 226 738 138 689 q 431 786 315 786 q 631 739 543 786 q 767 604 718 692 q 817 400 817 517 m 574 463 q 532 560 574 524 q 428 596 490 596 q 327 561 368 596 q 276 463 286 526 l 574 463 m 428 947 l 213 833 l 213 997 l 428 1107 l 643 997 l 643 833 l 428 947 z "},"ë":{"ha":856,"x_min":39,"x_max":817,"o":"m 817 400 q 813 331 817 367 l 275 331 q 322 220 281 258 q 422 182 363 182 q 546 257 511 182 l 799 257 q 728 119 779 181 q 601 24 678 58 q 431 -11 525 -11 q 228 38 317 -11 q 89 176 139 86 q 39 388 39 267 q 88 599 39 508 q 226 738 138 689 q 431 786 315 786 q 631 739 543 786 q 767 604 718 692 q 817 400 817 517 m 574 463 q 532 560 574 524 q 428 596 490 596 q 327 561 368 596 q 276 463 286 526 l 574 463 m 288 867 q 215 896 244 867 q 186 968 186 925 q 215 1041 186 1011 q 288 1071 244 1071 q 361 1042 332 1071 q 390 968 390 1013 q 360 896 390 925 q 288 867 331 867 m 565 867 q 493 896 522 867 q 464 968 464 925 q 493 1041 464 1011 q 565 1071 522 1071 q 639 1042 610 1071 q 668 968 668 1013 q 638 896 668 925 q 565 867 608 867 z "},"ì":{"ha":446,"x_min":50,"x_max":385,"o":"m 342 775 l 342 0 l 104 0 l 104 775 l 342 775 m 385 992 l 385 828 l 50 968 l 50 1153 l 385 992 z "},"í":{"ha":446,"x_min":50,"x_max":385,"o":"m 342 775 l 342 0 l 104 0 l 104 775 l 342 775 m 385 968 l 50 828 l 50 992 l 385 1153 l 385 968 z "},"î":{"ha":446,"x_min":8,"x_max":439,"o":"m 342 775 l 342 0 l 104 0 l 104 775 l 342 775 m 224 942 l 8 828 l 8 992 l 224 1101 l 439 992 l 439 828 l 224 942 z "},"ï":{"ha":446,"x_min":-18,"x_max":464,"o":"m 342 775 l 342 0 l 104 0 l 104 775 l 342 775 m 83 861 q 11 890 40 861 q -18 963 -18 919 q 11 1035 -18 1006 q 83 1065 40 1065 q 157 1036 128 1065 q 186 963 186 1007 q 156 890 186 919 q 83 861 126 861 m 361 861 q 289 890 318 861 q 260 963 260 919 q 289 1035 260 1006 q 361 1065 318 1065 q 435 1036 406 1065 q 464 963 464 1007 q 434 890 464 919 q 361 861 404 861 z "},"ð":{"ha":889,"x_min":39,"x_max":850,"o":"m 681 913 q 806 687 761 807 q 850 440 850 567 q 797 196 850 297 q 651 42 743 94 q 446 -10 560 -10 q 240 40 333 -10 q 93 179 147 89 q 39 389 39 269 q 90 598 39 508 q 228 735 140 688 q 422 783 315 783 q 585 740 506 783 q 513 861 554 806 l 367 817 l 367 910 l 453 936 q 357 1028 407 985 l 575 1028 l 617 986 l 749 1026 l 749 933 l 681 913 m 446 193 q 560 243 513 193 q 607 388 607 293 q 558 531 607 482 q 444 581 510 581 q 330 531 378 581 q 282 388 282 482 q 331 243 282 293 q 446 193 379 193 z "},"ñ":{"ha":936,"x_min":86,"x_max":857,"o":"m 558 783 q 776 695 694 783 q 857 453 857 607 l 857 0 l 621 0 l 621 421 q 581 542 621 499 q 472 585 540 585 q 364 542 404 585 q 324 421 324 499 l 324 0 l 86 0 l 86 775 l 324 775 l 324 672 q 421 753 360 724 q 558 783 482 783 m 224 840 q 415 1046 257 1046 q 469 1037 446 1046 q 525 1010 492 1028 q 565 990 550 996 q 597 983 581 983 q 657 1046 649 983 l 779 1046 q 588 840 746 840 q 534 849 557 840 q 478 876 511 858 q 438 897 453 890 q 406 903 422 903 q 344 840 354 903 l 224 840 z "},"ò":{"ha":885,"x_min":39,"x_max":844,"o":"m 439 -11 q 234 38 325 -11 q 91 176 143 86 q 39 388 39 267 q 92 598 39 507 q 236 738 144 689 q 442 786 328 786 q 647 738 556 786 q 792 598 739 689 q 844 388 844 507 q 791 177 844 268 q 645 38 738 86 q 439 -11 553 -11 m 439 194 q 555 244 507 194 q 603 388 603 294 q 556 531 603 481 q 442 581 510 581 q 326 531 372 581 q 281 388 281 482 q 326 244 281 294 q 439 194 371 194 m 622 997 l 622 833 l 288 974 l 288 1158 l 622 997 z "},"ó":{"ha":885,"x_min":39,"x_max":844,"o":"m 439 -11 q 234 38 325 -11 q 91 176 143 86 q 39 388 39 267 q 92 598 39 507 q 236 738 144 689 q 442 786 328 786 q 647 738 556 786 q 792 598 739 689 q 844 388 844 507 q 791 177 844 268 q 645 38 738 86 q 439 -11 553 -11 m 439 194 q 555 244 507 194 q 603 388 603 294 q 556 531 603 481 q 442 581 510 581 q 326 531 372 581 q 281 388 281 482 q 326 244 281 294 q 439 194 371 194 m 622 974 l 288 833 l 288 997 l 622 1158 l 622 974 z "},"ô":{"ha":885,"x_min":39,"x_max":844,"o":"m 439 -11 q 234 38 325 -11 q 91 176 143 86 q 39 388 39 267 q 92 598 39 507 q 236 738 144 689 q 442 786 328 786 q 647 738 556 786 q 792 598 739 689 q 844 388 844 507 q 791 177 844 268 q 645 38 738 86 q 439 -11 553 -11 m 439 194 q 555 244 507 194 q 603 388 603 294 q 556 531 603 481 q 442 581 510 581 q 326 531 372 581 q 281 388 281 482 q 326 244 281 294 q 439 194 371 194 m 461 947 l 246 833 l 246 997 l 461 1107 l 676 997 l 676 833 l 461 947 z "},"õ":{"ha":885,"x_min":39,"x_max":844,"o":"m 439 -11 q 234 38 325 -11 q 91 176 143 86 q 39 388 39 267 q 92 598 39 507 q 236 738 144 689 q 442 786 328 786 q 647 738 556 786 q 792 598 739 689 q 844 388 844 507 q 791 177 844 268 q 645 38 738 86 q 439 -11 553 -11 m 439 194 q 555 244 507 194 q 603 388 603 294 q 556 531 603 481 q 442 581 510 581 q 326 531 372 581 q 281 388 281 482 q 326 244 281 294 q 439 194 371 194 m 182 846 q 374 1051 215 1051 q 427 1042 404 1051 q 483 1015 450 1033 q 524 995 508 1001 q 556 989 539 989 q 615 1051 607 989 l 738 1051 q 546 846 704 846 q 492 855 515 846 q 436 882 469 864 q 396 902 411 896 q 364 908 381 908 q 303 846 313 908 l 182 846 z "},"ö":{"ha":885,"x_min":39,"x_max":844,"o":"m 439 -11 q 234 38 325 -11 q 91 176 143 86 q 39 388 39 267 q 92 598 39 507 q 236 738 144 689 q 442 786 328 786 q 647 738 556 786 q 792 598 739 689 q 844 388 844 507 q 791 177 844 268 q 645 38 738 86 q 439 -11 553 -11 m 439 194 q 555 244 507 194 q 603 388 603 294 q 556 531 603 481 q 442 581 510 581 q 326 531 372 581 q 281 388 281 482 q 326 244 281 294 q 439 194 371 194 m 321 867 q 249 896 278 867 q 219 968 219 925 q 249 1041 219 1011 q 321 1071 278 1071 q 394 1042 365 1071 q 424 968 424 1013 q 394 896 424 925 q 321 867 364 867 m 599 867 q 526 896 556 867 q 497 968 497 925 q 526 1041 497 1011 q 599 1071 556 1071 q 672 1042 643 1071 q 701 968 701 1013 q 672 896 701 925 q 599 867 642 867 z "},"÷":{"ha":849,"x_min":74,"x_max":783,"o":"m 433 672 q 331 709 371 672 q 292 800 292 746 q 331 893 292 856 q 433 931 371 931 q 534 893 494 931 q 574 800 574 856 q 534 709 574 746 q 433 672 494 672 m 783 592 l 783 382 l 74 382 l 74 592 l 783 592 m 433 43 q 331 80 371 43 q 292 171 292 117 q 331 264 292 226 q 433 301 371 301 q 534 264 494 301 q 574 171 574 226 q 534 80 574 117 q 433 43 494 43 z "},"ø":{"ha":874,"x_min":18,"x_max":856,"o":"m 746 656 q 839 388 839 547 q 785 177 839 268 q 640 38 732 86 q 433 -11 547 -11 q 197 56 299 -11 l 146 0 l 18 0 l 126 118 q 33 388 33 226 q 86 598 33 507 q 231 738 139 689 q 436 786 322 786 q 675 718 574 786 l 728 775 l 856 775 l 746 656 m 275 388 q 290 297 275 336 l 525 553 q 436 581 488 581 q 321 531 367 581 q 275 388 275 482 m 597 388 q 582 476 597 438 l 347 219 q 433 194 385 194 q 549 244 501 194 q 597 388 597 294 z "},"ù":{"ha":936,"x_min":79,"x_max":851,"o":"m 851 775 l 851 0 l 614 0 l 614 106 q 516 23 578 54 q 379 -8 454 -8 q 222 31 290 -8 q 117 146 154 71 q 79 322 79 221 l 79 775 l 315 775 l 315 354 q 356 233 315 276 q 464 190 396 190 q 574 233 533 190 q 614 354 614 276 l 614 775 l 851 775 m 631 992 l 631 828 l 296 968 l 296 1153 l 631 992 z "},"ú":{"ha":936,"x_min":79,"x_max":851,"o":"m 851 775 l 851 0 l 614 0 l 614 106 q 516 23 578 54 q 379 -8 454 -8 q 222 31 290 -8 q 117 146 154 71 q 79 322 79 221 l 79 775 l 315 775 l 315 354 q 356 233 315 276 q 464 190 396 190 q 574 233 533 190 q 614 354 614 276 l 614 775 l 851 775 m 631 968 l 296 828 l 296 992 l 631 1153 l 631 968 z "},"û":{"ha":936,"x_min":79,"x_max":851,"o":"m 851 775 l 851 0 l 614 0 l 614 106 q 516 23 578 54 q 379 -8 454 -8 q 222 31 290 -8 q 117 146 154 71 q 79 322 79 221 l 79 775 l 315 775 l 315 354 q 356 233 315 276 q 464 190 396 190 q 574 233 533 190 q 614 354 614 276 l 614 775 l 851 775 m 469 942 l 254 828 l 254 992 l 469 1101 l 685 992 l 685 828 l 469 942 z "},"ü":{"ha":936,"x_min":79,"x_max":851,"o":"m 851 775 l 851 0 l 614 0 l 614 106 q 516 23 578 54 q 379 -8 454 -8 q 222 31 290 -8 q 117 146 154 71 q 79 322 79 221 l 79 775 l 315 775 l 315 354 q 356 233 315 276 q 464 190 396 190 q 574 233 533 190 q 614 354 614 276 l 614 775 l 851 775 m 329 861 q 257 890 286 861 q 228 963 228 919 q 257 1035 228 1006 q 329 1065 286 1065 q 403 1036 374 1065 q 432 963 432 1007 q 402 890 432 919 q 329 861 372 861 m 607 861 q 535 890 564 861 q 506 963 506 919 q 535 1035 506 1006 q 607 1065 564 1065 q 681 1036 651 1065 q 710 963 710 1007 q 680 890 710 919 q 607 861 650 861 z "},"ý":{"ha":878,"x_min":-1,"x_max":878,"o":"m 878 775 l 392 -368 l 136 -368 l 314 26 l -1 775 l 264 775 l 443 290 l 621 775 l 878 775 m 600 968 l 265 828 l 265 992 l 600 1153 l 600 968 z "},"þ":{"ha":943,"x_min":86,"x_max":904,"o":"m 324 674 q 551 783 403 783 q 728 733 647 783 q 857 592 810 682 q 904 386 904 501 q 857 181 904 271 q 728 40 810 90 q 551 -10 647 -10 q 324 113 407 -10 l 324 -369 l 86 -369 l 86 1028 l 324 1028 l 324 674 m 663 386 q 638 492 663 449 q 574 556 614 535 q 493 578 535 578 q 411 556 450 578 q 348 492 372 535 q 324 388 324 450 q 348 282 324 325 q 412 217 372 239 q 493 196 451 196 q 575 217 536 196 q 638 281 614 239 q 663 386 663 324 z "},"ÿ":{"ha":878,"x_min":-1,"x_max":878,"o":"m 878 775 l 392 -368 l 136 -368 l 314 26 l -1 775 l 264 775 l 443 290 l 621 775 l 878 775 m 299 861 q 226 890 256 861 q 197 963 197 919 q 226 1035 197 1006 q 299 1065 256 1065 q 372 1036 343 1065 q 401 963 401 1007 q 372 890 401 919 q 299 861 342 861 m 576 861 q 504 890 533 861 q 475 963 475 919 q 504 1035 475 1006 q 576 1065 533 1065 q 650 1036 621 1065 q 679 963 679 1007 q 649 890 679 919 q 576 861 619 861 z "},"Ā":{"ha":1024,"x_min":22,"x_max":1003,"o":"m 693 172 l 329 172 l 271 0 l 22 0 l 375 975 l 650 975 l 1003 0 l 751 0 l 693 172 m 632 356 l 511 713 l 392 356 l 632 356 m 790 1239 l 790 1075 l 235 1075 l 235 1239 l 790 1239 z "},"ā":{"ha":943,"x_min":39,"x_max":857,"o":"m 39 389 q 84 599 39 508 q 207 738 129 689 q 381 786 285 786 q 524 753 463 786 q 619 665 586 719 l 619 775 l 857 775 l 857 0 l 619 0 l 619 110 q 523 22 585 56 q 379 -11 461 -11 q 207 38 285 -11 q 84 178 129 88 q 39 389 39 269 m 619 388 q 570 528 619 476 q 450 579 521 579 q 330 528 379 579 q 281 389 281 478 q 330 248 281 300 q 450 196 379 196 q 570 247 521 196 q 619 388 619 299 m 754 1036 l 754 872 l 199 872 l 199 1036 l 754 1036 z "},"Ă":{"ha":1024,"x_min":22,"x_max":1003,"o":"m 693 172 l 329 172 l 271 0 l 22 0 l 375 975 l 650 975 l 1003 0 l 751 0 l 693 172 m 632 356 l 511 713 l 392 356 l 632 356 m 750 1274 q 685 1097 750 1160 q 513 1035 619 1035 q 341 1098 406 1035 q 276 1275 276 1161 l 276 1301 l 394 1301 q 421 1232 394 1256 q 513 1208 447 1208 q 604 1232 578 1208 q 631 1301 631 1256 l 750 1301 l 750 1274 z "},"ă":{"ha":943,"x_min":39,"x_max":857,"o":"m 39 389 q 84 599 39 508 q 207 738 129 689 q 381 786 285 786 q 524 753 463 786 q 619 665 586 719 l 619 775 l 857 775 l 857 0 l 619 0 l 619 110 q 523 22 585 56 q 379 -11 461 -11 q 207 38 285 -11 q 84 178 129 88 q 39 389 39 269 m 619 388 q 570 528 619 476 q 450 579 521 579 q 330 528 379 579 q 281 389 281 478 q 330 248 281 300 q 450 196 379 196 q 570 247 521 196 q 619 388 619 299 m 714 1071 q 649 894 714 957 q 476 832 583 832 q 305 895 369 832 q 240 1072 240 958 l 240 1099 l 358 1099 q 385 1029 358 1053 q 476 1006 411 1006 q 568 1029 542 1006 q 594 1099 594 1053 l 714 1099 l 714 1071 z "},"Ą":{"ha":1024,"x_min":22,"x_max":1013,"o":"m 908 -168 q 1013 -147 953 -168 l 1013 -281 q 875 -301 946 -301 q 728 -260 785 -301 q 671 -139 671 -218 q 689 -60 671 -96 q 749 8 707 -25 l 693 172 l 329 172 l 271 0 l 22 0 l 375 975 l 650 975 l 1003 0 l 938 -31 q 866 -75 886 -54 q 846 -119 846 -96 q 862 -156 846 -143 q 908 -168 878 -168 m 632 356 l 511 713 l 392 356 l 632 356 z "},"ą":{"ha":943,"x_min":39,"x_max":867,"o":"m 761 -168 q 867 -147 808 -168 l 867 -281 q 731 -301 801 -301 q 583 -260 640 -301 q 525 -143 525 -219 q 547 -60 525 -99 q 619 14 568 -22 l 619 110 q 523 22 585 56 q 379 -11 461 -11 q 207 38 285 -11 q 84 178 129 88 q 39 389 39 269 q 84 599 39 508 q 207 738 129 689 q 381 786 285 786 q 524 753 463 786 q 619 665 586 719 l 619 775 l 857 775 l 857 0 l 793 -32 q 721 -78 742 -58 q 700 -122 700 -99 q 716 -156 700 -143 q 761 -168 732 -168 m 450 196 q 570 247 521 196 q 619 388 619 299 q 570 528 619 476 q 450 579 521 579 q 330 528 379 579 q 281 389 281 478 q 330 248 281 300 q 450 196 379 196 z "},"Ć":{"ha":1058,"x_min":46,"x_max":999,"o":"m 46 489 q 108 747 46 633 q 283 923 171 860 q 536 986 394 986 q 833 894 710 986 q 999 644 957 803 l 738 644 q 655 738 708 706 q 533 769 601 769 q 356 693 424 769 q 288 489 288 617 q 356 285 288 361 q 533 208 424 208 q 655 240 601 208 q 738 333 708 272 l 999 333 q 833 84 957 175 q 536 -7 710 -7 q 283 56 394 -7 q 108 232 171 119 q 46 489 46 344 m 694 1176 l 360 1036 l 360 1200 l 694 1361 l 694 1176 z "},"ć":{"ha":840,"x_min":39,"x_max":800,"o":"m 39 388 q 88 599 39 508 q 226 738 138 689 q 428 786 314 786 q 672 710 574 786 q 800 494 769 633 l 547 494 q 424 583 515 583 q 319 533 358 583 q 281 388 281 482 q 319 242 281 293 q 424 192 358 192 q 547 281 515 192 l 800 281 q 671 67 769 144 q 428 -11 572 -11 q 226 38 314 -11 q 88 176 138 86 q 39 388 39 267 m 578 968 l 243 828 l 243 992 l 578 1153 l 578 968 z "},"Ċ":{"ha":1058,"x_min":46,"x_max":999,"o":"m 46 489 q 108 747 46 633 q 283 923 171 860 q 536 986 394 986 q 833 894 710 986 q 999 644 957 803 l 738 644 q 655 738 708 706 q 533 769 601 769 q 356 693 424 769 q 288 489 288 617 q 356 285 288 361 q 533 208 424 208 q 655 240 601 208 q 738 333 708 272 l 999 333 q 833 84 957 175 q 536 -7 710 -7 q 283 56 394 -7 q 108 232 171 119 q 46 489 46 344 m 532 1069 q 460 1099 489 1069 q 431 1171 431 1128 q 460 1244 431 1214 q 532 1274 489 1274 q 606 1244 576 1274 q 635 1171 635 1215 q 605 1099 635 1128 q 532 1069 575 1069 z "},"ċ":{"ha":840,"x_min":39,"x_max":800,"o":"m 39 388 q 88 599 39 508 q 226 738 138 689 q 428 786 314 786 q 672 710 574 786 q 800 494 769 633 l 547 494 q 424 583 515 583 q 319 533 358 583 q 281 388 281 482 q 319 242 281 293 q 424 192 358 192 q 547 281 515 192 l 800 281 q 671 67 769 144 q 428 -11 572 -11 q 226 38 314 -11 q 88 176 138 86 q 39 388 39 267 m 414 861 q 342 890 371 861 q 313 963 313 919 q 342 1035 313 1006 q 414 1065 371 1065 q 488 1036 458 1065 q 517 963 517 1007 q 487 890 517 919 q 414 861 457 861 z "},"Č":{"ha":1058,"x_min":46,"x_max":999,"o":"m 46 489 q 108 747 46 633 q 283 923 171 860 q 536 986 394 986 q 833 894 710 986 q 999 644 957 803 l 738 644 q 655 738 708 706 q 533 769 601 769 q 356 693 424 769 q 288 489 288 617 q 356 285 288 361 q 533 208 424 208 q 655 240 601 208 q 738 333 708 272 l 999 333 q 833 84 957 175 q 536 -7 710 -7 q 283 56 394 -7 q 108 232 171 119 q 46 489 46 344 m 749 1146 l 533 1036 l 318 1146 l 318 1310 l 533 1189 l 749 1310 l 749 1146 z "},"č":{"ha":840,"x_min":39,"x_max":800,"o":"m 39 388 q 88 599 39 508 q 226 738 138 689 q 428 786 314 786 q 672 710 574 786 q 800 494 769 633 l 547 494 q 424 583 515 583 q 319 533 358 583 q 281 388 281 482 q 319 242 281 293 q 424 192 358 192 q 547 281 515 192 l 800 281 q 671 67 769 144 q 428 -11 572 -11 q 226 38 314 -11 q 88 176 138 86 q 39 388 39 267 m 631 938 l 415 828 l 200 938 l 200 1101 l 415 981 l 631 1101 l 631 938 z "},"Ď":{"ha":1010,"x_min":86,"x_max":963,"o":"m 451 975 q 721 914 606 975 q 899 742 836 853 q 963 488 963 632 q 899 233 963 344 q 720 61 836 122 q 451 0 604 0 l 86 0 l 86 975 l 451 975 m 436 206 q 646 279 571 206 q 721 488 721 353 q 646 697 721 622 q 436 772 571 772 l 324 772 l 324 206 l 436 206 m 711 1140 l 496 1031 l 281 1140 l 281 1304 l 496 1183 l 711 1304 l 711 1140 z "},"ď":{"ha":1158,"x_min":39,"x_max":1144,"o":"m 39 389 q 84 599 39 508 q 207 738 129 689 q 381 786 285 786 q 520 754 457 786 q 619 668 583 722 l 619 1028 l 857 1028 l 857 0 l 619 0 l 619 111 q 524 22 586 56 q 381 -11 463 -11 q 207 38 285 -11 q 84 178 129 88 q 39 389 39 269 m 1117 1028 q 1144 864 1144 944 q 1095 710 1144 767 q 950 653 1046 653 l 950 743 q 1022 835 1022 743 l 1022 857 l 935 857 l 935 1028 l 1117 1028 m 619 388 q 570 528 619 476 q 450 579 521 579 q 330 528 379 579 q 281 389 281 478 q 330 248 281 300 q 450 196 379 196 q 570 247 521 196 q 619 388 619 299 z "},"Đ":{"ha":1017,"x_min":6,"x_max":969,"o":"m 458 975 q 728 914 613 975 q 907 742 844 853 q 969 488 969 632 q 907 233 969 344 q 728 61 844 122 q 458 0 613 0 l 93 0 l 93 389 l 6 389 l 6 586 l 93 586 l 93 975 l 458 975 m 444 203 q 653 278 578 203 q 728 488 728 353 q 653 697 728 622 q 444 772 578 772 l 332 772 l 332 586 l 543 586 l 543 389 l 332 389 l 332 203 l 444 203 z "},"đ":{"ha":961,"x_min":39,"x_max":943,"o":"m 943 821 l 857 821 l 857 0 l 619 0 l 619 111 q 524 22 586 56 q 381 -11 463 -11 q 207 38 285 -11 q 84 178 129 88 q 39 389 39 269 q 84 599 39 508 q 207 738 129 689 q 381 786 285 786 q 520 754 457 786 q 619 668 583 722 l 619 821 l 522 821 l 522 935 l 619 935 l 619 1028 l 857 1028 l 857 935 l 943 935 l 943 821 m 450 196 q 570 247 521 196 q 619 388 619 299 q 570 528 619 476 q 450 579 521 579 q 330 528 379 579 q 281 389 281 478 q 330 248 281 300 q 450 196 379 196 z "},"Ē":{"ha":751,"x_min":86,"x_max":683,"o":"m 324 785 l 324 588 l 642 588 l 642 404 l 324 404 l 324 190 l 683 190 l 683 0 l 86 0 l 86 975 l 683 975 l 683 785 l 324 785 m 657 1239 l 657 1075 l 101 1075 l 101 1239 l 657 1239 z "},"ē":{"ha":856,"x_min":39,"x_max":817,"o":"m 817 400 q 813 331 817 367 l 275 331 q 322 220 281 258 q 422 182 363 182 q 546 257 511 182 l 799 257 q 728 119 779 181 q 601 24 678 58 q 431 -11 525 -11 q 228 38 317 -11 q 89 176 139 86 q 39 388 39 267 q 88 599 39 508 q 226 738 138 689 q 431 786 315 786 q 631 739 543 786 q 767 604 718 692 q 817 400 817 517 m 574 463 q 532 560 574 524 q 428 596 490 596 q 327 561 368 596 q 276 463 286 526 l 574 463 m 707 1042 l 707 878 l 151 878 l 151 1042 l 707 1042 z "},"Ĕ":{"ha":751,"x_min":86,"x_max":683,"o":"m 324 785 l 324 588 l 642 588 l 642 404 l 324 404 l 324 190 l 683 190 l 683 0 l 86 0 l 86 975 l 683 975 l 683 785 l 324 785 m 615 1274 q 550 1097 615 1160 q 378 1035 485 1035 q 206 1098 271 1035 q 142 1275 142 1161 l 142 1301 l 260 1301 q 286 1232 260 1256 q 378 1208 313 1208 q 469 1232 443 1208 q 496 1301 496 1256 l 615 1301 l 615 1274 z "},"ĕ":{"ha":856,"x_min":39,"x_max":817,"o":"m 817 400 q 813 331 817 367 l 275 331 q 322 220 281 258 q 422 182 363 182 q 546 257 511 182 l 799 257 q 728 119 779 181 q 601 24 678 58 q 431 -11 525 -11 q 228 38 317 -11 q 89 176 139 86 q 39 388 39 267 q 88 599 39 508 q 226 738 138 689 q 431 786 315 786 q 631 739 543 786 q 767 604 718 692 q 817 400 817 517 m 574 463 q 532 560 574 524 q 428 596 490 596 q 327 561 368 596 q 276 463 286 526 l 574 463 m 665 1076 q 600 900 665 963 q 428 838 535 838 q 256 901 321 838 q 192 1078 192 964 l 192 1104 l 310 1104 q 336 1035 310 1058 q 428 1011 363 1011 q 519 1035 493 1011 q 546 1104 546 1058 l 665 1104 l 665 1076 z "},"Ė":{"ha":751,"x_min":86,"x_max":683,"o":"m 324 785 l 324 588 l 642 588 l 642 404 l 324 404 l 324 190 l 683 190 l 683 0 l 86 0 l 86 975 l 683 975 l 683 785 l 324 785 m 376 1064 q 304 1093 333 1064 q 275 1165 275 1122 q 304 1238 275 1208 q 376 1268 333 1268 q 450 1239 421 1268 q 479 1165 479 1210 q 449 1093 479 1122 q 376 1064 419 1064 z "},"ė":{"ha":856,"x_min":39,"x_max":817,"o":"m 817 400 q 813 331 817 367 l 275 331 q 322 220 281 258 q 422 182 363 182 q 546 257 511 182 l 799 257 q 728 119 779 181 q 601 24 678 58 q 431 -11 525 -11 q 228 38 317 -11 q 89 176 139 86 q 39 388 39 267 q 88 599 39 508 q 226 738 138 689 q 431 786 315 786 q 631 739 543 786 q 767 604 718 692 q 817 400 817 517 m 574 463 q 532 560 574 524 q 428 596 490 596 q 327 561 368 596 q 276 463 286 526 l 574 463 m 426 867 q 354 896 383 867 q 325 968 325 925 q 354 1041 325 1011 q 426 1071 383 1071 q 500 1042 471 1071 q 529 968 529 1013 q 499 896 529 925 q 426 867 469 867 z "},"Ę":{"ha":751,"x_min":86,"x_max":693,"o":"m 588 -168 q 693 -147 635 -168 l 693 -281 q 557 -301 628 -301 q 409 -260 467 -301 q 351 -143 351 -219 q 369 -68 351 -103 q 428 0 386 -33 l 86 0 l 86 975 l 683 975 l 683 785 l 324 785 l 324 588 l 642 588 l 642 404 l 324 404 l 324 190 l 683 190 l 683 0 l 619 -32 q 547 -78 568 -58 q 526 -122 526 -99 q 542 -156 526 -143 q 588 -168 558 -168 z "},"ę":{"ha":856,"x_min":39,"x_max":817,"o":"m 817 400 q 813 331 817 367 l 275 331 q 322 220 281 258 q 422 182 363 182 q 546 257 511 182 l 799 257 q 710 99 776 167 q 549 4 644 32 l 506 -17 q 433 -63 454 -43 q 413 -107 413 -83 q 428 -140 413 -128 q 474 -153 444 -153 q 579 -132 521 -153 l 579 -265 q 443 -286 514 -286 q 295 -245 353 -286 q 238 -128 238 -204 q 303 7 238 -51 q 110 142 182 42 q 39 388 39 242 q 88 599 39 508 q 226 738 138 689 q 431 786 315 786 q 631 739 543 786 q 767 604 718 692 q 817 400 817 517 m 574 463 q 532 560 574 524 q 428 596 490 596 q 327 561 368 596 q 276 463 286 526 l 574 463 z "},"Ě":{"ha":751,"x_min":86,"x_max":683,"o":"m 324 785 l 324 588 l 642 588 l 642 404 l 324 404 l 324 190 l 683 190 l 683 0 l 86 0 l 86 975 l 683 975 l 683 785 l 324 785 m 593 1140 l 378 1031 l 163 1140 l 163 1304 l 378 1183 l 593 1304 l 593 1140 z "},"ě":{"ha":856,"x_min":39,"x_max":817,"o":"m 817 400 q 813 331 817 367 l 275 331 q 322 220 281 258 q 422 182 363 182 q 546 257 511 182 l 799 257 q 728 119 779 181 q 601 24 678 58 q 431 -11 525 -11 q 228 38 317 -11 q 89 176 139 86 q 39 388 39 267 q 88 599 39 508 q 226 738 138 689 q 431 786 315 786 q 631 739 543 786 q 767 604 718 692 q 817 400 817 517 m 574 463 q 532 560 574 524 q 428 596 490 596 q 327 561 368 596 q 276 463 286 526 l 574 463 m 643 943 l 428 833 l 213 943 l 213 1107 l 428 986 l 643 1107 l 643 943 z "},"Ğ":{"ha":1058,"x_min":46,"x_max":1013,"o":"m 733 667 q 658 741 707 715 q 542 767 608 767 q 357 691 426 767 q 288 489 288 615 q 360 278 288 354 q 561 203 433 203 q 709 247 649 203 q 797 375 769 292 l 496 375 l 496 550 l 1013 550 l 1013 329 q 923 164 986 240 q 763 40 860 88 q 543 -7 665 -7 q 285 56 399 -7 q 109 232 172 119 q 46 489 46 344 q 109 747 46 633 q 285 923 172 860 q 542 986 397 986 q 837 901 717 986 q 996 667 957 817 l 733 667 m 767 1274 q 701 1097 767 1160 q 529 1035 636 1035 q 358 1098 422 1035 q 293 1275 293 1161 l 293 1301 l 411 1301 q 438 1232 411 1256 q 529 1208 464 1208 q 621 1232 594 1208 q 647 1301 647 1256 l 767 1301 l 767 1274 z "},"ğ":{"ha":943,"x_min":39,"x_max":857,"o":"m 381 786 q 524 753 463 786 q 619 665 586 719 l 619 775 l 857 775 l 857 1 q 815 -192 857 -106 q 685 -331 772 -279 q 469 -382 599 -382 q 190 -301 297 -382 q 68 -81 83 -219 l 303 -81 q 356 -151 314 -125 q 458 -176 397 -176 q 576 -134 532 -176 q 619 1 619 -92 l 619 111 q 524 23 585 57 q 381 -11 463 -11 q 207 38 285 -11 q 84 178 129 88 q 39 389 39 269 q 84 599 39 508 q 207 738 129 689 q 381 786 285 786 m 619 388 q 570 528 619 476 q 450 579 521 579 q 330 528 379 579 q 281 389 281 478 q 330 248 281 300 q 450 196 379 196 q 570 247 521 196 q 619 388 619 299 m 714 1071 q 649 894 714 957 q 476 832 583 832 q 305 895 369 832 q 240 1072 240 958 l 240 1099 l 358 1099 q 385 1029 358 1053 q 476 1006 411 1006 q 568 1029 542 1006 q 594 1099 594 1053 l 714 1099 l 714 1071 z "},"Ġ":{"ha":1058,"x_min":46,"x_max":1013,"o":"m 733 667 q 658 741 707 715 q 542 767 608 767 q 357 691 426 767 q 288 489 288 615 q 360 278 288 354 q 561 203 433 203 q 709 247 649 203 q 797 375 769 292 l 496 375 l 496 550 l 1013 550 l 1013 329 q 923 164 986 240 q 763 40 860 88 q 543 -7 665 -7 q 285 56 399 -7 q 109 232 172 119 q 46 489 46 344 q 109 747 46 633 q 285 923 172 860 q 542 986 397 986 q 837 901 717 986 q 996 667 957 817 l 733 667 m 528 1064 q 456 1093 485 1064 q 426 1165 426 1122 q 456 1238 426 1208 q 528 1268 485 1268 q 601 1239 572 1268 q 631 1165 631 1210 q 601 1093 631 1122 q 528 1064 571 1064 z "},"ġ":{"ha":943,"x_min":39,"x_max":857,"o":"m 381 786 q 524 753 463 786 q 619 665 586 719 l 619 775 l 857 775 l 857 1 q 815 -192 857 -106 q 685 -331 772 -279 q 469 -382 599 -382 q 190 -301 297 -382 q 68 -81 83 -219 l 303 -81 q 356 -151 314 -125 q 458 -176 397 -176 q 576 -134 532 -176 q 619 1 619 -92 l 619 111 q 524 23 585 57 q 381 -11 463 -11 q 207 38 285 -11 q 84 178 129 88 q 39 389 39 269 q 84 599 39 508 q 207 738 129 689 q 381 786 285 786 m 619 388 q 570 528 619 476 q 450 579 521 579 q 330 528 379 579 q 281 389 281 478 q 330 248 281 300 q 450 196 379 196 q 570 247 521 196 q 619 388 619 299 m 475 861 q 403 890 432 861 q 374 963 374 919 q 403 1035 374 1006 q 475 1065 432 1065 q 549 1036 519 1065 q 578 963 578 1007 q 548 890 578 919 q 475 861 518 861 z "},"Ģ":{"ha":1061,"x_min":46,"x_max":1013,"o":"m 733 667 q 658 741 707 715 q 542 767 608 767 q 357 691 426 767 q 288 489 288 615 q 360 278 288 354 q 561 203 433 203 q 709 247 649 203 q 797 375 769 292 l 496 375 l 496 550 l 1013 550 l 1013 329 q 923 164 986 240 q 763 40 860 88 q 543 -7 665 -7 q 285 56 399 -7 q 109 232 172 119 q 46 489 46 344 q 109 747 46 633 q 285 923 172 860 q 542 986 397 986 q 837 901 717 986 q 996 667 957 817 l 733 667 m 618 -56 q 646 -219 646 -139 q 597 -374 646 -317 q 451 -431 547 -431 l 451 -340 q 524 -249 524 -340 l 524 -226 l 436 -226 l 436 -56 l 618 -56 z "},"ģ":{"ha":943,"x_min":39,"x_max":857,"o":"m 397 831 q 369 994 369 914 q 419 1149 369 1092 q 564 1206 468 1206 l 564 1115 q 492 1024 492 1115 l 492 1001 l 579 1001 l 579 831 l 397 831 m 381 786 q 524 753 463 786 q 619 665 586 719 l 619 775 l 857 775 l 857 1 q 815 -192 857 -106 q 685 -331 772 -279 q 469 -382 599 -382 q 190 -301 297 -382 q 68 -81 83 -219 l 303 -81 q 356 -151 314 -125 q 458 -176 397 -176 q 576 -134 532 -176 q 619 1 619 -92 l 619 111 q 524 23 585 57 q 381 -11 463 -11 q 207 38 285 -11 q 84 178 129 88 q 39 389 39 269 q 84 599 39 508 q 207 738 129 689 q 381 786 285 786 m 619 388 q 570 528 619 476 q 450 579 521 579 q 330 528 379 579 q 281 389 281 478 q 330 248 281 300 q 450 196 379 196 q 570 247 521 196 q 619 388 619 299 z "},"Ĩ":{"ha":410,"x_min":-72,"x_max":483,"o":"m 324 975 l 324 0 l 86 0 l 86 975 l 324 975 m -72 1043 q 119 1249 -39 1249 q 173 1240 150 1249 q 229 1213 196 1231 q 269 1192 254 1199 q 301 1186 285 1186 q 361 1249 353 1186 l 483 1249 q 292 1043 450 1043 q 238 1052 261 1043 q 182 1079 215 1061 q 142 1099 157 1093 q 110 1106 126 1106 q 49 1043 58 1106 l -72 1043 z "},"ĩ":{"ha":446,"x_min":-54,"x_max":501,"o":"m 342 775 l 342 0 l 104 0 l 104 775 l 342 775 m -54 840 q 138 1046 -21 1046 q 191 1037 168 1046 q 247 1010 214 1028 q 288 990 272 996 q 319 983 303 983 q 379 1046 371 983 l 501 1046 q 310 840 468 840 q 256 849 279 840 q 200 876 233 858 q 160 897 175 890 q 128 903 144 903 q 67 840 76 903 l -54 840 z "},"Ī":{"ha":410,"x_min":-72,"x_max":483,"o":"m 324 975 l 324 0 l 86 0 l 86 975 l 324 975 m 483 1239 l 483 1075 l -72 1075 l -72 1239 l 483 1239 z "},"ī":{"ha":446,"x_min":-54,"x_max":501,"o":"m 342 775 l 342 0 l 104 0 l 104 775 l 342 775 m 501 1036 l 501 872 l -54 872 l -54 1036 l 501 1036 z "},"Ĭ":{"ha":410,"x_min":-31,"x_max":443,"o":"m 324 975 l 324 0 l 86 0 l 86 975 l 324 975 m 443 1274 q 378 1097 443 1160 q 206 1035 313 1035 q 34 1098 99 1035 q -31 1275 -31 1161 l -31 1301 l 88 1301 q 114 1232 88 1256 q 206 1208 140 1208 q 297 1232 271 1208 q 324 1301 324 1256 l 443 1301 l 443 1274 z "},"ĭ":{"ha":446,"x_min":-12,"x_max":461,"o":"m 342 775 l 342 0 l 104 0 l 104 775 l 342 775 m 461 1071 q 396 894 461 957 q 224 832 331 832 q 52 895 117 832 q -12 1072 -12 958 l -12 1099 l 106 1099 q 132 1029 106 1053 q 224 1006 158 1006 q 315 1029 289 1006 q 342 1099 342 1053 l 461 1099 l 461 1071 z "},"Į":{"ha":410,"x_min":-8,"x_max":333,"o":"m 228 -168 q 333 -147 275 -168 l 333 -281 q 197 -301 268 -301 q 49 -260 107 -301 q -8 -143 -8 -219 q 13 -60 -8 -99 q 86 14 35 -22 l 86 975 l 324 975 l 324 0 l 260 -32 q 188 -78 208 -58 q 167 -122 167 -99 q 183 -156 167 -143 q 228 -168 199 -168 z "},"į":{"ha":410,"x_min":-8,"x_max":346,"o":"m 206 856 q 103 892 143 856 q 64 983 64 929 q 103 1076 64 1039 q 206 1113 143 1113 q 306 1076 267 1113 q 346 983 346 1039 q 306 892 346 929 q 206 856 267 856 m 167 -122 q 183 -156 167 -143 q 228 -168 199 -168 q 333 -147 275 -168 l 333 -281 q 197 -301 268 -301 q 49 -260 107 -301 q -8 -143 -8 -219 q 13 -60 -8 -99 q 86 14 35 -22 l 86 775 l 324 775 l 324 0 l 260 -32 q 188 -78 208 -58 q 167 -122 167 -99 z "},"İ":{"ha":410,"x_min":86,"x_max":324,"o":"m 324 975 l 324 0 l 86 0 l 86 975 l 324 975 m 204 1064 q 132 1093 161 1064 q 103 1165 103 1122 q 132 1238 103 1208 q 204 1268 161 1268 q 278 1239 249 1268 q 307 1165 307 1210 q 277 1093 307 1122 q 204 1064 247 1064 z "},"ı":{"ha":446,"x_min":104,"x_max":342,"o":"m 342 775 l 342 0 l 104 0 l 104 775 l 342 775 z "},"Ķ":{"ha":1000,"x_min":86,"x_max":942,"o":"m 942 0 l 651 0 l 324 431 l 324 0 l 86 0 l 86 975 l 324 975 l 324 547 l 649 975 l 928 975 l 550 497 l 942 0 m 588 -56 q 615 -219 615 -139 q 566 -374 615 -317 q 421 -431 517 -431 l 421 -340 q 493 -249 493 -340 l 493 -226 l 406 -226 l 406 -56 l 588 -56 z "},"ķ":{"ha":858,"x_min":86,"x_max":854,"o":"m 854 0 l 560 0 l 324 325 l 324 0 l 86 0 l 86 1028 l 324 1028 l 324 460 l 558 775 l 851 775 l 529 386 l 854 0 m 521 -56 q 547 -219 547 -140 q 498 -374 547 -317 q 353 -431 449 -431 l 353 -340 q 426 -249 426 -340 l 426 -226 l 339 -226 l 339 -56 l 521 -56 z "},"Ĺ":{"ha":663,"x_min":86,"x_max":635,"o":"m 324 183 l 635 183 l 635 0 l 86 0 l 86 975 l 324 975 l 324 183 m 476 1171 l 142 1031 l 142 1194 l 476 1356 l 476 1171 z "},"ĺ":{"ha":410,"x_min":32,"x_max":367,"o":"m 324 1028 l 324 0 l 86 0 l 86 1028 l 324 1028 m 367 1221 l 32 1081 l 32 1244 l 367 1406 l 367 1221 z "},"Ļ":{"ha":665,"x_min":86,"x_max":635,"o":"m 324 183 l 635 183 l 635 0 l 86 0 l 86 975 l 324 975 l 324 183 m 463 -56 q 490 -219 490 -139 q 441 -374 490 -317 q 296 -431 392 -431 l 296 -340 q 368 -249 368 -340 l 368 -226 l 281 -226 l 281 -56 l 463 -56 z "},"ļ":{"ha":410,"x_min":86,"x_max":325,"o":"m 324 1028 l 324 0 l 86 0 l 86 1028 l 324 1028 m 297 -56 q 325 -219 325 -139 q 276 -374 325 -317 q 131 -431 226 -431 l 131 -340 q 203 -249 203 -340 l 203 -226 l 115 -226 l 115 -56 l 297 -56 z "},"Ľ":{"ha":726,"x_min":86,"x_max":675,"o":"m 324 183 l 635 183 l 635 0 l 86 0 l 86 975 l 324 975 l 324 183 m 647 975 q 675 811 675 892 q 626 657 675 714 q 481 600 576 600 l 481 690 q 553 782 553 690 l 553 804 l 465 804 l 465 975 l 647 975 z "},"ľ":{"ha":658,"x_min":86,"x_max":622,"o":"m 324 1028 l 324 0 l 86 0 l 86 1028 l 324 1028 m 596 1028 q 622 864 622 949 q 574 710 622 767 q 429 653 525 653 l 429 743 q 501 835 501 743 l 501 857 l 414 857 l 414 1028 l 596 1028 z "},"Ŀ":{"ha":663,"x_min":86,"x_max":638,"o":"m 86 975 l 324 975 l 324 183 l 635 183 l 635 0 l 86 0 l 86 975 m 535 446 q 463 475 492 446 q 433 549 433 504 q 463 622 433 593 q 535 651 492 651 q 608 622 579 651 q 638 549 638 593 q 608 476 638 506 q 535 446 579 446 z "},"ŀ":{"ha":529,"x_min":86,"x_max":571,"o":"m 86 1028 l 324 1028 l 324 0 l 86 0 l 86 1028 m 468 403 q 395 432 425 403 q 365 504 365 461 q 395 578 365 549 q 468 608 425 608 q 541 578 511 608 q 571 504 571 549 q 541 432 571 461 q 468 403 511 403 z "},"Ł":{"ha":674,"x_min":14,"x_max":653,"o":"m 653 181 l 653 0 l 104 0 l 104 378 l 14 351 l 14 551 l 104 578 l 104 975 l 342 975 l 342 649 l 457 683 l 457 483 l 342 449 l 342 181 l 653 181 z "},"ł":{"ha":446,"x_min":14,"x_max":433,"o":"m 433 482 l 342 454 l 342 0 l 104 0 l 104 383 l 14 356 l 14 557 l 104 585 l 104 1028 l 342 1028 l 342 656 l 433 683 l 433 482 z "},"Ń":{"ha":1044,"x_min":86,"x_max":958,"o":"m 958 0 l 721 0 l 324 601 l 324 0 l 86 0 l 86 975 l 324 975 l 721 371 l 721 975 l 958 975 l 958 0 m 683 1171 l 349 1031 l 349 1194 l 683 1356 l 683 1171 z "},"ń":{"ha":936,"x_min":86,"x_max":857,"o":"m 558 783 q 776 695 694 783 q 857 453 857 607 l 857 0 l 621 0 l 621 421 q 581 542 621 499 q 472 585 540 585 q 364 542 404 585 q 324 421 324 499 l 324 0 l 86 0 l 86 775 l 324 775 l 324 672 q 421 753 360 724 q 558 783 482 783 m 663 968 l 328 828 l 328 992 l 663 1153 l 663 968 z "},"Ņ":{"ha":1081,"x_min":86,"x_max":958,"o":"m 958 0 l 721 0 l 324 601 l 324 0 l 86 0 l 86 975 l 324 975 l 721 371 l 721 975 l 958 975 l 958 0 m 628 -56 q 656 -219 656 -139 q 606 -374 656 -317 q 461 -431 557 -431 l 461 -340 q 533 -249 533 -340 l 533 -226 l 446 -226 l 446 -56 l 628 -56 z "},"ņ":{"ha":936,"x_min":86,"x_max":857,"o":"m 558 783 q 776 695 694 783 q 857 453 857 607 l 857 0 l 621 0 l 621 421 q 581 542 621 499 q 472 585 540 585 q 364 542 404 585 q 324 421 324 499 l 324 0 l 86 0 l 86 775 l 324 775 l 324 672 q 421 753 360 724 q 558 783 482 783 m 574 -56 q 601 -219 601 -139 q 552 -374 601 -317 q 407 -431 503 -431 l 407 -340 q 479 -249 479 -340 l 479 -226 l 392 -226 l 392 -56 l 574 -56 z "},"Ň":{"ha":1044,"x_min":86,"x_max":958,"o":"m 958 0 l 721 0 l 324 601 l 324 0 l 86 0 l 86 975 l 324 975 l 721 371 l 721 975 l 958 975 l 958 0 m 738 1140 l 522 1031 l 307 1140 l 307 1304 l 522 1183 l 738 1304 l 738 1140 z "},"ň":{"ha":936,"x_min":86,"x_max":857,"o":"m 558 783 q 776 695 694 783 q 857 453 857 607 l 857 0 l 621 0 l 621 421 q 581 542 621 499 q 472 585 540 585 q 364 542 404 585 q 324 421 324 499 l 324 0 l 86 0 l 86 775 l 324 775 l 324 672 q 421 753 360 724 q 558 783 482 783 m 717 938 l 501 828 l 286 938 l 286 1101 l 501 981 l 717 1101 l 717 938 z "},"Ō":{"ha":1092,"x_min":46,"x_max":1046,"o":"m 547 -10 q 295 54 410 -10 q 113 233 181 118 q 46 490 46 347 q 113 747 46 633 q 295 925 181 861 q 547 989 410 989 q 799 925 685 989 q 980 747 914 861 q 1046 490 1046 633 q 979 233 1046 347 q 799 54 913 118 q 547 -10 685 -10 m 547 207 q 734 285 664 207 q 804 490 804 363 q 734 697 804 619 q 547 774 664 774 q 359 697 429 774 q 289 490 289 621 q 359 284 289 361 q 547 207 429 207 m 825 1239 l 825 1075 l 269 1075 l 269 1239 l 825 1239 z "},"ō":{"ha":885,"x_min":39,"x_max":844,"o":"m 439 -11 q 234 38 325 -11 q 91 176 143 86 q 39 388 39 267 q 92 598 39 507 q 236 738 144 689 q 442 786 328 786 q 647 738 556 786 q 792 598 739 689 q 844 388 844 507 q 791 177 844 268 q 645 38 738 86 q 439 -11 553 -11 m 439 194 q 555 244 507 194 q 603 388 603 294 q 556 531 603 481 q 442 581 510 581 q 326 531 372 581 q 281 388 281 482 q 326 244 281 294 q 439 194 371 194 m 739 1042 l 739 878 l 183 878 l 183 1042 l 739 1042 z "},"Ŏ":{"ha":1092,"x_min":46,"x_max":1046,"o":"m 547 -10 q 295 54 410 -10 q 113 233 181 118 q 46 490 46 347 q 113 747 46 633 q 295 925 181 861 q 547 989 410 989 q 799 925 685 989 q 980 747 914 861 q 1046 490 1046 633 q 979 233 1046 347 q 799 54 913 118 q 547 -10 685 -10 m 547 207 q 734 285 664 207 q 804 490 804 363 q 734 697 804 619 q 547 774 664 774 q 359 697 429 774 q 289 490 289 621 q 359 284 289 361 q 547 207 429 207 m 785 1274 q 719 1097 785 1160 q 547 1035 654 1035 q 376 1098 440 1035 q 311 1275 311 1161 l 311 1301 l 429 1301 q 456 1232 429 1256 q 547 1208 482 1208 q 639 1232 613 1208 q 665 1301 665 1256 l 785 1301 l 785 1274 z "},"ŏ":{"ha":885,"x_min":39,"x_max":844,"o":"m 439 -11 q 234 38 325 -11 q 91 176 143 86 q 39 388 39 267 q 92 598 39 507 q 236 738 144 689 q 442 786 328 786 q 647 738 556 786 q 792 598 739 689 q 844 388 844 507 q 791 177 844 268 q 645 38 738 86 q 439 -11 553 -11 m 439 194 q 555 244 507 194 q 603 388 603 294 q 556 531 603 481 q 442 581 510 581 q 326 531 372 581 q 281 388 281 482 q 326 244 281 294 q 439 194 371 194 m 699 1076 q 633 900 699 963 q 461 838 568 838 q 290 901 354 838 q 225 1078 225 964 l 225 1104 l 343 1104 q 369 1035 343 1058 q 461 1011 396 1011 q 553 1035 526 1011 q 579 1104 579 1058 l 699 1104 l 699 1076 z "},"Ő":{"ha":1092,"x_min":46,"x_max":1046,"o":"m 547 -10 q 295 54 410 -10 q 113 233 181 118 q 46 490 46 347 q 113 747 46 633 q 295 925 181 861 q 547 989 410 989 q 799 925 685 989 q 980 747 914 861 q 1046 490 1046 633 q 979 233 1046 347 q 799 54 913 118 q 547 -10 685 -10 m 547 207 q 734 285 664 207 q 804 490 804 363 q 734 697 804 619 q 547 774 664 774 q 359 697 429 774 q 289 490 289 621 q 359 284 289 361 q 547 207 429 207 m 468 1038 l 322 1038 l 426 1328 l 614 1328 l 468 1038 m 736 1038 l 590 1038 l 715 1328 l 904 1328 l 736 1038 z "},"ő":{"ha":885,"x_min":39,"x_max":844,"o":"m 439 -11 q 234 38 325 -11 q 91 176 143 86 q 39 388 39 267 q 92 598 39 507 q 236 738 144 689 q 442 786 328 786 q 647 738 556 786 q 792 598 739 689 q 844 388 844 507 q 791 177 844 268 q 645 38 738 86 q 439 -11 553 -11 m 439 194 q 555 244 507 194 q 603 388 603 294 q 556 531 603 481 q 442 581 510 581 q 326 531 372 581 q 281 388 281 482 q 326 244 281 294 q 439 194 371 194 m 382 840 l 236 840 l 340 1131 l 528 1131 l 382 840 m 650 840 l 504 840 l 629 1131 l 818 1131 l 650 840 z "},"Œ":{"ha":1476,"x_min":46,"x_max":1410,"o":"m 1049 585 l 1368 585 l 1368 404 l 1049 404 l 1049 188 l 1410 188 l 1410 0 l 811 0 l 811 100 q 528 -14 710 -10 q 283 50 393 -14 q 110 229 174 114 q 46 489 46 344 q 110 747 46 633 q 284 925 174 861 q 528 989 394 989 q 686 961 614 989 q 811 878 758 933 l 811 975 l 1410 975 l 1410 788 l 1049 788 l 1049 585 m 289 489 q 359 282 289 360 q 547 204 429 204 q 734 282 664 204 q 804 489 804 360 q 734 694 804 618 q 547 771 664 771 q 359 694 429 771 q 289 489 289 618 z "},"œ":{"ha":1446,"x_min":39,"x_max":1388,"o":"m 1388 401 q 1382 333 1388 365 l 844 333 q 889 219 850 257 q 989 182 928 182 q 1114 257 1079 182 l 1367 257 q 1297 119 1347 181 q 1169 24 1246 58 q 997 -11 1092 -11 q 843 19 914 -11 q 724 106 772 49 q 597 19 671 49 q 439 -11 524 -11 q 234 38 325 -11 q 91 176 143 86 q 39 388 39 267 q 92 598 39 507 q 236 738 144 689 q 442 786 328 786 q 599 756 525 786 q 724 669 672 725 q 846 756 775 725 q 1001 786 917 786 q 1201 739 1114 786 q 1338 604 1289 692 q 1388 401 1388 517 m 1144 451 q 1101 558 1143 519 q 997 596 1060 596 q 895 558 936 596 q 846 451 854 519 l 1144 451 m 439 193 q 555 244 507 193 q 603 388 603 294 q 556 532 603 482 q 440 582 508 582 q 326 532 372 582 q 281 388 281 482 q 326 244 281 294 q 439 193 371 193 z "},"Ŕ":{"ha":906,"x_min":86,"x_max":851,"o":"m 583 0 l 381 368 l 324 368 l 324 0 l 86 0 l 86 975 l 485 975 q 681 935 600 975 q 803 824 763 894 q 843 668 843 754 q 788 494 843 571 q 626 386 733 418 l 851 0 l 583 0 m 324 536 l 471 536 q 569 568 536 536 q 601 658 601 600 q 569 746 601 714 q 471 778 536 778 l 324 778 l 324 536 m 607 1171 l 272 1031 l 272 1194 l 607 1356 l 607 1171 z "},"ŕ":{"ha":594,"x_min":86,"x_max":567,"o":"m 324 646 q 428 747 365 710 q 567 783 490 783 l 567 532 l 501 532 q 368 494 413 532 q 324 360 324 456 l 324 0 l 86 0 l 86 775 l 324 775 l 324 646 m 521 968 l 186 828 l 186 992 l 521 1153 l 521 968 z "},"Ŗ":{"ha":928,"x_min":86,"x_max":851,"o":"m 851 0 l 583 0 l 381 368 l 324 368 l 324 0 l 86 0 l 86 975 l 485 975 q 681 935 600 975 q 803 824 763 894 q 843 668 843 754 q 788 494 843 571 q 626 386 733 418 l 851 0 m 324 536 l 471 536 q 569 568 536 536 q 601 658 601 600 q 569 746 601 714 q 471 778 536 778 l 324 778 l 324 536 m 551 -56 q 579 -219 579 -139 q 530 -374 579 -317 q 385 -431 481 -431 l 385 -340 q 457 -249 457 -340 l 457 -226 l 369 -226 l 369 -56 l 551 -56 z "},"ŗ":{"ha":594,"x_min":86,"x_max":567,"o":"m 324 646 q 428 747 365 710 q 567 783 490 783 l 567 532 l 501 532 q 368 494 413 532 q 324 360 324 456 l 324 0 l 86 0 l 86 775 l 324 775 l 324 646 m 292 -56 q 318 -219 318 -135 q 269 -374 318 -317 q 125 -431 221 -431 l 125 -340 q 197 -249 197 -340 l 197 -226 l 110 -226 l 110 -56 l 292 -56 z "},"Ř":{"ha":906,"x_min":86,"x_max":851,"o":"m 583 0 l 381 368 l 324 368 l 324 0 l 86 0 l 86 975 l 485 975 q 681 935 600 975 q 803 824 763 894 q 843 668 843 754 q 788 494 843 571 q 626 386 733 418 l 851 0 l 583 0 m 324 536 l 471 536 q 569 568 536 536 q 601 658 601 600 q 569 746 601 714 q 471 778 536 778 l 324 778 l 324 536 m 661 1140 l 446 1031 l 231 1140 l 231 1304 l 446 1183 l 661 1304 l 661 1140 z "},"ř":{"ha":594,"x_min":86,"x_max":575,"o":"m 324 646 q 428 747 365 710 q 567 783 490 783 l 567 532 l 501 532 q 368 494 413 532 q 324 360 324 456 l 324 0 l 86 0 l 86 775 l 324 775 l 324 646 m 575 938 l 360 828 l 144 938 l 144 1101 l 360 981 l 575 1101 l 575 938 z "},"Ś":{"ha":854,"x_min":58,"x_max":794,"o":"m 439 -10 q 247 25 332 -10 q 112 128 163 60 q 58 292 61 196 l 311 292 q 349 209 317 238 q 432 181 381 181 q 515 205 485 181 q 546 272 546 229 q 522 332 546 308 q 462 371 497 356 q 361 406 426 386 q 207 464 267 435 q 104 550 147 493 q 61 699 61 607 q 160 912 61 835 q 417 989 258 989 q 676 912 578 989 q 782 697 775 835 l 525 697 q 490 772 522 744 q 408 799 458 799 q 339 776 365 799 q 313 710 313 753 q 357 636 313 663 q 496 579 401 610 q 649 518 590 547 q 751 433 708 489 q 794 290 794 378 q 752 139 794 207 q 629 31 710 71 q 439 -10 549 -10 m 588 1176 l 253 1036 l 253 1200 l 588 1361 l 588 1176 z "},"ś":{"ha":775,"x_min":44,"x_max":715,"o":"m 401 -11 q 221 24 300 -11 q 96 119 142 58 q 44 254 50 179 l 279 254 q 317 189 283 214 q 399 164 350 164 q 467 181 443 164 q 492 226 492 199 q 457 276 492 260 q 344 311 422 292 q 206 352 261 331 q 110 420 150 374 q 69 546 69 467 q 106 667 69 613 q 215 754 143 722 q 385 786 286 786 q 615 714 531 786 q 711 522 699 642 l 492 522 q 456 586 486 563 q 378 610 426 610 q 314 594 336 610 q 292 550 292 578 q 327 500 292 517 q 438 467 363 483 q 578 423 524 444 q 673 353 632 401 q 715 225 714 306 q 677 103 715 157 q 567 19 639 50 q 401 -11 496 -11 m 557 974 l 222 833 l 222 997 l 557 1158 l 557 974 z "},"Ş":{"ha":854,"x_min":58,"x_max":794,"o":"m 794 290 q 719 96 794 178 q 510 -6 643 14 l 510 -61 q 636 -101 582 -61 q 690 -219 690 -140 q 633 -340 690 -299 q 497 -381 576 -381 l 283 -381 l 283 -250 l 465 -250 q 507 -242 493 -250 q 521 -214 521 -233 q 507 -187 521 -194 q 465 -179 493 -179 l 367 -179 l 367 -6 q 147 88 232 11 q 58 292 63 165 l 311 292 q 349 209 317 238 q 432 181 381 181 q 515 205 485 181 q 546 272 546 229 q 522 332 546 308 q 462 371 497 356 q 361 406 426 386 q 207 464 267 435 q 104 550 147 493 q 61 699 61 607 q 160 912 61 835 q 417 989 258 989 q 676 912 578 989 q 782 697 775 835 l 525 697 q 490 772 522 744 q 408 799 458 799 q 339 776 365 799 q 313 710 313 753 q 357 636 313 663 q 496 579 401 610 q 649 518 590 547 q 751 433 708 489 q 794 290 794 378 z "},"ş":{"ha":775,"x_min":44,"x_max":715,"o":"m 478 -57 q 604 -97 550 -57 q 658 -215 658 -136 q 601 -335 658 -294 q 465 -376 544 -376 l 251 -376 l 251 -246 l 433 -246 q 475 -237 461 -246 q 489 -210 489 -229 q 475 -183 489 -190 q 433 -175 461 -175 l 335 -175 l 335 -7 q 130 81 208 10 q 44 254 51 153 l 279 254 q 317 189 283 214 q 399 164 350 164 q 467 181 443 164 q 492 226 492 199 q 457 276 492 260 q 344 311 422 292 q 206 352 261 331 q 110 420 150 374 q 69 546 69 467 q 106 667 69 613 q 215 754 143 722 q 385 786 286 786 q 615 714 531 786 q 711 522 699 642 l 492 522 q 456 586 486 563 q 378 610 426 610 q 314 594 336 610 q 292 550 292 578 q 327 500 292 517 q 438 467 363 483 q 578 423 524 444 q 673 353 632 401 q 715 225 714 306 q 652 74 715 136 q 478 -6 589 13 l 478 -57 z "},"Š":{"ha":854,"x_min":58,"x_max":794,"o":"m 439 -10 q 247 25 332 -10 q 112 128 163 60 q 58 292 61 196 l 311 292 q 349 209 317 238 q 432 181 381 181 q 515 205 485 181 q 546 272 546 229 q 522 332 546 308 q 462 371 497 356 q 361 406 426 386 q 207 464 267 435 q 104 550 147 493 q 61 699 61 607 q 160 912 61 835 q 417 989 258 989 q 676 912 578 989 q 782 697 775 835 l 525 697 q 490 772 522 744 q 408 799 458 799 q 339 776 365 799 q 313 710 313 753 q 357 636 313 663 q 496 579 401 610 q 649 518 590 547 q 751 433 708 489 q 794 290 794 378 q 752 139 794 207 q 629 31 710 71 q 439 -10 549 -10 m 640 1146 l 425 1036 l 210 1146 l 210 1310 l 425 1189 l 640 1310 l 640 1146 z "},"š":{"ha":775,"x_min":44,"x_max":715,"o":"m 401 -11 q 221 24 300 -11 q 96 119 142 58 q 44 254 50 179 l 279 254 q 317 189 283 214 q 399 164 350 164 q 467 181 443 164 q 492 226 492 199 q 457 276 492 260 q 344 311 422 292 q 206 352 261 331 q 110 420 150 374 q 69 546 69 467 q 106 667 69 613 q 215 754 143 722 q 385 786 286 786 q 615 714 531 786 q 711 522 699 642 l 492 522 q 456 586 486 563 q 378 610 426 610 q 314 594 336 610 q 292 550 292 578 q 327 500 292 517 q 438 467 363 483 q 578 423 524 444 q 673 353 632 401 q 715 225 714 306 q 677 103 715 157 q 567 19 639 50 q 401 -11 496 -11 m 611 943 l 396 833 l 181 943 l 181 1107 l 396 986 l 611 1107 l 611 943 z "},"Ţ":{"ha":821,"x_min":33,"x_max":788,"o":"m 488 0 l 488 -57 q 614 -97 560 -57 q 668 -215 668 -136 q 611 -335 668 -294 q 475 -376 554 -376 l 261 -376 l 261 -246 l 443 -246 q 485 -237 471 -246 q 499 -210 499 -229 q 485 -183 499 -190 q 443 -175 471 -175 l 344 -175 l 344 0 l 292 0 l 292 785 l 33 785 l 33 975 l 788 975 l 788 785 l 529 785 l 529 0 l 488 0 z "},"ţ":{"ha":564,"x_min":29,"x_max":558,"o":"m 378 -51 q 504 -91 450 -51 q 558 -210 558 -131 q 501 -330 558 -289 q 365 -371 444 -371 l 153 -371 l 153 -240 l 333 -240 q 375 -232 361 -240 q 389 -204 389 -224 q 375 -177 389 -185 q 333 -169 361 -169 l 235 -169 l 235 35 q 124 269 124 97 l 124 578 l 29 578 l 29 775 l 124 775 l 124 964 l 361 964 l 361 775 l 517 775 l 517 578 l 361 578 l 361 267 q 378 217 361 232 q 433 201 394 201 l 518 201 l 518 0 l 397 0 l 378 0 l 378 -51 z "},"Ť":{"ha":821,"x_min":33,"x_max":788,"o":"m 788 975 l 788 785 l 529 785 l 529 0 l 292 0 l 292 785 l 33 785 l 33 975 l 788 975 m 622 1140 l 407 1031 l 192 1140 l 192 1304 l 407 1183 l 622 1304 l 622 1140 z "},"ť":{"ha":567,"x_min":29,"x_max":642,"o":"m 614 1167 q 635 1088 629 1122 q 642 1017 642 1054 q 592 882 642 931 q 447 833 543 833 l 447 924 q 519 974 519 924 l 519 996 l 432 996 l 432 1167 l 614 1167 m 361 267 q 378 217 361 232 q 433 201 394 201 l 518 201 l 518 0 l 397 0 q 196 63 268 0 q 124 269 124 126 l 124 578 l 29 578 l 29 775 l 124 775 l 124 964 l 361 964 l 361 775 l 517 775 l 517 578 l 361 578 l 361 267 z "},"Ũ":{"ha":979,"x_min":82,"x_max":899,"o":"m 319 975 l 319 392 q 363 257 319 304 q 489 210 406 210 q 617 257 572 210 q 661 392 661 304 l 661 975 l 899 975 l 899 393 q 843 172 899 263 q 694 36 788 82 q 485 -10 600 -10 q 278 35 369 -10 q 135 172 188 81 q 82 393 82 263 l 82 975 l 319 975 m 213 1043 q 404 1249 246 1249 q 458 1240 435 1249 q 514 1213 481 1231 q 554 1192 539 1199 q 586 1186 569 1186 q 646 1249 638 1186 l 768 1249 q 576 1043 735 1043 q 523 1052 546 1043 q 467 1079 500 1061 q 426 1099 442 1093 q 394 1106 411 1106 q 333 1043 343 1106 l 213 1043 z "},"ũ":{"ha":936,"x_min":79,"x_max":851,"o":"m 851 775 l 851 0 l 614 0 l 614 106 q 516 23 578 54 q 379 -8 454 -8 q 222 31 290 -8 q 117 146 154 71 q 79 322 79 221 l 79 775 l 315 775 l 315 354 q 356 233 315 276 q 464 190 396 190 q 574 233 533 190 q 614 354 614 276 l 614 775 l 851 775 m 190 840 q 382 1046 224 1046 q 435 1037 413 1046 q 492 1010 458 1028 q 532 990 517 996 q 564 983 547 983 q 624 1046 615 983 l 746 1046 q 554 840 713 840 q 501 849 524 840 q 444 876 478 858 q 404 897 419 890 q 372 903 389 903 q 311 840 321 903 l 190 840 z "},"Ū":{"ha":979,"x_min":82,"x_max":899,"o":"m 319 975 l 319 392 q 363 257 319 304 q 489 210 406 210 q 617 257 572 210 q 661 392 661 304 l 661 975 l 899 975 l 899 393 q 843 172 899 263 q 694 36 788 82 q 485 -10 600 -10 q 278 35 369 -10 q 135 172 188 81 q 82 393 82 263 l 82 975 l 319 975 m 768 1239 l 768 1075 l 213 1075 l 213 1239 l 768 1239 z "},"ū":{"ha":936,"x_min":79,"x_max":851,"o":"m 851 775 l 851 0 l 614 0 l 614 106 q 516 23 578 54 q 379 -8 454 -8 q 222 31 290 -8 q 117 146 154 71 q 79 322 79 221 l 79 775 l 315 775 l 315 354 q 356 233 315 276 q 464 190 396 190 q 574 233 533 190 q 614 354 614 276 l 614 775 l 851 775 m 747 1036 l 747 872 l 192 872 l 192 1036 l 747 1036 z "},"Ŭ":{"ha":979,"x_min":82,"x_max":899,"o":"m 319 975 l 319 392 q 363 257 319 304 q 489 210 406 210 q 617 257 572 210 q 661 392 661 304 l 661 975 l 899 975 l 899 393 q 843 172 899 263 q 694 36 788 82 q 485 -10 600 -10 q 278 35 369 -10 q 135 172 188 81 q 82 393 82 263 l 82 975 l 319 975 m 728 1274 q 663 1097 728 1160 q 490 1035 597 1035 q 319 1098 383 1035 q 254 1275 254 1161 l 254 1301 l 372 1301 q 399 1232 372 1256 q 490 1208 425 1208 q 582 1232 556 1208 q 608 1301 608 1256 l 728 1301 l 728 1274 z "},"ŭ":{"ha":936,"x_min":79,"x_max":851,"o":"m 851 775 l 851 0 l 614 0 l 614 106 q 516 23 578 54 q 379 -8 454 -8 q 222 31 290 -8 q 117 146 154 71 q 79 322 79 221 l 79 775 l 315 775 l 315 354 q 356 233 315 276 q 464 190 396 190 q 574 233 533 190 q 614 354 614 276 l 614 775 l 851 775 m 707 1071 q 642 894 707 957 q 469 832 576 832 q 298 895 363 832 q 233 1072 233 958 l 233 1099 l 351 1099 q 378 1029 351 1053 q 469 1006 404 1006 q 561 1029 535 1006 q 588 1099 588 1053 l 707 1099 l 707 1071 z "},"Ů":{"ha":979,"x_min":82,"x_max":899,"o":"m 319 975 l 319 392 q 363 257 319 304 q 489 210 406 210 q 617 257 572 210 q 661 392 661 304 l 661 975 l 899 975 l 899 393 q 843 172 899 263 q 694 36 788 82 q 485 -10 600 -10 q 278 35 369 -10 q 135 172 188 81 q 82 393 82 263 l 82 975 l 319 975 m 661 1203 q 612 1081 661 1126 q 490 1035 563 1035 q 369 1081 418 1035 q 321 1203 321 1126 q 369 1325 321 1279 q 490 1371 418 1371 q 612 1325 563 1371 q 661 1203 661 1279 m 557 1203 q 538 1252 557 1233 q 490 1271 519 1271 q 444 1252 463 1271 q 425 1203 425 1233 q 444 1154 425 1174 q 490 1135 463 1135 q 538 1154 519 1135 q 557 1203 557 1174 z "},"ů":{"ha":936,"x_min":79,"x_max":851,"o":"m 851 775 l 851 0 l 614 0 l 614 106 q 516 23 578 54 q 379 -8 454 -8 q 222 31 290 -8 q 117 146 154 71 q 79 322 79 221 l 79 775 l 315 775 l 315 354 q 356 233 315 276 q 464 190 396 190 q 574 233 533 190 q 614 354 614 276 l 614 775 l 851 775 m 640 1000 q 591 878 640 924 q 469 832 542 832 q 349 878 397 832 q 300 1000 300 924 q 349 1122 300 1076 q 469 1168 397 1168 q 591 1122 542 1168 q 640 1000 640 1076 m 536 1000 q 517 1049 536 1031 q 469 1068 499 1068 q 423 1049 442 1068 q 404 1000 404 1031 q 423 951 404 971 q 469 932 442 932 q 517 951 499 932 q 536 1000 536 971 z "},"Ű":{"ha":979,"x_min":82,"x_max":899,"o":"m 319 975 l 319 392 q 363 257 319 304 q 489 210 406 210 q 617 257 572 210 q 661 392 661 304 l 661 975 l 899 975 l 899 393 q 843 172 899 263 q 694 36 788 82 q 485 -10 600 -10 q 278 35 369 -10 q 135 172 188 81 q 82 393 82 263 l 82 975 l 319 975 m 411 1038 l 265 1038 l 369 1328 l 557 1328 l 411 1038 m 679 1038 l 533 1038 l 658 1328 l 847 1328 l 679 1038 z "},"ű":{"ha":936,"x_min":79,"x_max":851,"o":"m 851 775 l 851 0 l 614 0 l 614 106 q 516 23 578 54 q 379 -8 454 -8 q 222 31 290 -8 q 117 146 154 71 q 79 322 79 221 l 79 775 l 315 775 l 315 354 q 356 233 315 276 q 464 190 396 190 q 574 233 533 190 q 614 354 614 276 l 614 775 l 851 775 m 390 835 l 244 835 l 349 1125 l 536 1125 l 390 835 m 658 835 l 513 835 l 638 1125 l 826 1125 l 658 835 z "},"Ų":{"ha":979,"x_min":82,"x_max":899,"o":"m 899 975 l 899 393 q 817 135 899 235 q 604 4 736 35 l 604 3 l 540 -29 q 468 -76 489 -56 q 447 -119 447 -96 q 463 -153 447 -140 q 508 -165 479 -165 q 614 -144 556 -165 l 614 -278 q 478 -299 549 -299 q 330 -258 388 -299 q 272 -140 272 -217 q 291 -63 272 -99 q 354 7 310 -28 q 156 139 229 40 q 82 393 82 238 l 82 975 l 319 975 l 319 392 q 363 257 319 304 q 489 210 406 210 q 617 257 572 210 q 661 392 661 304 l 661 975 l 899 975 z "},"ų":{"ha":936,"x_min":79,"x_max":861,"o":"m 756 -171 q 861 -150 803 -171 l 861 -283 q 725 -304 796 -304 q 577 -263 635 -304 q 519 -146 519 -222 q 541 -63 519 -101 q 614 11 563 -25 l 614 106 q 516 23 578 54 q 379 -8 454 -8 q 222 31 290 -8 q 117 146 154 71 q 79 322 79 221 l 79 775 l 315 775 l 315 354 q 356 233 315 276 q 464 190 396 190 q 574 233 533 190 q 614 354 614 276 l 614 775 l 851 775 l 851 0 l 850 0 l 851 -3 l 788 -35 q 715 -81 736 -61 q 694 -125 694 -101 q 710 -158 694 -146 q 756 -171 726 -171 z "},"Ŵ":{"ha":1461,"x_min":35,"x_max":1428,"o":"m 1428 975 l 1174 0 l 886 0 l 731 642 l 569 0 l 282 0 l 35 975 l 289 975 l 429 265 l 603 975 l 864 975 l 1031 265 l 1172 975 l 1428 975 m 728 1146 l 513 1032 l 513 1196 l 728 1306 l 943 1196 l 943 1032 l 728 1146 z "},"ŵ":{"ha":1203,"x_min":6,"x_max":1199,"o":"m 1199 775 l 989 0 l 726 0 l 604 503 l 478 0 l 217 0 l 6 775 l 243 775 l 353 221 l 483 775 l 735 775 l 867 224 l 975 775 l 1199 775 m 603 942 l 388 828 l 388 992 l 603 1101 l 818 992 l 818 828 l 603 942 z "},"Ŷ":{"ha":932,"x_min":10,"x_max":922,"o":"m 922 975 l 585 322 l 585 0 l 347 0 l 347 322 l 10 975 l 279 975 l 468 567 l 656 975 l 922 975 m 467 1144 l 251 1031 l 251 1194 l 467 1304 l 682 1194 l 682 1031 l 467 1144 z "},"ŷ":{"ha":878,"x_min":-1,"x_max":878,"o":"m 878 775 l 392 -368 l 136 -368 l 314 26 l -1 775 l 264 775 l 443 290 l 621 775 l 878 775 m 439 942 l 224 828 l 224 992 l 439 1101 l 654 992 l 654 828 l 439 942 z "},"Ÿ":{"ha":932,"x_min":10,"x_max":922,"o":"m 922 975 l 585 322 l 585 0 l 347 0 l 347 322 l 10 975 l 279 975 l 468 567 l 656 975 l 922 975 m 326 1064 q 254 1093 283 1064 q 225 1165 225 1122 q 254 1238 225 1208 q 326 1268 283 1268 q 400 1239 371 1268 q 429 1165 429 1210 q 399 1093 429 1122 q 326 1064 369 1064 m 604 1064 q 532 1093 561 1064 q 503 1165 503 1122 q 532 1238 503 1208 q 604 1268 561 1268 q 678 1239 649 1268 q 707 1165 707 1210 q 677 1093 707 1122 q 604 1064 647 1064 z "},"Ź":{"ha":828,"x_min":69,"x_max":758,"o":"m 339 194 l 758 194 l 758 0 l 69 0 l 69 181 l 486 781 l 69 781 l 69 975 l 758 975 l 758 794 l 339 194 m 575 1171 l 240 1031 l 240 1194 l 575 1356 l 575 1171 z "},"ź":{"ha":689,"x_min":43,"x_max":644,"o":"m 308 196 l 644 196 l 644 0 l 43 0 l 43 189 l 365 579 l 46 579 l 46 775 l 638 775 l 638 586 l 308 196 m 511 968 l 176 828 l 176 992 l 511 1153 l 511 968 z "},"Ż":{"ha":828,"x_min":69,"x_max":758,"o":"m 339 194 l 758 194 l 758 0 l 69 0 l 69 181 l 486 781 l 69 781 l 69 975 l 758 975 l 758 794 l 339 194 m 413 1064 q 340 1093 369 1064 q 311 1165 311 1122 q 340 1238 311 1208 q 413 1268 369 1268 q 486 1239 457 1268 q 515 1165 515 1210 q 485 1093 515 1122 q 413 1064 456 1064 z "},"ż":{"ha":689,"x_min":43,"x_max":644,"o":"m 308 196 l 644 196 l 644 0 l 43 0 l 43 189 l 365 579 l 46 579 l 46 775 l 638 775 l 638 586 l 308 196 m 349 861 q 276 890 306 861 q 247 963 247 919 q 276 1035 247 1006 q 349 1065 306 1065 q 422 1036 393 1065 q 451 963 451 1007 q 422 890 451 919 q 349 861 392 861 z "},"Ž":{"ha":828,"x_min":69,"x_max":758,"o":"m 339 194 l 758 194 l 758 0 l 69 0 l 69 181 l 486 781 l 69 781 l 69 975 l 758 975 l 758 794 l 339 194 m 629 1140 l 414 1031 l 199 1140 l 199 1304 l 414 1183 l 629 1304 l 629 1140 z "},"ž":{"ha":689,"x_min":43,"x_max":644,"o":"m 308 196 l 644 196 l 644 0 l 43 0 l 43 189 l 365 579 l 46 579 l 46 775 l 638 775 l 638 586 l 308 196 m 565 938 l 350 828 l 135 938 l 135 1101 l 350 981 l 565 1101 l 565 938 z "},"Ə":{"ha":1081,"x_min":63,"x_max":1021,"o":"m 539 994 q 791 932 682 994 q 960 756 900 869 q 1021 492 1021 642 q 961 228 1021 342 q 792 51 901 114 q 540 -11 683 -11 q 290 47 397 -11 q 122 213 182 104 q 63 471 63 322 q 68 557 63 499 l 774 557 q 703 721 768 661 q 542 781 638 781 q 413 747 468 781 q 336 656 358 714 l 78 656 q 169 832 104 756 q 328 951 233 908 q 539 994 424 994 m 536 207 q 695 258 629 207 q 772 397 761 308 l 307 397 q 375 260 311 313 q 536 207 439 207 z "},"ƒ":{"ha":467,"x_min":-87,"x_max":486,"o":"m 465 886 q 385 867 411 886 q 356 804 360 849 l 353 775 l 464 775 l 444 578 l 332 578 l 258 -114 q 163 -312 243 -254 q -50 -369 83 -369 l -87 -369 l -68 -168 l -31 -168 q 21 -114 15 -168 l 94 578 l 21 578 l 40 775 l 115 775 l 118 804 q 223 1019 133 951 q 486 1088 313 1088 l 465 886 z "},"Ǽ":{"ha":1326,"x_min":8,"x_max":1258,"o":"m 907 788 l 907 588 l 1217 588 l 1217 407 l 907 407 l 907 188 l 1258 188 l 1258 0 l 669 0 l 669 164 l 349 164 l 265 0 l 8 0 l 507 975 l 1258 975 l 1258 788 l 907 788 m 669 344 l 669 799 l 440 344 l 669 344 m 878 1169 l 543 1029 l 543 1193 l 878 1354 l 878 1169 z "},"ǽ":{"ha":1486,"x_min":39,"x_max":1446,"o":"m 1446 401 q 1439 333 1446 372 l 864 333 q 920 218 874 257 q 1031 179 967 179 q 1122 200 1086 179 q 1174 257 1158 221 l 1426 257 q 1311 64 1397 139 q 1101 -11 1225 -11 q 952 22 1018 -11 q 849 111 886 54 l 849 0 l 622 0 l 622 111 q 522 22 585 56 q 381 -11 460 -11 q 207 38 285 -11 q 84 178 129 88 q 39 389 39 269 q 84 599 39 508 q 208 738 129 689 q 385 786 288 786 q 524 756 463 786 q 625 667 585 725 l 625 775 l 849 775 l 849 667 q 1101 786 933 786 q 1280 738 1201 786 q 1402 603 1358 690 q 1446 401 1446 515 m 1203 454 q 1154 558 1201 519 q 1036 596 1107 596 q 924 560 971 596 q 864 454 876 524 l 1203 454 m 450 196 q 570 247 521 196 q 619 388 619 299 q 570 528 619 476 q 450 579 521 579 q 330 528 379 579 q 281 389 281 478 q 330 248 281 300 q 450 196 379 196 m 947 968 l 613 828 l 613 992 l 947 1153 l 947 968 z "},"Ș":{"ha":899,"x_min":58,"x_max":794,"o":"m 439 -10 q 247 25 332 -10 q 112 128 163 60 q 58 292 61 196 l 311 292 q 349 209 317 238 q 432 181 381 181 q 515 205 485 181 q 546 272 546 229 q 522 332 546 308 q 462 371 497 356 q 361 406 426 386 q 207 464 267 435 q 104 550 147 493 q 61 699 61 607 q 160 912 61 835 q 417 989 258 989 q 676 912 578 989 q 782 697 775 835 l 525 697 q 490 772 522 744 q 408 799 458 799 q 339 776 365 799 q 313 710 313 753 q 357 636 313 663 q 496 579 401 610 q 649 518 590 547 q 751 433 708 489 q 794 290 794 378 q 752 139 794 207 q 629 31 710 71 q 439 -10 549 -10 m 538 -56 q 565 -219 565 -139 q 516 -374 565 -317 q 371 -431 467 -431 l 371 -340 q 443 -249 443 -340 l 443 -226 l 356 -226 l 356 -56 l 538 -56 z "},"ș":{"ha":775,"x_min":44,"x_max":715,"o":"m 401 -11 q 221 24 300 -11 q 96 119 142 58 q 44 254 50 179 l 279 254 q 317 189 283 214 q 399 164 350 164 q 467 181 443 164 q 492 226 492 199 q 457 276 492 260 q 344 311 422 292 q 206 352 261 331 q 110 420 150 374 q 69 546 69 467 q 106 667 69 613 q 215 754 143 722 q 385 786 286 786 q 615 714 531 786 q 711 522 699 642 l 492 522 q 456 586 486 563 q 378 610 426 610 q 314 594 336 610 q 292 550 292 578 q 327 500 292 517 q 438 467 363 483 q 578 423 524 444 q 673 353 632 401 q 715 225 714 306 q 677 103 715 157 q 567 19 639 50 q 401 -11 496 -11 m 474 -56 q 501 -219 501 -139 q 452 -374 501 -317 q 307 -431 403 -431 l 307 -340 q 379 -249 379 -340 l 379 -226 l 292 -226 l 292 -56 l 474 -56 z "},"Ț":{"ha":821,"x_min":33,"x_max":788,"o":"m 788 975 l 788 785 l 529 785 l 529 0 l 292 0 l 292 785 l 33 785 l 33 975 l 788 975 m 500 -56 q 526 -219 526 -140 q 477 -374 526 -317 q 332 -431 428 -431 l 332 -340 q 406 -249 406 -340 l 406 -226 l 318 -226 l 318 -56 l 500 -56 z "},"ț":{"ha":564,"x_min":29,"x_max":518,"o":"m 518 201 l 518 0 l 397 0 q 196 63 268 0 q 124 269 124 126 l 124 578 l 29 578 l 29 775 l 124 775 l 124 964 l 361 964 l 361 775 l 517 775 l 517 578 l 361 578 l 361 267 q 378 217 361 232 q 433 201 394 201 l 518 201 m 376 -56 q 404 -219 404 -139 q 355 -374 404 -317 q 210 -431 306 -431 l 210 -340 q 282 -249 282 -340 l 282 -226 l 194 -226 l 194 -56 l 376 -56 z "},"ə":{"ha":856,"x_min":39,"x_max":817,"o":"m 425 786 q 628 738 539 786 q 767 599 717 689 q 817 388 817 508 q 767 176 817 267 q 629 38 718 86 q 425 -11 540 -11 q 225 36 313 -11 q 88 171 138 83 q 39 375 39 258 q 43 444 39 410 l 581 444 q 534 555 575 517 q 433 593 493 593 q 310 518 344 593 l 57 518 q 127 656 76 594 q 254 751 178 717 q 425 786 331 786 m 428 179 q 528 214 488 179 q 579 313 569 249 l 282 313 q 324 215 282 251 q 428 179 365 179 z "},"ʼ":{"ha":436,"x_min":68,"x_max":383,"o":"m 140 975 l 383 975 l 228 603 l 68 603 l 140 975 z "},"ˆ":{"ha":458,"x_min":14,"x_max":444,"o":"m 229 942 l 14 828 l 14 992 l 229 1101 l 444 992 l 444 828 l 229 942 z "},"ˇ":{"ha":458,"x_min":14,"x_max":444,"o":"m 444 938 l 229 828 l 14 938 l 14 1101 l 229 981 l 444 1101 l 444 938 z "},"ˉ":{"ha":583,"x_min":14,"x_max":569,"o":"m 569 1036 l 569 872 l 14 872 l 14 1036 l 569 1036 z "},"˘":{"ha":500,"x_min":14,"x_max":488,"o":"m 488 1071 q 422 894 488 957 q 250 832 357 832 q 78 895 143 832 q 14 1072 14 958 l 14 1099 l 132 1099 q 158 1029 132 1053 q 250 1006 185 1006 q 342 1029 315 1006 q 368 1099 368 1053 l 488 1099 l 488 1071 z "},"˙":{"ha":232,"x_min":14,"x_max":218,"o":"m 115 861 q 43 890 72 861 q 14 963 14 919 q 43 1035 14 1006 q 115 1065 72 1065 q 189 1036 160 1065 q 218 963 218 1007 q 188 890 218 919 q 115 861 158 861 z "},"˚":{"ha":364,"x_min":13,"x_max":353,"o":"m 353 1000 q 303 878 353 924 q 182 832 254 832 q 61 878 110 832 q 13 1000 13 924 q 61 1122 13 1076 q 182 1168 110 1168 q 303 1122 254 1168 q 353 1000 353 1076 m 249 1000 q 230 1049 249 1031 q 182 1068 211 1068 q 135 1049 154 1068 q 117 1000 117 1031 q 135 951 117 971 q 182 932 154 932 q 230 951 211 932 q 249 1000 249 971 z "},"˛":{"ha":375,"x_min":19,"x_max":361,"o":"m 351 0 l 288 -32 q 215 -78 236 -58 q 194 -122 194 -99 q 210 -156 194 -143 q 256 -168 226 -168 q 361 -147 303 -168 l 361 -281 q 225 -301 296 -301 q 77 -260 135 -301 q 19 -143 19 -219 q 69 -24 19 -78 q 246 83 119 31 l 301 107 l 351 0 z "},"˜":{"ha":569,"x_min":7,"x_max":563,"o":"m 7 840 q 199 1046 40 1046 q 252 1037 229 1046 q 308 1010 275 1028 q 349 990 333 996 q 381 983 364 983 q 440 1046 432 983 l 563 1046 q 371 840 529 840 q 317 849 340 840 q 261 876 294 858 q 221 897 236 890 q 189 903 206 903 q 128 840 138 903 l 7 840 z "},"˝":{"ha":615,"x_min":14,"x_max":596,"o":"m 160 835 l 14 835 l 118 1125 l 306 1125 l 160 835 m 428 835 l 282 835 l 407 1125 l 596 1125 l 428 835 z "},"π":{"ha":982,"x_min":28,"x_max":954,"o":"m 954 775 l 954 594 l 857 594 l 857 0 l 619 0 l 619 594 l 363 594 l 363 0 l 125 0 l 125 594 l 28 594 l 28 775 l 954 775 z "},"Ẁ":{"ha":1461,"x_min":35,"x_max":1428,"o":"m 1428 975 l 1174 0 l 886 0 l 731 642 l 569 0 l 282 0 l 35 975 l 289 975 l 429 265 l 603 975 l 864 975 l 1031 265 l 1172 975 l 1428 975 m 872 1192 l 872 1028 l 538 1168 l 538 1353 l 872 1192 z "},"ẁ":{"ha":1203,"x_min":6,"x_max":1199,"o":"m 1199 775 l 989 0 l 726 0 l 604 503 l 478 0 l 217 0 l 6 775 l 243 775 l 353 221 l 483 775 l 735 775 l 867 224 l 975 775 l 1199 775 m 738 992 l 738 828 l 403 968 l 403 1153 l 738 992 z "},"Ẃ":{"ha":1461,"x_min":35,"x_max":1428,"o":"m 1428 975 l 1174 0 l 886 0 l 731 642 l 569 0 l 282 0 l 35 975 l 289 975 l 429 265 l 603 975 l 864 975 l 1031 265 l 1172 975 l 1428 975 m 932 1172 l 597 1032 l 597 1196 l 932 1357 l 932 1172 z "},"ẃ":{"ha":1203,"x_min":6,"x_max":1199,"o":"m 1199 775 l 989 0 l 726 0 l 604 503 l 478 0 l 217 0 l 6 775 l 243 775 l 353 221 l 483 775 l 735 775 l 867 224 l 975 775 l 1199 775 m 806 968 l 471 828 l 471 992 l 806 1153 l 806 968 z "},"Ẅ":{"ha":1461,"x_min":35,"x_max":1428,"o":"m 1428 975 l 1174 0 l 886 0 l 731 642 l 569 0 l 282 0 l 35 975 l 289 975 l 429 265 l 603 975 l 864 975 l 1031 265 l 1172 975 l 1428 975 m 589 1063 q 517 1092 546 1063 q 488 1164 488 1121 q 517 1237 488 1207 q 589 1267 546 1267 q 663 1238 633 1267 q 692 1164 692 1208 q 662 1092 692 1121 q 589 1063 632 1063 m 867 1063 q 794 1092 824 1063 q 765 1164 765 1121 q 794 1237 765 1207 q 867 1267 824 1267 q 940 1238 911 1267 q 969 1164 969 1208 q 940 1092 969 1121 q 867 1063 910 1063 z "},"ẅ":{"ha":1203,"x_min":6,"x_max":1199,"o":"m 1199 775 l 989 0 l 726 0 l 604 503 l 478 0 l 217 0 l 6 775 l 243 775 l 353 221 l 483 775 l 735 775 l 867 224 l 975 775 l 1199 775 m 463 861 q 390 890 419 861 q 361 963 361 919 q 390 1035 361 1006 q 463 1065 419 1065 q 536 1036 507 1065 q 565 963 565 1007 q 535 890 565 919 q 463 861 506 861 m 740 861 q 668 890 697 861 q 639 963 639 919 q 668 1035 639 1006 q 740 1065 697 1065 q 814 1036 785 1065 q 843 963 843 1007 q 813 890 843 919 q 740 861 783 861 z "},"Ẽ":{"ha":751,"x_min":86,"x_max":683,"o":"m 324 785 l 324 588 l 642 588 l 642 404 l 324 404 l 324 190 l 683 190 l 683 0 l 86 0 l 86 975 l 683 975 l 683 785 l 324 785 m 100 1043 q 292 1249 133 1249 q 345 1240 322 1249 q 401 1213 368 1231 q 442 1192 426 1199 q 474 1186 457 1186 q 533 1249 525 1186 l 656 1249 q 464 1043 622 1043 q 410 1052 433 1043 q 354 1079 388 1061 q 314 1099 329 1093 q 282 1106 299 1106 q 221 1043 231 1106 l 100 1043 z "},"ẽ":{"ha":856,"x_min":39,"x_max":817,"o":"m 817 400 q 813 331 817 367 l 275 331 q 322 220 281 258 q 422 182 363 182 q 546 257 511 182 l 799 257 q 728 119 779 181 q 601 24 678 58 q 431 -11 525 -11 q 228 38 317 -11 q 89 176 139 86 q 39 388 39 267 q 88 599 39 508 q 226 738 138 689 q 431 786 315 786 q 631 739 543 786 q 767 604 718 692 q 817 400 817 517 m 574 463 q 532 560 574 524 q 428 596 490 596 q 327 561 368 596 q 276 463 286 526 l 574 463 m 150 846 q 342 1051 183 1051 q 395 1042 372 1051 q 451 1015 418 1033 q 492 995 476 1001 q 524 989 507 989 q 583 1051 575 989 l 706 1051 q 514 846 672 846 q 460 855 483 846 q 404 882 438 864 q 364 902 379 896 q 332 908 349 908 q 271 846 281 908 l 150 846 z "},"Ỳ":{"ha":932,"x_min":10,"x_max":922,"o":"m 922 975 l 585 322 l 585 0 l 347 0 l 347 322 l 10 975 l 279 975 l 468 567 l 656 975 l 922 975 m 628 1194 l 628 1031 l 293 1171 l 293 1356 l 628 1194 z "},"ỳ":{"ha":878,"x_min":-1,"x_max":878,"o":"m 878 775 l 392 -368 l 136 -368 l 314 26 l -1 775 l 264 775 l 443 290 l 621 775 l 878 775 m 600 992 l 600 828 l 265 968 l 265 1153 l 600 992 z "},"Ỹ":{"ha":932,"x_min":10,"x_max":922,"o":"m 922 975 l 585 322 l 585 0 l 347 0 l 347 322 l 10 975 l 279 975 l 468 567 l 656 975 l 922 975 m 189 1043 q 381 1249 222 1249 q 434 1240 411 1249 q 490 1213 457 1231 q 531 1192 515 1199 q 563 1186 546 1186 q 622 1249 614 1186 l 744 1249 q 553 1043 711 1043 q 499 1052 522 1043 q 443 1079 476 1061 q 403 1099 418 1093 q 371 1106 388 1106 q 310 1043 319 1106 l 189 1043 z "},"ỹ":{"ha":878,"x_min":-1,"x_max":878,"o":"m 878 775 l 392 -368 l 136 -368 l 314 26 l -1 775 l 264 775 l 443 290 l 621 775 l 878 775 m 161 840 q 353 1046 194 1046 q 406 1037 383 1046 q 463 1010 429 1028 q 503 990 488 996 q 535 983 518 983 q 594 1046 586 983 l 717 1046 q 525 840 683 840 q 472 849 494 840 q 415 876 449 858 q 375 897 390 890 q 343 903 360 903 q 282 840 292 903 l 161 840 z "},"–":{"ha":965,"x_min":97,"x_max":868,"o":"m 868 586 l 868 389 l 97 389 l 97 586 l 868 586 z "},"—":{"ha":1292,"x_min":97,"x_max":1194,"o":"m 1194 586 l 1194 389 l 97 389 l 97 586 l 1194 586 z "},"‘":{"ha":436,"x_min":53,"x_max":368,"o":"m 296 603 l 53 603 l 208 975 l 368 975 l 296 603 z "},"’":{"ha":436,"x_min":68,"x_max":383,"o":"m 140 975 l 383 975 l 228 603 l 68 603 l 140 975 z "},"‚":{"ha":406,"x_min":35,"x_max":350,"o":"m 107 226 l 350 226 l 194 -146 l 35 -146 l 107 226 z "},"“":{"ha":751,"x_min":53,"x_max":683,"o":"m 296 603 l 53 603 l 208 975 l 368 975 l 296 603 m 611 603 l 369 603 l 525 975 l 683 975 l 611 603 z "},"”":{"ha":751,"x_min":68,"x_max":699,"o":"m 140 975 l 383 975 l 228 603 l 68 603 l 140 975 m 456 975 l 699 975 l 543 603 l 383 603 l 456 975 z "},"„":{"ha":722,"x_min":36,"x_max":665,"o":"m 108 226 l 351 226 l 196 -146 l 36 -146 l 108 226 m 424 226 l 665 226 l 510 -146 l 351 -146 l 424 226 z "},"†":{"ha":908,"x_min":69,"x_max":839,"o":"m 839 594 l 549 613 l 572 -369 l 335 -369 l 358 613 l 69 594 l 69 775 l 358 757 l 335 1096 l 572 1096 l 549 757 l 839 775 l 839 594 z "},"‡":{"ha":908,"x_min":69,"x_max":839,"o":"m 549 613 l 549 114 l 839 132 l 839 -49 l 549 -31 l 572 -369 l 335 -369 l 358 -31 l 69 -49 l 69 132 l 358 114 l 358 613 l 69 594 l 69 775 l 358 757 l 335 1096 l 572 1096 l 549 757 l 839 775 l 839 594 l 549 613 z "},"•":{"ha":696,"x_min":139,"x_max":557,"o":"m 347 254 q 242 282 290 254 q 167 358 194 310 q 139 463 139 406 q 167 569 139 521 q 242 644 194 617 q 347 672 290 672 q 453 644 406 672 q 529 569 501 617 q 557 463 557 521 q 529 358 557 406 q 453 282 501 310 q 347 254 406 254 z "},"…":{"ha":1056,"x_min":56,"x_max":1006,"o":"m 531 -11 q 428 26 468 -11 q 389 117 389 63 q 428 210 389 172 q 531 247 468 247 q 631 210 592 247 q 671 117 671 172 q 631 26 671 63 q 531 -11 592 -11 m 865 -11 q 763 26 803 -11 q 724 117 724 63 q 763 210 724 172 q 865 247 803 247 q 966 210 926 247 q 1006 117 1006 172 q 966 26 1006 63 q 865 -11 926 -11 m 197 -11 q 95 26 135 -11 q 56 117 56 63 q 95 210 56 172 q 197 247 135 247 q 298 210 258 247 q 338 117 338 172 q 298 26 338 63 q 197 -11 258 -11 z "},"‰":{"ha":1638,"x_min":42,"x_max":1596,"o":"m 42 758 q 106 931 42 869 q 274 992 171 992 q 440 931 376 992 q 504 758 504 869 q 440 586 504 647 q 274 525 376 525 q 106 586 171 525 q 42 758 42 647 m 947 978 l 413 0 l 183 0 l 718 978 l 947 978 m 272 851 q 206 758 206 851 q 272 665 206 665 q 322 688 304 665 q 340 758 340 711 q 322 828 340 806 q 272 851 304 851 m 626 219 q 691 392 626 331 q 858 453 756 453 q 1025 392 961 453 q 1089 219 1089 331 q 1025 47 1089 108 q 858 -14 961 -14 q 691 47 756 -14 q 626 219 626 108 m 1133 219 q 1198 392 1133 331 q 1365 453 1263 453 q 1532 392 1468 453 q 1596 219 1596 331 q 1532 47 1596 108 q 1365 -14 1468 -14 q 1198 47 1263 -14 q 1133 219 1133 108 m 857 313 q 790 219 790 313 q 857 126 790 126 q 907 149 889 126 q 925 219 925 172 q 907 290 925 267 q 857 313 889 313 m 1364 313 q 1297 219 1297 313 q 1364 126 1297 126 q 1414 149 1396 126 q 1432 219 1432 172 q 1414 290 1432 267 q 1364 313 1396 313 z "},"‹":{"ha":468,"x_min":63,"x_max":399,"o":"m 179 167 l 63 410 l 179 653 l 399 653 l 278 410 l 399 167 l 179 167 z "},"›":{"ha":468,"x_min":69,"x_max":406,"o":"m 190 410 l 69 653 l 289 653 l 406 410 l 289 167 l 69 167 l 190 410 z "},"⁄":{"ha":792,"x_min":14,"x_max":778,"o":"m 778 978 l 243 0 l 14 0 l 549 978 l 778 978 z "},"€":{"ha":1106,"x_min":28,"x_max":1065,"o":"m 600 210 q 721 242 668 210 q 804 333 774 274 l 1065 333 q 900 84 1024 175 q 603 -7 776 -7 q 306 83 431 -7 q 136 328 182 174 l 28 328 l 28 451 l 115 451 q 114 489 114 464 q 115 529 114 515 l 28 529 l 28 654 l 138 654 q 308 897 183 807 q 603 986 432 986 q 900 894 776 986 q 1065 644 1024 803 l 804 644 q 721 735 774 704 q 600 767 668 767 q 481 738 533 767 q 396 654 428 708 l 628 654 l 628 529 l 357 529 q 356 489 356 517 q 357 451 356 464 l 628 451 l 628 328 l 393 328 q 478 240 425 271 q 600 210 532 210 z "},"₺":{"ha":1158,"x_min":14,"x_max":1071,"o":"m 1071 633 q 1018 265 1071 406 q 849 56 965 124 q 543 -11 733 -11 q 192 29 400 -11 l 192 340 l 17 308 l 17 456 l 192 488 l 192 567 l 14 535 l 14 678 l 192 711 l 192 982 l 433 982 l 433 757 l 619 792 l 619 644 l 433 611 l 433 531 l 619 564 l 619 417 l 433 383 l 433 221 q 542 211 479 211 q 722 265 660 211 q 807 410 785 319 q 829 633 829 500 l 1071 633 z "},"₽":{"ha":936,"x_min":25,"x_max":899,"o":"m 393 378 l 393 294 l 608 294 l 608 114 l 393 114 l 393 0 l 156 0 l 156 114 l 25 114 l 25 294 l 156 294 l 156 378 l 25 378 l 25 560 l 156 560 l 156 975 l 540 975 q 737 936 656 975 q 858 830 818 897 q 899 676 899 763 q 860 526 899 593 q 740 418 821 458 q 540 378 660 378 l 393 378 m 393 560 l 531 560 q 625 591 593 560 q 657 676 657 622 q 625 762 657 729 q 531 794 593 794 l 393 794 l 393 560 z "},"ℓ":{"ha":410,"x_min":86,"x_max":324,"o":"m 324 1028 l 324 0 l 86 0 l 86 1028 l 324 1028 z "},"™":{"ha":1226,"x_min":38,"x_max":1164,"o":"m 38 981 l 438 981 l 438 843 l 322 843 l 324 493 l 151 493 l 153 843 l 38 843 l 38 981 m 1164 981 l 1164 493 l 1007 493 l 1003 772 l 889 493 l 774 493 l 660 786 l 660 493 l 508 493 l 508 981 l 739 981 l 838 701 l 951 981 l 1164 981 z "},"Ω":{"ha":1094,"x_min":49,"x_max":1046,"o":"m 1046 513 q 906 181 1046 294 l 1039 181 l 1039 0 l 664 0 l 664 186 q 804 485 804 303 q 735 695 804 619 q 547 771 665 771 q 360 695 429 771 q 290 485 290 619 q 431 186 290 303 l 431 0 l 56 0 l 56 181 l 190 181 q 49 513 49 296 q 115 764 49 656 q 294 931 181 872 q 547 989 408 989 q 800 931 686 989 q 980 764 914 872 q 1046 513 1046 656 z "},"℮":{"ha":1039,"x_min":49,"x_max":990,"o":"m 950 186 q 532 -10 767 -10 q 283 47 393 -10 q 111 210 174 103 q 49 467 49 318 q 104 734 49 615 q 266 922 160 853 q 519 990 372 990 q 772 926 665 990 q 935 758 879 863 q 990 532 990 653 l 990 444 l 313 444 l 313 199 q 532 128 410 128 q 711 167 629 128 q 868 281 793 206 l 950 186 m 724 797 q 519 857 647 857 q 313 788 394 857 l 313 567 l 724 567 l 724 797 z "},"∂":{"ha":854,"x_min":47,"x_max":807,"o":"m 47 346 q 98 570 47 471 q 235 724 149 669 q 426 779 322 779 q 579 719 521 779 q 374 893 544 893 q 282 883 329 893 l 282 1004 q 443 1028 365 1028 q 713 903 619 1028 q 807 563 807 778 q 753 257 807 386 q 600 59 699 128 q 372 -10 501 -10 q 207 30 281 -10 q 90 149 133 69 q 47 346 47 229 m 553 439 q 524 544 553 508 q 446 581 494 581 q 331 515 374 581 q 288 347 288 450 q 317 231 288 269 q 396 193 347 193 q 510 263 467 193 q 553 439 553 333 z "},"∆":{"ha":1021,"x_min":28,"x_max":993,"o":"m 607 978 l 993 181 l 993 0 l 28 0 l 28 181 l 414 978 l 607 978 m 272 181 l 749 181 l 511 708 l 272 181 z "},"∏":{"ha":1038,"x_min":28,"x_max":1010,"o":"m 1010 978 l 1010 797 l 913 797 l 913 0 l 675 0 l 675 797 l 363 797 l 363 0 l 125 0 l 125 797 l 28 797 l 28 978 l 1010 978 z "},"∑":{"ha":744,"x_min":56,"x_max":689,"o":"m 689 797 l 275 797 l 608 560 l 608 379 l 267 111 l 689 111 l 689 -69 l 56 -69 l 56 207 l 382 464 l 56 701 l 56 978 l 689 978 l 689 797 z "},"−":{"ha":754,"x_min":72,"x_max":683,"o":"m 683 586 l 683 389 l 72 389 l 72 586 l 683 586 z "},"∕":{"ha":629,"x_min":14,"x_max":615,"o":"m 615 1319 l 243 -260 l 14 -260 l 386 1319 l 615 1319 z "},"∙":{"ha":415,"x_min":69,"x_max":351,"o":"m 211 308 q 109 345 149 308 q 69 436 69 382 q 109 529 69 492 q 211 567 149 567 q 312 529 272 567 q 351 436 351 492 q 312 345 351 382 q 211 308 272 308 z "},"√":{"ha":1292,"x_min":28,"x_max":1264,"o":"m 1264 1256 l 531 -57 l 415 -57 l 208 311 l 94 244 l 28 356 l 350 546 l 536 213 l 1119 1256 l 1264 1256 z "},"∞":{"ha":1079,"x_min":42,"x_max":1038,"o":"m 785 722 q 969 659 901 722 q 1038 483 1038 596 q 1004 356 1038 410 q 915 272 971 301 q 790 243 858 243 q 647 275 708 243 q 529 363 585 307 q 428 276 489 308 q 294 243 367 243 q 110 306 178 243 q 42 482 42 369 q 75 610 42 556 q 165 693 108 664 q 289 722 221 722 q 433 688 374 722 q 544 594 493 654 q 648 688 586 653 q 785 722 710 722 m 308 401 q 377 419 343 401 q 438 471 411 438 q 370 540 400 517 q 308 564 340 564 q 251 542 274 564 q 229 482 229 521 q 251 422 229 443 q 308 401 272 401 m 771 401 q 828 423 806 401 q 850 483 850 444 q 828 543 850 522 q 771 564 807 564 q 695 542 732 564 q 633 482 658 521 q 699 422 667 443 q 771 401 731 401 z "},"∫":{"ha":406,"x_min":-69,"x_max":475,"o":"m 144 1053 q 240 1251 160 1193 q 451 1308 319 1308 l 475 1308 l 456 1107 l 432 1107 q 382 1053 389 1107 l 261 -114 q 166 -312 246 -254 q -46 -369 86 -369 l -69 -369 l -50 -168 l -26 -168 q 24 -114 17 -168 l 144 1053 z "},"≈":{"ha":883,"x_min":39,"x_max":846,"o":"m 39 169 q 135 397 64 324 q 315 471 207 471 q 395 458 360 471 q 476 418 431 444 q 533 389 510 399 q 582 379 557 379 q 669 471 657 379 l 846 471 q 749 243 821 317 q 568 169 676 169 q 488 183 524 169 q 407 222 453 197 q 349 251 372 242 q 301 261 326 261 q 213 169 226 261 l 39 169 m 39 517 q 135 744 64 671 q 315 818 207 818 q 395 805 360 818 q 476 765 431 792 q 533 736 510 746 q 582 726 557 726 q 669 818 657 726 l 846 818 q 749 590 821 664 q 568 517 676 517 q 488 531 524 517 q 407 569 453 544 q 349 599 372 589 q 301 608 326 608 q 213 517 226 608 l 39 517 z "},"≠":{"ha":951,"x_min":94,"x_max":872,"o":"m 768 768 l 872 768 l 872 558 l 607 558 l 494 414 l 872 414 l 872 204 l 333 204 l 228 68 l 94 68 l 200 204 l 94 204 l 94 414 l 363 414 l 474 558 l 94 558 l 94 768 l 636 768 l 740 903 l 872 903 l 768 768 z "},"≤":{"ha":721,"x_min":71,"x_max":651,"o":"m 369 536 l 651 279 l 353 279 l 71 536 l 353 793 l 651 793 l 369 536 m 94 182 l 647 182 l 647 0 l 94 0 l 94 182 z "},"≥":{"ha":721,"x_min":71,"x_max":651,"o":"m 71 279 l 351 536 l 71 793 l 368 793 l 651 536 l 368 279 l 71 279 m 74 182 l 626 182 l 626 0 l 74 0 l 74 182 z "},"◊":{"ha":785,"x_min":28,"x_max":757,"o":"m 757 490 l 393 125 l 28 490 l 393 854 l 757 490 m 261 490 l 393 357 l 525 490 l 393 622 l 261 490 z "},"ﬁ":{"ha":913,"x_min":24,"x_max":832,"o":"m 347 775 l 808 775 l 808 0 l 571 0 l 571 578 l 347 578 l 347 0 l 110 0 l 110 578 l 24 578 l 24 775 l 110 775 l 110 797 q 190 1015 110 940 q 422 1089 269 1089 q 460 1088 447 1089 l 460 886 q 372 867 397 890 q 347 782 347 843 l 347 775 m 690 842 q 589 876 628 842 q 550 965 550 911 q 589 1055 550 1019 q 690 1090 628 1090 q 792 1055 753 1090 q 832 965 832 1019 q 793 876 832 911 q 690 842 754 842 z "},"ﬂ":{"ha":910,"x_min":24,"x_max":824,"o":"m 475 578 l 347 578 l 347 0 l 110 0 l 110 578 l 24 578 l 24 775 l 110 775 l 110 797 q 192 1015 110 940 q 432 1089 274 1089 q 471 1088 458 1089 l 471 886 q 375 867 403 890 q 347 782 347 843 l 347 775 l 475 775 l 475 578 m 824 1028 l 824 0 l 586 0 l 586 1028 l 824 1028 z "}}}
